<?xml version="1.0" encoding="UTF-8"?>
<svg version="1.1" xmlns="http://www.w3.org/2000/svg" width="815" height="130">
<path d="M0 0 C25.08 0 50.16 0 76 0 C74.76910918 6.76989951 73.52339218 13.44375083 71.9375 20.125 C71.76412109 20.8778125 71.59074219 21.630625 71.41210938 22.40625 C70.12355187 27.87644813 70.12355187 27.87644813 69 29 C66.40640678 29.08851529 63.83960309 29.11525945 61.24609375 29.09765625 C60.47064713 29.0962413 59.6952005 29.09482635 58.89625549 29.09336853 C56.40996506 29.08775345 53.9237634 29.07519846 51.4375 29.0625 C49.75586067 29.05748694 48.07421994 29.0529237 46.39257812 29.04882812 C42.26165671 29.03862832 38.13092818 29.01905605 34 29 C34 35.27 34 41.54 34 48 C46.87 48 59.74 48 73 48 C73 57.24 73 66.48 73 76 C60.13 76 47.26 76 34 76 C34 82.27 34 88.54 34 95 C47.86 95 61.72 95 76 95 C76 104.57 76 114.14 76 124 C50.92 124 25.84 124 0 124 C0 83.08 0 42.16 0 0 Z " fill="#0C0C0C" transform="translate(115,3)"/>
<path d="M0 0 C0 12.54 0 25.08 0 38 C-2.31 36.02 -4.62 34.04 -7 32 C-16.03489274 25.53466391 -23.92816652 23.17484139 -35.00390625 24.40234375 C-42.19784346 25.83737946 -48.24932583 29.13209272 -52.75390625 34.9765625 C-56.11775232 40.438858 -58.45474913 46.59330226 -59 53 C-59.06316406 53.6290625 -59.12632813 54.258125 -59.19140625 54.90625 C-59.7167065 64.25998344 -56.7469694 74.1577356 -50.69140625 81.3515625 C-44.28137975 87.59874768 -37.28121308 89.51988972 -28.5625 90.3125 C-16.65152051 89.26767724 -8.96642045 83.47201704 0 76 C0 88.54 0 101.08 0 114 C-12.93218377 119.87826535 -12.93218377 119.87826535 -19.1875 120.875 C-19.90309082 120.99375488 -20.61868164 121.11250977 -21.35595703 121.23486328 C-38.7415313 123.79369643 -55.31248894 119.82857642 -69.88671875 110.06640625 C-82.1676677 100.73151479 -90.1130596 87.23429012 -93.640625 72.28515625 C-95.8317732 52.25520368 -94.37231694 32.64974564 -81.82421875 16.13671875 C-79.63728531 13.64761834 -77.37535816 11.30891458 -75 9 C-74.38640625 8.36578125 -73.7728125 7.7315625 -73.140625 7.078125 C-53.62899627 -11.7664395 -23.03659033 -11.51829517 0 0 Z " fill="#080808" transform="translate(94,8)"/>
<path d="M0 0 C11.22 0 22.44 0 34 0 C34.33 30.69 34.66 61.38 35 93 C48.2 93 61.4 93 75 93 C73.87373396 103.13639433 73.87373396 103.13639433 72.84375 107.4375 C72.51697266 108.80841797 72.51697266 108.80841797 72.18359375 110.20703125 C71.95800781 111.12871094 71.73242188 112.05039063 71.5 113 C71.27441406 113.95261719 71.04882812 114.90523438 70.81640625 115.88671875 C69.13375235 122.86624765 69.13375235 122.86624765 68 124 C65.88862099 124.09948193 63.77387714 124.12799638 61.66015625 124.12939453 C60.66748245 124.13202301 60.66748245 124.13202301 59.65475464 124.13470459 C57.4573101 124.13912217 55.25994542 124.13618547 53.0625 124.1328125 C51.54174789 124.13348557 50.02099588 124.13445561 48.50024414 124.13571167 C45.30907164 124.13718851 42.11792708 124.13503452 38.92675781 124.13037109 C34.8273547 124.1246738 30.72801704 124.12795288 26.62861633 124.13394356 C23.48717756 124.13754954 20.34575442 124.13641042 17.20431519 124.13381577 C15.69237256 124.1331466 14.18042854 124.13397457 12.66848755 124.13629532 C10.55890113 124.13882245 8.44942213 124.13498044 6.33984375 124.12939453 C5.13706787 124.12859894 3.93429199 124.12780334 2.69506836 124.12698364 C0 124 0 124 -1 123 C-1.09811135 121.42077271 -1.12631892 119.83715467 -1.12698364 118.25488281 C-1.12980347 117.22842651 -1.13262329 116.20197021 -1.13552856 115.14440918 C-1.13350433 114.0087854 -1.1314801 112.87316162 -1.12939453 111.703125 C-1.13202301 109.92041199 -1.13202301 109.92041199 -1.13470459 108.10168457 C-1.1383627 104.83317224 -1.13748972 101.56470011 -1.1343255 98.29618835 C-1.13180147 94.88267937 -1.13413956 91.46917315 -1.13571167 88.05566406 C-1.13753324 82.32226069 -1.13512739 76.58887017 -1.13037109 70.85546875 C-1.12492849 64.21794224 -1.12669116 57.58044645 -1.1321975 50.94292068 C-1.13672899 45.25375734 -1.137379 39.56460326 -1.13475883 33.87543869 C-1.13319626 30.4733098 -1.13300175 27.07119536 -1.13629532 23.66906738 C-1.13882009 19.87831512 -1.13498371 16.08762277 -1.12939453 12.296875 C-1.13141876 11.16125122 -1.13344299 10.02562744 -1.13552856 8.85559082 C-1.13270874 7.82913452 -1.12988892 6.80267822 -1.12698364 5.74511719 C-1.12660662 4.84766785 -1.12622959 3.95021851 -1.12584114 3.02557373 C-1 1 -1 1 0 0 Z " fill="#0B0B0B" transform="translate(212,3)"/>
<path d="M0 0 C1.09981201 0.00757324 2.19962402 0.01514648 3.33276367 0.02294922 C11.46015907 0.18789303 18.15564543 1.06051012 25.625 4.4375 C26.64335937 4.86160156 27.66171875 5.28570313 28.7109375 5.72265625 C36.21670144 9.1163203 41.86038047 13.6046024 47.625 19.4375 C48.33527344 20.12585938 49.04554688 20.81421875 49.77734375 21.5234375 C61.82703078 33.9663005 66.14682504 49.93214314 66.04711914 66.86157227 C65.50933326 85.57828415 57.75835904 99.5740045 44.625 112.4375 C31.97855912 124.30600524 16.66253213 129.26088606 -0.4375 129.8125 C-18.76495605 129.16943137 -34.66690154 122.7409328 -47.375 109.4375 C-48.08011719 108.74011719 -48.78523438 108.04273437 -49.51171875 107.32421875 C-62.14488996 94.16165751 -65.8783007 79.20935199 -65.72460938 61.51416016 C-65.28418457 44.12035611 -58.75723226 30.672575 -46.375 18.4375 C-45.68792969 17.72851562 -45.00085938 17.01953125 -44.29296875 16.2890625 C-32.23993021 4.61617545 -16.47265206 -0.15942501 0 0 Z M-40.04003906 28.90527344 C-50.7637807 41.2136499 -53.06226824 55.66557489 -52.375 71.4375 C-50.69821538 86.5285616 -43.3073469 97.8666735 -31.859375 107.6171875 C-18.55557635 117.36493934 -4.61355844 118.63573449 11.30078125 117.1953125 C24.50743185 114.82922153 36.11696132 106.09406441 43.828125 95.375 C52.0626277 81.81228966 55.01707713 66.62062128 51.3671875 50.99609375 C47.08816947 36.24474211 38.9125096 25.31356416 25.625 17.4375 C2.75518608 6.08750572 -22.49259415 10.52393773 -40.04003906 28.90527344 Z " fill="#141414" transform="translate(439.375,0.5625)"/>
<path d="M0 0 C1.65322266 0.01740234 1.65322266 0.01740234 3.33984375 0.03515625 C4.99693359 0.04869141 4.99693359 0.04869141 6.6875 0.0625 C7.54214844 0.07410156 8.39679687 0.08570313 9.27734375 0.09765625 C9.28947403 1.74017616 9.28947403 1.74017616 9.30184937 3.4158783 C9.37948933 13.75862586 9.46727318 24.10124477 9.56487083 34.44382381 C9.61471834 39.76045585 9.66104914 45.07706912 9.69921875 50.39379883 C9.7362177 55.52915351 9.78261671 60.66434668 9.83540726 65.79956245 C9.85387379 67.75422888 9.86901 69.70892983 9.88068771 71.66364861 C9.89768329 74.41126762 9.9267492 77.15852293 9.95849609 79.90600586 C9.96065628 80.70586411 9.96281647 81.50572235 9.96504211 82.32981873 C10.12151523 92.99963341 12.51838858 101.11735433 19.96484375 108.91015625 C29.80428535 115.4079007 41.98712287 115.36333883 53.34765625 113.62890625 C59.0334146 112.16834447 63.59210931 109.72998657 67.27734375 105.09765625 C72.55342468 96.13517073 73.40723073 87.4578963 73.48266602 77.29492188 C73.49256561 76.45494659 73.50246521 75.61497131 73.51266479 74.74954224 C73.54399754 72.00102458 73.56892435 69.25248971 73.59375 66.50390625 C73.61434397 64.58719459 73.63534105 62.67048721 73.65672302 60.75378418 C73.71169153 55.72989395 73.76121115 50.70596446 73.80957031 45.68200684 C73.85997047 40.54708396 73.91555952 35.41221749 73.97070312 30.27734375 C74.07797582 20.21749621 74.17948829 10.1575995 74.27734375 0.09765625 C78.23734375 0.09765625 82.19734375 0.09765625 86.27734375 0.09765625 C86.34709949 11.62491113 86.40028434 23.15211513 86.43278027 34.67953873 C86.44838295 40.03318022 86.46952187 45.38667645 86.50366211 50.74023438 C86.53644898 55.91442019 86.55423728 61.08846697 86.56197548 66.26274872 C86.56748447 68.22894222 86.57824146 70.1951288 86.59453392 72.16126251 C86.71832193 87.73015562 86.23425256 103.59493161 75.21484375 115.84765625 C65.01956505 125.20254322 52.06339512 127.61404624 38.67578125 127.34375 C25.80711674 126.41188119 14.76629891 122.71100339 5.80859375 113.140625 C-4.97846274 98.74871035 -3.87828261 79.68072127 -3.85546875 62.65625 C-3.85614326 60.8793181 -3.85711452 59.1023863 -3.85836792 57.32545471 C-3.85983449 53.62312939 -3.85772167 49.92082834 -3.85302734 46.21850586 C-3.84729296 41.46357797 -3.85063887 36.70870607 -3.85659981 31.95378017 C-3.86020163 28.29508537 -3.85906925 24.63640401 -3.85647202 20.97770882 C-3.85580363 19.22294165 -3.8566281 17.46817327 -3.85895157 15.71340752 C-3.8614759 13.27431839 -3.85764239 10.83532237 -3.85205078 8.39624023 C-3.85407501 7.66748688 -3.85609924 6.93873352 -3.85818481 6.18789673 C-3.83233672 0.13745828 -3.83233672 0.13745828 0 0 Z " fill="#0E0E0E" transform="translate(642.72265625,2.90234375)"/>
<path d="M0 0 C1.07765625 -0.020625 2.1553125 -0.04125 3.265625 -0.0625 C13.59337192 -0.11227227 22.24412462 2.05169448 31.375 6.8125 C33.12296875 7.71162109 33.12296875 7.71162109 34.90625 8.62890625 C37.875 10.25 37.875 10.25 40.875 12.25 C41.16796875 15.5078125 41.16796875 15.5078125 41.0625 19.375 C41.02189453 21.29699219 41.02189453 21.29699219 40.98046875 23.2578125 C40.94566406 24.24523437 40.91085937 25.23265625 40.875 26.25 C39.885 26.25 38.895 26.25 37.875 26.25 C37.875 25.59 37.875 24.93 37.875 24.25 C37.37355469 24.0025 36.87210938 23.755 36.35546875 23.5 C34.32593685 22.47724376 32.31267775 21.43164867 30.30078125 20.375 C15.21151344 12.5221223 0.54866935 9.29425023 -16.25390625 14.21875 C-30.07541856 19.18321156 -39.03786548 26.50829632 -45.68359375 39.72265625 C-52.02501207 55.24108644 -52.02501207 73.25891356 -45.68359375 88.77734375 C-39.22167979 101.62620747 -30.31917526 109.04332994 -17.125 114.25 C0.20845639 119.44076769 16.96771502 115.35809122 32.4765625 107.08984375 C33.59804688 106.48269531 34.71953125 105.87554687 35.875 105.25 C37.2049386 104.57658665 38.53627455 103.9057716 39.875 103.25 C41.07031705 115.51860137 41.07031705 115.51860137 38.5859375 119.1171875 C36.40837701 120.53491837 34.32682033 121.37999924 31.875 122.25 C30.27785156 122.90355469 30.27785156 122.90355469 28.6484375 123.5703125 C11.0406716 130.40259417 -8.61408581 131.99090349 -26.3515625 124.5859375 C-41.73966906 117.58153467 -53.72529835 106.06102762 -60.125 90.25 C-66.5912506 71.91807069 -66.79699922 53.46370331 -58.8359375 35.66796875 C-56.3986237 30.79890579 -53.53488075 26.48473312 -50.125 22.25 C-49.35027344 21.26128906 -48.57554687 20.27257812 -47.77734375 19.25390625 C-36.04517216 5.30553517 -17.44350045 0.08170258 0 0 Z " fill="#151515" transform="translate(581.125,0.75)"/>
<path d="M0 0 C2.66290479 2.94492322 4.59091664 5.20243743 5.85546875 8.99609375 C4.78439758 9.86558692 3.69800931 10.7162358 2.60546875 11.55859375 C1.70054687 12.27208984 1.70054687 12.27208984 0.77734375 13 C-1.14453125 13.99609375 -1.14453125 13.99609375 -3.26953125 13.796875 C-5.14453125 12.99609375 -5.14453125 12.99609375 -6.89453125 10.62109375 C-10.48153803 6.4362525 -14.53854015 5.30714363 -19.828125 4.67578125 C-26.05372288 4.41674112 -31.09697195 5.16391728 -36.14453125 8.99609375 C-40.3351097 14.40329176 -40.74035969 20.3632866 -40.14453125 26.99609375 C-38.09309076 34.11579898 -33.82057892 37.77827737 -27.64086914 41.5065918 C-24.84792241 43.04101485 -22.03596136 44.52909961 -19.20703125 45.99609375 C-6.15333566 52.79286542 6.24886835 59.98647148 11.04296875 74.62109375 C13.36683086 84.98000453 12.33673282 96.3165952 7.4140625 105.76171875 C2.24807147 113.76840554 -3.85991309 118.29976498 -13.01953125 120.87109375 C-23.62567995 123.11031857 -33.18105956 122.58225752 -43.14453125 117.99609375 C-50.24298716 113.1953474 -55.6577034 106.84854346 -59.14453125 98.99609375 C-59.14453125 98.00609375 -59.14453125 97.01609375 -59.14453125 95.99609375 C-57.87761618 95.32201067 -56.60582376 94.65708878 -55.33203125 93.99609375 C-54.62433594 93.62484375 -53.91664063 93.25359375 -53.1875 92.87109375 C-51.14453125 91.99609375 -51.14453125 91.99609375 -48.14453125 91.99609375 C-47.32885951 93.43179641 -46.51711032 94.86972809 -45.70703125 96.30859375 C-45.02833984 97.50935547 -45.02833984 97.50935547 -44.3359375 98.734375 C-43.14453125 100.99609375 -43.14453125 100.99609375 -42.14453125 103.99609375 C-40.49822932 105.11544448 -40.49822932 105.11544448 -38.14453125 105.99609375 C-37.01015625 106.53234375 -35.87578125 107.06859375 -34.70703125 107.62109375 C-28.1111213 110.04206444 -19.76105227 110.34227248 -13.14453125 107.80859375 C-7.77708843 104.56576372 -4.33149218 100.90088825 -2.14453125 94.99609375 C-0.64990329 87.16473735 -0.3843321 79.07866735 -4.27734375 71.91015625 C-9.3081418 65.24632428 -17.03284031 61.82166154 -24.25292969 58.00390625 C-35.40169548 52.06403722 -48.79661088 44.7703043 -53.01953125 32.12109375 C-55.14045603 23.76364017 -54.77588415 15.9086206 -51.14453125 7.99609375 C-45.94570232 0.53802064 -39.16976221 -5.50040038 -30.08203125 -7.4453125 C-19.14699943 -8.98793306 -8.34521208 -7.79798506 0 0 Z " fill="#171717" transform="translate(803.14453125,8.00390625)"/>
<path d="M0 0 C20.46 0 40.92 0 62 0 C60 10 60 10 59 12 C43.82 12 28.64 12 13 12 C13 24.21 13 36.42 13 49 C26.86 49 40.72 49 55 49 C55 52.96 55 56.92 55 61 C41.14 61 27.28 61 13 61 C13 81.79 13 102.58 13 124 C8.71 124 4.42 124 0 124 C0 83.08 0 42.16 0 0 Z " fill="#1A1A1A" transform="translate(304,3)"/>
<path d="M0 0 C1.65322266 0.01740234 1.65322266 0.01740234 3.33984375 0.03515625 C4.99693359 0.04869141 4.99693359 0.04869141 6.6875 0.0625 C7.54214844 0.07410156 8.39679687 0.08570313 9.27734375 0.09765625 C9.27734375 0.75765625 9.27734375 1.41765625 9.27734375 2.09765625 C5.64734375 2.09765625 2.01734375 2.09765625 -1.72265625 2.09765625 C-1.72265625 31.46765625 -1.72265625 60.83765625 -1.72265625 91.09765625 C-2.05265625 91.09765625 -2.38265625 91.09765625 -2.72265625 91.09765625 C-3.93336847 81.62416374 -3.86824086 72.18723147 -3.85546875 62.65625 C-3.85614326 60.8793181 -3.85711452 59.1023863 -3.85836792 57.32545471 C-3.85983449 53.62312939 -3.85772167 49.92082834 -3.85302734 46.21850586 C-3.84729296 41.46357797 -3.85063887 36.70870607 -3.85659981 31.95378017 C-3.86020163 28.29508537 -3.85906925 24.63640401 -3.85647202 20.97770882 C-3.85580363 19.22294165 -3.8566281 17.46817327 -3.85895157 15.71340752 C-3.8614759 13.27431839 -3.85764239 10.83532237 -3.85205078 8.39624023 C-3.85407501 7.66748688 -3.85609924 6.93873352 -3.85818481 6.18789673 C-3.83233672 0.13745828 -3.83233672 0.13745828 0 0 Z " fill="#818181" transform="translate(642.72265625,2.90234375)"/>
<path d="M0 0 C0.66 0.33 1.32 0.66 2 1 C-2.76160398 6.59488467 -7.75800566 11.85527978 -13 17 C-14.33449731 18.33216834 -15.66814404 19.66519093 -17 21 C-15.61385307 16.86367859 -13.70847687 14.24739092 -10.75 11.0625 C-9.95207031 10.20011719 -9.15414063 9.33773438 -8.33203125 8.44921875 C-5.6008637 5.5808066 -2.83672155 2.7639851 0 0 Z " fill="#3D3D3D" transform="translate(399,13)"/>
<path d="M0 0 C-1.58561638 3.85593074 -4.06509954 6.33216291 -7 9.25 C-7.886875 10.14203125 -8.77375 11.0340625 -9.6875 11.953125 C-12 14 -12 14 -14 14 C-12.41438362 10.14406926 -9.93490046 7.66783709 -7 4.75 C-6.113125 3.85796875 -5.22625 2.9659375 -4.3125 2.046875 C-2 0 -2 0 0 0 Z " fill="#292929" transform="translate(26,12)"/>
<path d="M0 0 C0.99 0.33 1.98 0.66 3 1 C3 5.62 3 10.24 3 15 C2.01 15 1.02 15 0 15 C0 10.05 0 5.1 0 0 Z " fill="#5E5E5E" transform="translate(619,12)"/>
<path d="M0 0 C0.66 0.33 1.32 0.66 2 1 C0.92807816 2.3218362 -0.15802695 3.63217927 -1.25 4.9375 C-1.85328125 5.66839844 -2.4565625 6.39929688 -3.078125 7.15234375 C-5.10741134 9.10326334 -6.254407 9.61731779 -9 10 C-8.06409496 8.8944811 -7.12620142 7.79064547 -6.1875 6.6875 C-5.66542969 6.07261719 -5.14335938 5.45773438 -4.60546875 4.82421875 C-3.12827531 3.14575321 -1.59960869 1.56117966 0 0 Z " fill="#383838" transform="translate(762,5)"/>
<path d="M0 0 C0.66 0.33 1.32 0.66 2 1 C-1.3 4.3 -4.6 7.6 -8 11 C-8.66 10.67 -9.32 10.34 -10 10 C-6.92118304 6.12948725 -3.99926986 2.97088618 0 0 Z " fill="#565656" transform="translate(541,13)"/>
<path d="" fill="#565656" transform="translate(0,0)"/>
<path d="" fill="#333333" transform="translate(0,0)"/>
<path d="" fill="#444444" transform="translate(0,0)"/>
<path d="" fill="#515151" transform="translate(0,0)"/>
<path d="" fill="#424242" transform="translate(0,0)"/>
</svg>
