<svg viewBox="0 0 24 24" fill="none" xmlns="http://www.w3.org/2000/svg" id="Facebook--Streamline-Unicons"><desc>Facebook Streamline Icon: https://streamlinehq.com</desc><path d="M22.4664 0.24H1.5336C1.1905 0.24 0.8615 0.3763 0.6189 0.6189 0.3763 0.8615 0.24 1.1905 0.24 1.5336v20.9328c0 0.1699 0.0335 0.3381 0.0985 0.4951 0.065 0.1569 0.1603 0.2995 0.2804 0.4196 0.1201 0.1202 0.2627 0.2154 0.4197 0.2805 0.1569 0.0649 0.3251 0.0984 0.495 0.0984h11.2661v-9.114H9.7421v-3.528h3.0576V8.472c-0.0634 -0.6212 0.01 -1.2488 0.2149 -1.8386s0.5363 -1.1278 0.9711 -1.576c0.4348 -0.4482 0.9623 -0.7959 1.5456 -1.0186 0.5834 -0.2228 1.2085 -0.3152 1.8313 -0.2708 0.9153 -0.0056 1.8302 0.0415 2.7401 0.1411v3.1752h-1.8699c-1.4818 0 -1.764 0.7056 -1.764 1.7287v2.2697h3.528l-0.4586 3.528h-3.0694V23.76h5.9976c0.1699 0 0.3381 -0.0335 0.4951 -0.0984 0.1569 -0.0651 0.2995 -0.1603 0.4196 -0.2805 0.1202 -0.1201 0.2154 -0.2627 0.2805 -0.4196 0.0649 -0.157 0.0984 -0.3252 0.0984 -0.4951V1.5336c0 -0.1699 -0.0335 -0.3381 -0.0984 -0.495 -0.065 -0.157 -0.1603 -0.2996 -0.2805 -0.4197 -0.1201 -0.1201 -0.2627 -0.2154 -0.4196 -0.2804 -0.157 -0.065 -0.3252 -0.0985 -0.4951 -0.0985Z" fill="#fefefe" stroke-width="1"></path></svg>