<svg xmlns="http://www.w3.org/2000/svg" viewBox="0 0 24 24" version="1.1">
	<path d="M1.346568 1.020096C1.2885840000000002 1.038168 1.19916 1.093968 1.147848 1.144056C0.9687359999999999 1.3189440000000001 0.984 0.307728 0.984 12C0.984 23.690616000000002 0.968784 22.681104 1.1475360000000001 22.855632C1.3247039999999999 23.028648 0.8436480000000001 23.016000000000002 7.2474479999999994 23.016000000000002C13.608408 23.016000000000002 13.178568 23.02644 13.340544 22.868064C13.51476 22.697760000000002 13.499304 23.102496000000002 13.506264 18.526848L13.512528000000001 14.409696 13.446264 14.278848C13.400640000000001 14.188728000000001 13.346376000000001 14.125584000000002 13.272 14.076L13.164 14.004 11.838000000000001 13.997231999999999L10.512 13.99044 10.512 12.995232L10.512 12 11.808768 12C12.924936 12 13.117920000000002 11.994816 13.194432 11.962848000000001C13.300656 11.918472000000001 13.376424 11.850672000000001 13.447488 11.736408L13.5 11.652000000000001 13.513560000000002 9.612C13.528344 7.3855200000000005 13.522968 7.472304 13.672991999999999 7.032C14.02668 5.99388 14.934576 5.227272 16.018608 5.051448000000001C16.191624 5.023392 16.516536 5.016168 17.61 5.016096L18.984 5.016 18.984 5.9983200000000005L18.984 6.98064 17.862000000000002 6.989904C16.605864 7.000272 16.588968 7.002312 16.270104 7.18224C15.955128 7.359960000000001 15.68688 7.675344 15.578472 7.995408C15.489024 8.259408 15.477192 8.525928 15.484776 10.104672L15.492 11.605344 15.55332 11.724456C15.590424 11.796528 15.655199999999999 11.87208 15.71736 11.915784L15.820104000000002 11.988 17.110056 11.9946L18.400008 12.0012 18.236424 12.9786C18.146448 13.516176 18.072648 13.964088 18.072432000000003 13.974C18.072192 13.983912 17.583312000000003 13.99224 16.986 13.992528000000002C15.985968 13.993008000000001 15.892392000000001 13.996535999999999 15.804 14.036904C15.681456 14.092872 15.561623999999998 14.215968 15.522528000000001 14.326008000000002C15.498263999999999 14.394336000000001 15.492 15.255168 15.492 18.516000000000002L15.492 22.62 15.545304 22.719672C15.618288 22.856160000000003 15.752400000000002 22.96068 15.893304 22.990896C15.97152 23.007672 17.091672 23.016000000000002 19.268832000000003 23.016000000000002C22.900056 23.016000000000002 22.686432 23.025744 22.855632 22.852464C23.030640000000002 22.673256000000002 23.016000000000002 23.663832000000003 23.016000000000002 12C23.016000000000002 0.336168 23.030640000000002 1.326744 22.855632 1.1475360000000001C22.681056 0.9687600000000001 23.692416 0.983832 11.989632 0.985608C3.1384800000000004 0.9869519999999999 1.435128 0.992472 1.346568 1.020096M2.016 12L2.016 21.984 7.248 21.984L12.48 21.984 12.48 18.4926L12.48 15.001176 11.15004 14.9946L9.820104 14.988 9.71736 14.915784C9.655152000000001 14.872056 9.590424 14.796552 9.553320000000001 14.724432L9.492 14.605272 9.492 13.008648C9.492 11.26872 9.48924 11.305632 9.630528 11.160384C9.797976 10.988256 9.752735999999999 10.993104 11.19 10.992528L12.48 10.992 12.480504 9.558C12.480792000000001 8.769288 12.490824 7.9728 12.502775999999999 7.788C12.569136000000002 6.7632 12.963816 5.878248 13.669032 5.173032C14.27688 4.5651600000000006 14.982096 4.2045840000000005 15.888 4.0384079999999996C16.160064000000002 3.9884880000000003 19.397736000000002 3.9622080000000004 19.605168 4.008216C19.699056 4.029024000000001 19.762992 4.063248 19.839144 4.133472C20.019576 4.299768 20.016000000000002 4.262112 20.016000000000002 6.000552C20.016000000000002 7.707479999999999 20.017824 7.68636 19.855632 7.8524639999999994C19.696272 8.015688 19.69368 8.015928 18.205632 8.016528C16.972032000000002 8.017007999999999 16.877616 8.020007999999999 16.788 8.06136C16.671816 8.114976 16.598688 8.19096 16.549152 8.309568C16.517184 8.38608 16.512 8.578992000000001 16.512 9.694464L16.512 10.99044 17.838 10.997232L19.164 11.004 19.272000000000002 11.076C19.386048 11.152032 19.512 11.356176 19.512 11.464992C19.512 11.537304 19.014120000000002 14.526216 18.98208 14.646312000000002C18.952008000000003 14.758968 18.837024 14.892287999999999 18.71724 14.953415999999999C18.630936 14.997432000000002 18.567864 15 17.56896 15L16.512 15 16.512 18.492L16.512 21.984 19.248 21.984L21.984 21.984 21.984 12L21.984 2.016 12 2.016L2.016 2.016 2.016 12" stroke="none" fill="#505ba3" fill-rule="evenodd" stroke-width="0.024"></path>
</svg>