<svg version="1.1" id="Layer_1" xmlns="http://www.w3.org/2000/svg" xmlns:xlink="http://www.w3.org/1999/xlink" x="0px" y="0px"
	 width="100%" viewBox="0 0 1080 248" enable-background="new 0 0 1080 248" xml:space="preserve">
<path fill="#010000" opacity="1.000000" stroke="none" 
	d="
M776.000000,249.000000 
	C517.333374,249.000000 259.166748,249.000000 1.000104,249.000000 
	C1.000069,166.333389 1.000069,83.666786 1.000035,1.000137 
	C360.999878,1.000092 720.999756,1.000092 1080.999756,1.000046 
	C1080.999756,83.666527 1080.999756,166.333054 1080.999878,248.999786 
	C979.500000,249.000000 878.000000,249.000000 776.000000,249.000000 
M168.330383,152.782486 
	C174.501984,139.180389 175.231918,124.921494 171.679565,110.764999 
	C161.398529,69.794090 117.320107,59.642502 91.942650,83.227867 
	C91.525986,83.615112 90.901100,83.778313 89.726517,84.374275 
	C89.726517,80.519279 89.726517,77.279930 89.726517,74.114807 
	C80.632668,74.114807 72.041527,74.114807 63.342087,74.114807 
	C63.342087,122.745071 63.342087,171.088196 63.342087,219.578293 
	C72.271469,219.578293 80.854088,219.578293 89.995125,219.578293 
	C89.995125,203.146378 89.995125,186.957581 89.995125,171.535385 
	C97.202583,175.079102 103.916275,179.736313 111.348717,181.781387 
	C134.107101,188.043472 156.345108,176.521301 168.330383,152.782486 
M585.714417,77.736229 
	C566.516663,65.297935 549.105591,70.856277 531.916992,83.920189 
	C531.916992,66.466736 531.916992,49.893761 531.916992,33.164886 
	C522.773804,33.164886 514.068359,33.164886 505.403015,33.164886 
	C505.403015,82.515518 505.403015,131.527863 505.403015,180.523743 
	C514.398193,180.523743 522.983337,180.523743 532.003479,180.523743 
	C532.003479,178.088181 531.976318,175.957764 532.007751,173.828186 
	C532.277832,155.521729 532.273438,137.204666 532.964111,118.913925 
	C533.278076,110.598747 537.146606,103.514297 544.342163,98.800644 
	C555.864075,91.253014 569.447876,96.980003 571.931213,110.401413 
	C572.504456,113.499741 572.925842,116.674561 572.951050,119.817917 
	C573.099304,138.303314 573.103149,156.789841 573.176636,175.275894 
	C573.183594,177.030991 573.336182,178.785492 573.420288,180.522278 
	C582.441772,180.522278 590.863220,180.522278 599.420959,180.522278 
	C599.583801,179.616867 599.795715,178.986740 599.796265,178.356415 
	C599.816833,154.205170 600.074524,130.050003 599.707092,105.904396 
	C599.538940,94.858673 595.705322,85.014656 585.714417,77.736229 
M918.506470,152.002411 
	C924.468933,158.511810 930.952881,164.627136 936.250977,171.638580 
	C941.838623,179.033112 948.361572,182.019714 957.563110,180.988708 
	C964.351685,180.228058 971.293945,180.839310 979.417236,180.839310 
	C973.449829,174.291428 968.457092,168.813019 963.146545,162.985870 
	C982.318848,144.634445 1001.161926,126.598190 1020.268677,108.309494 
	C1014.913391,102.496689 1009.808105,96.955307 1004.560974,91.259895 
	C985.210266,109.735260 966.372925,127.720428 947.358521,145.874710 
	C940.593567,138.508499 934.200928,131.547653 927.607178,124.367867 
	C942.575562,107.621651 957.314941,91.131615 972.783447,73.825798 
	C961.525391,73.825798 951.696594,73.702499 941.876892,73.944252 
	C940.193298,73.985710 938.169678,75.227768 936.949646,76.523727 
	C931.243835,82.584564 925.769470,88.862968 920.202881,95.055046 
	C913.909790,102.055344 907.606567,109.046585 901.307739,116.041756 
	C900.936707,115.921593 900.565735,115.801430 900.194702,115.681267 
	C900.194702,88.188507 900.194702,60.695747 900.194702,33.107250 
	C890.896301,33.107250 882.311462,33.107250 873.565430,33.107250 
	C873.565430,82.418076 873.565430,131.442963 873.565430,180.510864 
	C882.557251,180.510864 891.140442,180.510864 900.410156,180.510864 
	C900.410156,164.542648 900.410156,148.889435 900.410156,131.841034 
	C906.958740,139.138458 912.494202,145.306854 918.506470,152.002411 
M731.003174,130.352600 
	C730.846069,93.912514 708.657593,70.934364 673.558533,71.015129 
	C650.883789,71.067307 633.808472,81.343109 624.443359,101.687843 
	C614.748657,122.748558 616.070618,143.861801 630.458496,162.986954 
	C648.701172,187.236069 684.357483,187.165909 704.093384,177.309952 
	C712.129944,173.296524 718.353577,167.365570 723.790710,159.759796 
	C716.820679,156.450592 710.606506,153.289536 704.191467,150.609024 
	C702.668518,149.972610 699.939514,150.280243 698.675842,151.291458 
	C692.185730,156.485092 684.885376,159.150391 676.668640,159.665558 
	C660.526672,160.677643 646.966003,150.098480 645.502441,135.003357 
	C647.350037,135.003357 649.168335,135.003357 650.986633,135.003357 
	C676.130249,135.003265 701.273926,134.990616 726.417542,135.021622 
	C729.058838,135.024887 731.662415,135.239258 731.003174,130.352600 
M342.936401,170.462143 
	C344.148895,169.320129 345.393585,168.210205 346.569122,167.031326 
	C366.552155,146.991409 368.538727,115.067673 351.209259,92.622780 
	C334.346802,70.782730 302.059387,64.274475 278.821472,78.181976 
	C249.714035,95.602280 245.478973,126.867935 255.160110,149.728195 
	C269.684265,184.024445 311.513275,194.011124 342.936401,170.462143 
M793.051880,182.598358 
	C820.725891,186.246368 843.350769,177.205765 853.332520,160.486633 
	C846.508362,155.830475 839.672180,151.166077 832.895508,146.542297 
	C816.675476,164.000931 790.790833,160.154343 780.769226,149.619614 
	C769.941406,138.237442 769.352173,118.859520 780.024780,106.736885 
	C792.673645,92.369553 813.777344,92.722244 832.972595,107.794304 
	C840.224487,103.772545 847.570862,99.698334 854.872925,95.648727 
	C854.542236,94.865677 854.453857,94.536728 854.277710,94.264587 
	C853.917175,93.707474 853.536194,93.159210 853.117432,92.644905 
	C837.342773,73.272865 816.488525,68.341248 792.942017,72.049301 
	C764.887573,76.467239 745.030823,99.731941 744.998535,127.571182 
	C744.966614,155.106750 764.642456,177.956985 793.051880,182.598358 
M459.879822,103.713326 
	C461.470795,105.086159 463.061798,106.458992 464.675354,107.851295 
	C472.172058,103.672829 479.364258,99.664085 486.930939,95.446609 
	C485.436005,93.496689 484.422516,91.986229 483.224243,90.640244 
	C467.377014,72.839424 447.129303,68.415756 424.614563,72.061211 
	C397.091125,76.517647 377.921143,98.351738 376.908508,125.663559 
	C375.924255,152.210144 393.249542,175.189209 419.141876,181.420868 
	C430.641266,184.188477 442.292358,184.196060 453.791260,181.575409 
	C466.667328,178.640869 477.333923,172.035706 485.588898,160.858841 
	C478.336792,155.888824 471.433868,151.158127 464.673737,146.525284 
	C454.037048,155.890289 449.733643,157.802444 437.983521,158.610367 
	C420.927429,159.783142 407.259918,149.396988 404.468964,133.142090 
	C401.666412,116.819649 411.165558,101.533318 427.083221,97.507423 
	C438.548950,94.607513 449.576569,95.642342 459.879822,103.713326 
M219.897293,108.703400 
	C223.193756,96.147934 228.081467,93.128822 240.160278,96.577789 
	C242.841293,89.022873 245.531296,81.442703 248.248581,73.785622 
	C241.836548,70.428268 235.399750,69.494942 229.560883,72.477356 
	C224.190338,75.220558 219.660202,79.609062 214.836823,83.215179 
	C214.836823,80.896103 214.836823,77.677124 214.836823,74.202225 
	C206.655624,74.202225 198.978577,74.202225 191.422455,74.202225 
	C191.422455,109.909317 191.422455,145.241547 191.422455,180.511963 
	C200.432098,180.511963 209.013168,180.511963 218.002640,180.511963 
	C218.002640,178.395615 218.002625,176.596664 218.002640,174.797714 
	C218.002670,158.819016 217.851440,142.838135 218.082657,126.862778 
	C218.166397,121.076836 219.165146,115.304138 219.897293,108.703400 
M116.096519,197.534775 
	C114.155769,196.065643 112.362022,193.668701 110.241737,193.332794 
	C106.549278,192.747803 102.638603,193.290298 98.863358,193.734116 
	C98.263611,193.804596 97.504295,195.820358 97.481453,196.950165 
	C97.350212,203.441223 97.495010,209.937576 97.388283,216.429535 
	C97.332268,219.836838 98.870979,220.467331 101.926590,219.394455 
	C102.134804,217.013519 102.346184,214.596390 102.561012,212.139847 
	C114.044456,214.888382 119.611267,209.145523 116.096519,197.534775 
M164.217133,213.148651 
	C167.316727,212.875168 170.416336,212.601700 173.665649,212.315002 
	C173.665649,203.720123 173.665649,195.039383 173.665649,186.307236 
	C165.750778,185.410568 171.068039,192.306183 168.275314,194.472870 
	C164.362381,192.438583 160.418259,192.103729 156.976135,195.583115 
	C153.879974,198.712799 153.154724,202.567612 154.543579,206.615326 
	C155.954269,210.726761 158.861237,213.216385 164.217133,213.148651 
M264.807678,210.644135 
	C265.804993,211.367905 266.802277,212.091675 267.799561,212.815445 
	C268.384735,211.977722 269.388092,211.182175 269.477631,210.294464 
	C269.759857,207.496567 269.235992,204.540482 269.943085,201.890854 
	C270.375305,200.271240 272.495026,199.101959 273.856842,197.730408 
	C274.886505,199.177017 276.597961,200.532516 276.805969,202.088943 
	C277.258972,205.477997 276.945862,208.969452 276.945862,212.295944 
	C280.666107,213.557724 282.098419,212.566391 281.912354,209.080627 
	C281.744354,205.934296 282.001892,202.764435 281.815735,199.620102 
	C281.575714,195.566940 279.380585,193.027802 275.205994,193.045013 
	C271.896027,193.058655 268.588440,193.647110 264.787872,194.029877 
	C264.787872,199.215622 264.787872,204.499695 264.807678,210.644135 
M195.083801,205.506516 
	C195.083801,201.595566 195.083801,197.684631 195.083801,193.931732 
	C191.319107,192.779373 190.265488,194.143890 190.386261,197.209152 
	C190.490692,199.860229 190.693085,202.610519 190.106415,205.144287 
	C189.791321,206.505142 187.872375,208.449341 186.739288,208.408417 
	C185.506744,208.363937 183.537979,206.458542 183.314774,205.125916 
	C182.772049,201.885666 183.071732,198.506760 182.984634,195.184921 
	C182.972748,194.731552 182.689636,194.285294 182.398697,193.455032 
	C181.017731,193.611038 179.652924,193.765228 178.213974,193.927795 
	C178.213974,197.886642 178.012848,201.384842 178.264938,204.850082 
	C178.579453,209.173218 180.311432,212.567184 185.252823,213.142166 
	C190.617355,213.766418 193.199844,211.979340 195.083801,205.506516 
M131.247360,201.856995 
	C130.348083,208.143097 135.845627,213.769150 141.987701,213.188553 
	C147.772278,212.641724 151.771530,207.806702 151.118423,201.815430 
	C150.620743,197.250046 146.972061,193.598083 142.345383,193.034531 
	C137.374359,192.429047 133.714935,195.124588 131.247360,201.856995 
M242.514786,198.211121 
	C239.771179,205.631622 242.875793,212.142502 249.608704,213.088211 
	C254.506378,213.776138 259.076935,211.104187 260.678253,206.616898 
	C262.287354,202.107819 260.465668,196.903870 256.425812,194.469116 
	C251.766113,191.660751 247.261581,192.691513 242.514786,198.211121 
M215.820755,211.245956 
	C216.048859,210.324783 216.276962,209.403595 216.505051,208.482407 
	C215.031311,208.344360 213.534500,208.324554 212.088943,208.042221 
	C209.544510,207.545319 206.522202,207.518906 204.704102,206.051437 
	C203.681503,205.226044 203.819031,200.936859 204.951935,199.948868 
	C206.594620,198.516357 209.591385,198.519608 212.047775,198.176712 
	C213.790878,197.933380 215.595337,198.129547 218.364456,198.129547 
	C212.838882,192.037735 205.893051,191.621902 201.585526,196.012253 
	C197.491684,200.184875 197.841125,207.483444 202.526718,211.079697 
	C206.512573,214.138855 210.868210,213.862350 215.820755,211.245956 
M291.965088,200.219727 
	C291.602600,199.719315 291.240082,199.218918 290.877594,198.718521 
	C291.673462,198.497345 292.458618,198.219025 293.267517,198.067383 
	C294.759460,197.787689 296.265320,197.582321 297.765350,197.345993 
	C297.782623,196.492401 297.799866,195.638809 297.817108,194.785233 
	C294.990295,194.307037 292.109070,193.295349 289.359619,193.575699 
	C287.984314,193.715912 285.549438,196.647751 285.854645,197.563049 
	C286.699402,200.096390 288.638367,202.306549 290.337311,204.494995 
	C291.130035,205.516129 292.367523,206.191971 293.381165,207.006454 
	C291.177795,210.600296 285.966858,204.010437 285.424103,210.429825 
	C287.994354,213.473999 291.513275,214.223404 294.739685,212.405960 
	C296.446625,211.444427 298.306641,208.140747 297.841095,206.558228 
	C297.168640,204.272293 294.446869,202.589203 291.965088,200.219727 
M225.413300,186.134201 
	C223.958099,186.886536 220.208801,195.482330 220.805908,196.711517 
	C220.876038,196.855865 221.046722,196.957962 221.096115,197.104782 
	C221.723251,198.968552 222.699890,200.804047 222.872574,202.711487 
	C223.166794,205.961472 222.953629,209.257416 222.953629,212.345810 
	C226.882080,213.613144 228.069550,212.328522 227.935593,208.961075 
	C227.797379,205.486465 226.699173,201.055222 228.365326,198.703354 
	C232.262222,193.202682 226.857559,190.292953 225.413300,186.134201 
M125.025475,194.093384 
	C122.759857,193.067917 120.790688,192.656662 120.786560,196.189209 
	C120.780251,201.597336 120.784904,207.005463 120.784904,212.267105 
	C124.724174,213.727417 125.553795,212.194290 125.660370,208.968063 
	C125.817001,204.226624 123.809685,198.657471 129.912598,195.700455 
	C130.255966,195.534073 129.957001,194.042038 129.957001,192.366470 
	C128.088165,193.273560 126.824783,193.886780 125.025475,194.093384 
M233.117859,205.391663 
	C233.119171,206.711807 233.199829,208.037582 233.106812,209.351044 
	C232.836349,213.169449 234.904373,213.198959 237.668930,212.494156 
	C237.668930,206.054443 237.668930,199.888290 237.668930,193.811447 
	C234.435989,192.956757 232.862686,193.688095 233.087128,197.017838 
	C233.253220,199.481873 233.118546,201.966202 233.117859,205.391663 
M237.933472,190.556915 
	C238.895203,188.106308 238.574051,186.066971 235.555481,186.024811 
	C234.673264,186.012482 232.987427,187.826202 233.016129,188.761658 
	C233.101883,191.557480 234.778625,192.512711 237.933472,190.556915 
z"/>
<path fill="#FD0000" opacity="1.000000" stroke="none" 
	d="
M168.171844,153.126404 
	C156.345108,176.521301 134.107101,188.043472 111.348717,181.781387 
	C103.916275,179.736313 97.202583,175.079102 89.995125,171.535385 
	C89.995125,186.957581 89.995125,203.146378 89.995125,219.578293 
	C80.854088,219.578293 72.271469,219.578293 63.342087,219.578293 
	C63.342087,171.088196 63.342087,122.745071 63.342087,74.114807 
	C72.041527,74.114807 80.632668,74.114807 89.726517,74.114807 
	C89.726517,77.279930 89.726517,80.519279 89.726517,84.374275 
	C90.901100,83.778313 91.525986,83.615112 91.942650,83.227867 
	C117.320107,59.642502 161.398529,69.794090 171.679565,110.764999 
	C175.231918,124.921494 174.501984,139.180389 168.171844,153.126404 
M146.474335,124.620461 
	C146.308548,123.131317 146.190079,121.635117 145.969406,120.154144 
	C144.274338,108.777847 135.802216,99.229637 125.018173,96.512703 
	C113.458214,93.600281 101.661469,97.739548 94.796120,107.081978 
	C89.340828,114.505600 88.231064,122.947746 89.090050,131.793015 
	C90.366150,144.933472 99.696571,155.731339 111.560127,157.989594 
	C124.710510,160.492828 136.987061,155.201248 142.504333,143.350235 
	C145.008133,137.972092 145.229523,131.531357 146.474335,124.620461 
z"/>
<path fill="#FD0000" opacity="1.000000" stroke="none" 
	d="
M586.010864,77.940163 
	C595.705322,85.014656 599.538940,94.858673 599.707092,105.904396 
	C600.074524,130.050003 599.816833,154.205170 599.796265,178.356415 
	C599.795715,178.986740 599.583801,179.616867 599.420959,180.522278 
	C590.863220,180.522278 582.441772,180.522278 573.420288,180.522278 
	C573.336182,178.785492 573.183594,177.030991 573.176636,175.275894 
	C573.103149,156.789841 573.099304,138.303314 572.951050,119.817917 
	C572.925842,116.674561 572.504456,113.499741 571.931213,110.401413 
	C569.447876,96.980003 555.864075,91.253014 544.342163,98.800644 
	C537.146606,103.514297 533.278076,110.598747 532.964111,118.913925 
	C532.273438,137.204666 532.277832,155.521729 532.007751,173.828186 
	C531.976318,175.957764 532.003479,178.088181 532.003479,180.523743 
	C522.983337,180.523743 514.398193,180.523743 505.403015,180.523743 
	C505.403015,131.527863 505.403015,82.515518 505.403015,33.164886 
	C514.068359,33.164886 522.773804,33.164886 531.916992,33.164886 
	C531.916992,49.893761 531.916992,66.466736 531.916992,83.920189 
	C549.105591,70.856277 566.516663,65.297935 586.010864,77.940163 
z"/>
<path fill="#FB0000" opacity="1.000000" stroke="none" 
	d="
M918.268066,151.738831 
	C912.494202,145.306854 906.958740,139.138458 900.410156,131.841034 
	C900.410156,148.889435 900.410156,164.542648 900.410156,180.510864 
	C891.140442,180.510864 882.557251,180.510864 873.565430,180.510864 
	C873.565430,131.442963 873.565430,82.418076 873.565430,33.107250 
	C882.311462,33.107250 890.896301,33.107250 900.194702,33.107250 
	C900.194702,60.695747 900.194702,88.188507 900.194702,115.681267 
	C900.565735,115.801430 900.936707,115.921593 901.307739,116.041756 
	C907.606567,109.046585 913.909790,102.055344 920.202881,95.055046 
	C925.769470,88.862968 931.243835,82.584564 936.949646,76.523727 
	C938.169678,75.227768 940.193298,73.985710 941.876892,73.944252 
	C951.696594,73.702499 961.525391,73.825798 972.783447,73.825798 
	C957.314941,91.131615 942.575562,107.621651 927.607178,124.367867 
	C934.200928,131.547653 940.593567,138.508499 947.358521,145.874710 
	C966.372925,127.720428 985.210266,109.735260 1004.560974,91.259895 
	C1009.808105,96.955307 1014.913391,102.496689 1020.268677,108.309494 
	C1001.161926,126.598190 982.318848,144.634445 963.146545,162.985870 
	C968.457092,168.813019 973.449829,174.291428 979.417236,180.839310 
	C971.293945,180.839310 964.351685,180.228058 957.563110,180.988708 
	C948.361572,182.019714 941.838623,179.033112 936.250977,171.638580 
	C930.952881,164.627136 924.468933,158.511810 918.268066,151.738831 
M959.105530,141.604813 
	C956.712158,143.916977 954.354858,146.267944 951.917175,148.532440 
	C948.060181,152.115326 945.409729,151.934219 941.804016,147.989075 
	C937.015381,142.749649 932.204407,137.530716 927.176575,132.056442 
	C923.506653,135.565048 920.087708,138.833694 916.515564,142.248764 
	C926.191040,152.818832 935.454590,162.938904 944.985962,173.351517 
	C967.981689,151.370499 990.523804,129.823120 1013.274475,108.076408 
	C1010.122620,104.681343 1007.353638,101.698708 1004.703674,98.844246 
	C1003.882935,99.224052 1003.521606,99.295044 1003.296509,99.509178 
	C988.724731,113.365974 974.164001,127.234390 959.105530,141.604813 
z"/>
<path fill="#FD0000" opacity="1.000000" stroke="none" 
	d="
M731.002686,130.824677 
	C731.662415,135.239258 729.058838,135.024887 726.417542,135.021622 
	C701.273926,134.990616 676.130249,135.003265 650.986633,135.003357 
	C649.168335,135.003357 647.350037,135.003357 645.502441,135.003357 
	C646.966003,150.098480 660.526672,160.677643 676.668640,159.665558 
	C684.885376,159.150391 692.185730,156.485092 698.675842,151.291458 
	C699.939514,150.280243 702.668518,149.972610 704.191467,150.609024 
	C710.606506,153.289536 716.820679,156.450592 723.790710,159.759796 
	C718.353577,167.365570 712.129944,173.296524 704.093384,177.309952 
	C684.357483,187.165909 648.701172,187.236069 630.458496,162.986954 
	C616.070618,143.861801 614.748657,122.748558 624.443359,101.687843 
	C633.808472,81.343109 650.883789,71.067307 673.558533,71.015129 
	C708.657593,70.934364 730.846069,93.912514 731.002686,130.824677 
M649.285706,107.920372 
	C648.436096,109.633568 647.586426,111.346771 646.520752,113.495651 
	C665.950562,113.495651 684.604187,113.495651 703.915466,113.495651 
	C699.661011,102.361809 691.954834,96.027031 681.001587,94.414032 
	C668.283691,92.541153 657.188904,95.856010 649.285706,107.920372 
z"/>
<path fill="#FC0000" opacity="1.000000" stroke="none" 
	d="
M342.665558,170.693024 
	C311.513275,194.011124 269.684265,184.024445 255.160110,149.728195 
	C245.478973,126.867935 249.714035,95.602280 278.821472,78.181976 
	C302.059387,64.274475 334.346802,70.782730 351.209259,92.622780 
	C368.538727,115.067673 366.552155,146.991409 346.569122,167.031326 
	C345.393585,168.210205 344.148895,169.320129 342.665558,170.693024 
M290.922089,153.717026 
	C311.626831,165.642899 334.184357,152.913788 335.785919,128.400604 
	C336.642639,115.287758 329.106995,102.768967 317.707916,98.367996 
	C305.459900,93.639259 292.101349,97.330605 283.961456,107.379578 
	C274.809479,118.677956 274.795197,143.097534 290.922089,153.717026 
z"/>
<path fill="#FC0000" opacity="1.000000" stroke="none" 
	d="
M792.624878,182.491898 
	C764.642456,177.956985 744.966614,155.106750 744.998535,127.571182 
	C745.030823,99.731941 764.887573,76.467239 792.942017,72.049301 
	C816.488525,68.341248 837.342773,73.272865 853.117432,92.644905 
	C853.536194,93.159210 853.917175,93.707474 854.277710,94.264587 
	C854.453857,94.536728 854.542236,94.865677 854.872925,95.648727 
	C847.570862,99.698334 840.224487,103.772545 832.972595,107.794304 
	C813.777344,92.722244 792.673645,92.369553 780.024780,106.736885 
	C769.352173,118.859520 769.941406,138.237442 780.769226,149.619614 
	C790.790833,160.154343 816.675476,164.000931 832.895508,146.542297 
	C839.672180,151.166077 846.508362,155.830475 853.332520,160.486633 
	C843.350769,177.205765 820.725891,186.246368 792.624878,182.491898 
z"/>
<path fill="#FC0000" opacity="1.000000" stroke="none" 
	d="
M459.594666,103.469742 
	C449.576569,95.642342 438.548950,94.607513 427.083221,97.507423 
	C411.165558,101.533318 401.666412,116.819649 404.468964,133.142090 
	C407.259918,149.396988 420.927429,159.783142 437.983521,158.610367 
	C449.733643,157.802444 454.037048,155.890289 464.673737,146.525284 
	C471.433868,151.158127 478.336792,155.888824 485.588898,160.858841 
	C477.333923,172.035706 466.667328,178.640869 453.791260,181.575409 
	C442.292358,184.196060 430.641266,184.188477 419.141876,181.420868 
	C393.249542,175.189209 375.924255,152.210144 376.908508,125.663559 
	C377.921143,98.351738 397.091125,76.517647 424.614563,72.061211 
	C447.129303,68.415756 467.377014,72.839424 483.224243,90.640244 
	C484.422516,91.986229 485.436005,93.496689 486.930939,95.446609 
	C479.364258,99.664085 472.172058,103.672829 464.675354,107.851295 
	C463.061798,106.458992 461.470795,105.086159 459.594666,103.469742 
z"/>
<path fill="#FD0000" opacity="1.000000" stroke="none" 
	d="
M219.821838,109.114395 
	C219.165146,115.304138 218.166397,121.076836 218.082657,126.862778 
	C217.851440,142.838135 218.002670,158.819016 218.002640,174.797714 
	C218.002625,176.596664 218.002640,178.395615 218.002640,180.511963 
	C209.013168,180.511963 200.432098,180.511963 191.422455,180.511963 
	C191.422455,145.241547 191.422455,109.909317 191.422455,74.202225 
	C198.978577,74.202225 206.655624,74.202225 214.836823,74.202225 
	C214.836823,77.677124 214.836823,80.896103 214.836823,83.215179 
	C219.660202,79.609062 224.190338,75.220558 229.560883,72.477356 
	C235.399750,69.494942 241.836548,70.428268 248.248581,73.785622 
	C245.531296,81.442703 242.841293,89.022873 240.160278,96.577789 
	C228.081467,93.128822 223.193756,96.147934 219.821838,109.114395 
z"/>
<path fill="#EA0000" opacity="1.000000" stroke="none" 
	d="
M116.288383,197.859955 
	C119.611267,209.145523 114.044456,214.888382 102.561012,212.139847 
	C102.346184,214.596390 102.134804,217.013519 101.926590,219.394455 
	C98.870979,220.467331 97.332268,219.836838 97.388283,216.429535 
	C97.495010,209.937576 97.350212,203.441223 97.481453,196.950165 
	C97.504295,195.820358 98.263611,193.804596 98.863358,193.734116 
	C102.638603,193.290298 106.549278,192.747803 110.241737,193.332794 
	C112.362022,193.668701 114.155769,196.065643 116.288383,197.859955 
M108.196648,208.671066 
	C109.406784,207.874619 111.599365,207.127106 111.641937,206.272507 
	C111.767151,203.758591 111.753082,200.648819 110.375397,198.871735 
	C109.560066,197.820053 104.800377,198.008667 104.055229,199.129425 
	C102.815941,200.993408 102.977486,204.122513 103.388199,206.578491 
	C103.543236,207.505554 106.029343,208.042786 108.196648,208.671066 
z"/>
<path fill="#F00000" opacity="1.000000" stroke="none" 
	d="
M163.843414,213.168686 
	C158.861237,213.216385 155.954269,210.726761 154.543579,206.615326 
	C153.154724,202.567612 153.879974,198.712799 156.976135,195.583115 
	C160.418259,192.103729 164.362381,192.438583 168.275314,194.472870 
	C171.068039,192.306183 165.750778,185.410568 173.665649,186.307236 
	C173.665649,195.039383 173.665649,203.720123 173.665649,212.315002 
	C170.416336,212.601700 167.316727,212.875168 163.843414,213.168686 
M162.789520,197.772934 
	C158.452271,199.367111 157.839935,202.594727 159.768494,206.158615 
	C161.345200,209.072281 164.442673,209.795563 166.989166,207.659943 
	C168.358856,206.511292 169.646072,203.452682 169.037735,202.179077 
	C168.111313,200.239624 165.507523,199.101395 162.789520,197.772934 
z"/>
<path fill="#EB0000" opacity="1.000000" stroke="none" 
	d="
M264.797791,210.213959 
	C264.787872,204.499695 264.787872,199.215622 264.787872,194.029877 
	C268.588440,193.647110 271.896027,193.058655 275.205994,193.045013 
	C279.380585,193.027802 281.575714,195.566940 281.815735,199.620102 
	C282.001892,202.764435 281.744354,205.934296 281.912354,209.080627 
	C282.098419,212.566391 280.666107,213.557724 276.945862,212.295944 
	C276.945862,208.969452 277.258972,205.477997 276.805969,202.088943 
	C276.597961,200.532516 274.886505,199.177017 273.856842,197.730408 
	C272.495026,199.101959 270.375305,200.271240 269.943085,201.890854 
	C269.235992,204.540482 269.759857,207.496567 269.477631,210.294464 
	C269.388092,211.182175 268.384735,211.977722 267.799561,212.815430 
	C266.802277,212.091675 265.804993,211.367905 264.797791,210.213959 
z"/>
<path fill="#EB0000" opacity="1.000000" stroke="none" 
	d="
M195.056915,205.913147 
	C193.199844,211.979340 190.617355,213.766418 185.252823,213.142166 
	C180.311432,212.567184 178.579453,209.173218 178.264938,204.850082 
	C178.012848,201.384842 178.213974,197.886642 178.213974,193.927795 
	C179.652924,193.765228 181.017731,193.611038 182.398697,193.455032 
	C182.689636,194.285294 182.972748,194.731552 182.984634,195.184921 
	C183.071732,198.506760 182.772049,201.885666 183.314774,205.125916 
	C183.537979,206.458542 185.506744,208.363937 186.739288,208.408417 
	C187.872375,208.449341 189.791321,206.505142 190.106415,205.144287 
	C190.693085,202.610519 190.490692,199.860229 190.386261,197.209152 
	C190.265488,194.143890 191.319107,192.779373 195.083801,193.931732 
	C195.083801,197.684631 195.083801,201.595566 195.056915,205.913147 
z"/>
<path fill="#F20000" opacity="1.000000" stroke="none" 
	d="
M131.327820,201.473938 
	C133.714935,195.124588 137.374359,192.429047 142.345383,193.034531 
	C146.972061,193.598083 150.620743,197.250046 151.118423,201.815430 
	C151.771530,207.806702 147.772278,212.641724 141.987701,213.188553 
	C135.845627,213.769150 130.348083,208.143097 131.327820,201.473938 
M139.947830,208.582993 
	C141.222092,208.396118 143.311264,208.601273 143.623749,207.951721 
	C144.732544,205.646820 146.231323,202.758316 145.618225,200.666626 
	C145.207535,199.265549 141.271973,197.814911 139.271881,198.208191 
	C136.014648,198.848679 135.403091,202.109573 136.365265,205.067276 
	C136.771530,206.316132 138.257446,207.213745 139.947830,208.582993 
z"/>
<path fill="#F20000" opacity="1.000000" stroke="none" 
	d="
M242.712631,197.886444 
	C247.261581,192.691513 251.766113,191.660751 256.425812,194.469116 
	C260.465668,196.903870 262.287354,202.107819 260.678253,206.616898 
	C259.076935,211.104187 254.506378,213.776138 249.608704,213.088211 
	C242.875793,212.142502 239.771179,205.631622 242.712631,197.886444 
M246.502457,205.679626 
	C250.310196,209.784515 254.953110,209.600601 255.951370,205.070511 
	C256.373352,203.155502 255.613281,200.379227 254.340256,198.895569 
	C253.440521,197.846939 249.838593,197.461548 249.093140,198.281067 
	C247.550201,199.977295 247.107407,202.674255 246.502457,205.679626 
z"/>
<path fill="#EE0000" opacity="1.000000" stroke="none" 
	d="
M215.518616,211.475952 
	C210.868210,213.862350 206.512573,214.138855 202.526718,211.079697 
	C197.841125,207.483444 197.491684,200.184875 201.585526,196.012253 
	C205.893051,191.621902 212.838882,192.037735 218.364456,198.129547 
	C215.595337,198.129547 213.790878,197.933380 212.047775,198.176712 
	C209.591385,198.519608 206.594620,198.516357 204.951935,199.948868 
	C203.819031,200.936859 203.681503,205.226044 204.704102,206.051437 
	C206.522202,207.518906 209.544510,207.545319 212.088943,208.042221 
	C213.534500,208.324554 215.031311,208.344360 216.505066,208.482407 
	C216.276962,209.403595 216.048859,210.324783 215.518616,211.475952 
z"/>
<path fill="#EE0000" opacity="1.000000" stroke="none" 
	d="
M292.282288,200.434311 
	C294.446869,202.589203 297.168640,204.272293 297.841095,206.558228 
	C298.306641,208.140747 296.446625,211.444427 294.739685,212.405960 
	C291.513275,214.223404 287.994354,213.473999 285.424103,210.429825 
	C285.966858,204.010437 291.177795,210.600296 293.381165,207.006454 
	C292.367523,206.191971 291.130035,205.516129 290.337311,204.494995 
	C288.638367,202.306549 286.699402,200.096390 285.854645,197.563049 
	C285.549438,196.647751 287.984314,193.715912 289.359619,193.575699 
	C292.109070,193.295349 294.990295,194.307037 297.817108,194.785233 
	C297.799866,195.638809 297.782623,196.492401 297.765350,197.345993 
	C296.265320,197.582321 294.759460,197.787689 293.267517,198.067383 
	C292.458618,198.219025 291.673462,198.497345 290.877594,198.718506 
	C291.240082,199.218918 291.602600,199.719315 292.282288,200.434311 
z"/>
<path fill="#E70000" opacity="1.000000" stroke="none" 
	d="
M225.836151,186.156616 
	C226.857559,190.292953 232.262222,193.202682 228.365326,198.703354 
	C226.699173,201.055222 227.797379,205.486465 227.935593,208.961075 
	C228.069550,212.328522 226.882080,213.613144 222.953629,212.345810 
	C222.953629,209.257416 223.166794,205.961472 222.872574,202.711487 
	C222.699890,200.804047 221.723251,198.968552 221.096115,197.104782 
	C221.046722,196.957962 220.876038,196.855865 220.805908,196.711517 
	C220.208801,195.482330 223.958099,186.886536 225.836151,186.156616 
z"/>
<path fill="#E80000" opacity="1.000000" stroke="none" 
	d="
M125.293434,194.296692 
	C126.824783,193.886780 128.088165,193.273560 129.957001,192.366470 
	C129.957001,194.042038 130.255966,195.534073 129.912598,195.700455 
	C123.809685,198.657471 125.817001,204.226624 125.660370,208.968063 
	C125.553795,212.194290 124.724174,213.727417 120.784904,212.267105 
	C120.784904,207.005463 120.780251,201.597336 120.786560,196.189209 
	C120.790688,192.656662 122.759857,193.067917 125.293434,194.296692 
z"/>
<path fill="#EA0000" opacity="1.000000" stroke="none" 
	d="
M233.117859,204.916565 
	C233.118546,201.966202 233.253220,199.481873 233.087128,197.017838 
	C232.862686,193.688095 234.435989,192.956757 237.668930,193.811447 
	C237.668930,199.888290 237.668930,206.054443 237.668930,212.494156 
	C234.904373,213.198959 232.836349,213.169449 233.106812,209.351044 
	C233.199829,208.037582 233.119171,206.711807 233.117859,204.916565 
z"/>
<path fill="#E70000" opacity="1.000000" stroke="none" 
	d="
M237.674057,190.815033 
	C234.778625,192.512711 233.101883,191.557480 233.016129,188.761658 
	C232.987427,187.826202 234.673264,186.012482 235.555481,186.024811 
	C238.574051,186.066971 238.895203,188.106308 237.674057,190.815033 
z"/>
<path fill="#010000" opacity="1.000000" stroke="none" 
	d="
M146.480301,125.096542 
	C145.229523,131.531357 145.008133,137.972092 142.504333,143.350235 
	C136.987061,155.201248 124.710510,160.492828 111.560127,157.989594 
	C99.696571,155.731339 90.366150,144.933472 89.090050,131.793015 
	C88.231064,122.947746 89.340828,114.505600 94.796120,107.081978 
	C101.661469,97.739548 113.458214,93.600281 125.018173,96.512703 
	C135.802216,99.229637 144.274338,108.777847 145.969406,120.154144 
	C146.190079,121.635117 146.308548,123.131317 146.480301,125.096542 
z"/>
<path fill="#050000" opacity="1.000000" stroke="none" 
	d="
M959.353882,141.353287 
	C974.164001,127.234390 988.724731,113.365974 1003.296509,99.509178 
	C1003.521606,99.295044 1003.882935,99.224052 1004.703674,98.844246 
	C1007.353638,101.698708 1010.122620,104.681343 1013.274475,108.076408 
	C990.523804,129.823120 967.981689,151.370499 944.985962,173.351517 
	C935.454590,162.938904 926.191040,152.818832 916.515564,142.248764 
	C920.087708,138.833694 923.506653,135.565048 927.176575,132.056442 
	C932.204407,137.530716 937.015381,142.749649 941.804016,147.989075 
	C945.409729,151.934219 948.060181,152.115326 951.917175,148.532440 
	C954.354858,146.267944 956.712158,143.916977 959.353882,141.353287 
z"/>
<path fill="#070000" opacity="1.000000" stroke="none" 
	d="
M649.496948,107.613556 
	C657.188904,95.856010 668.283691,92.541153 681.001587,94.414032 
	C691.954834,96.027031 699.661011,102.361809 703.915466,113.495651 
	C684.604187,113.495651 665.950562,113.495651 646.520752,113.495651 
	C647.586426,111.346771 648.436096,109.633568 649.496948,107.613556 
z"/>
<path fill="#010000" opacity="1.000000" stroke="none" 
	d="
M290.623383,153.502350 
	C274.795197,143.097534 274.809479,118.677956 283.961456,107.379578 
	C292.101349,97.330605 305.459900,93.639259 317.707916,98.367996 
	C329.106995,102.768967 336.642639,115.287758 335.785919,128.400604 
	C334.184357,152.913788 311.626831,165.642899 290.623383,153.502350 
z"/>
<path fill="#0E0000" opacity="1.000000" stroke="none" 
	d="
M107.824738,208.714386 
	C106.029343,208.042786 103.543236,207.505554 103.388199,206.578491 
	C102.977486,204.122513 102.815941,200.993408 104.055229,199.129425 
	C104.800377,198.008667 109.560066,197.820053 110.375397,198.871735 
	C111.753082,200.648819 111.767151,203.758591 111.641937,206.272507 
	C111.599365,207.127106 109.406784,207.874619 107.824738,208.714386 
z"/>
<path fill="#060000" opacity="1.000000" stroke="none" 
	d="
M163.202789,197.697922 
	C165.507523,199.101395 168.111313,200.239624 169.037735,202.179077 
	C169.646072,203.452682 168.358856,206.511292 166.989166,207.659943 
	C164.442673,209.795563 161.345200,209.072281 159.768494,206.158615 
	C157.839935,202.594727 158.452271,199.367111 163.202789,197.697922 
z"/>
<path fill="#0F0000" opacity="1.000000" stroke="none" 
	d="
M139.600220,208.427002 
	C138.257446,207.213745 136.771530,206.316132 136.365265,205.067276 
	C135.403091,202.109573 136.014648,198.848679 139.271881,198.208191 
	C141.271973,197.814911 145.207535,199.265549 145.618225,200.666626 
	C146.231323,202.758316 144.732544,205.646820 143.623749,207.951721 
	C143.311264,208.601273 141.222092,208.396118 139.600220,208.427002 
z"/>
<path fill="#0F0000" opacity="1.000000" stroke="none" 
	d="
M246.357330,205.319641 
	C247.107407,202.674255 247.550201,199.977295 249.093140,198.281067 
	C249.838593,197.461548 253.440521,197.846939 254.340256,198.895569 
	C255.613281,200.379227 256.373352,203.155502 255.951370,205.070511 
	C254.953110,209.600601 250.310196,209.784515 246.357330,205.319641 
z"/>
</svg>