<?xml version="1.0" standalone="no"?>
<!DOCTYPE svg PUBLIC "-//W3C//DTD SVG 20010904//EN"
 "http://www.w3.org/TR/2001/REC-SVG-20010904/DTD/svg10.dtd">
<svg version="1.0" xmlns="http://www.w3.org/2000/svg"
 width="200.000000pt" height="200.000000pt" viewBox="0 0 200.000000 200.000000"
 preserveAspectRatio="xMidYMid meet">

<g transform="translate(0.000000,200.000000) scale(0.100000,-0.100000)"
fill="#000000" stroke="none">
<path d="M424 1246 c-18 -8 -35 -19 -38 -25 -11 -17 -23 -13 -29 9 -5 18 -14
20 -96 20 -50 0 -91 -3 -91 -8 0 -4 9 -15 20 -25 19 -16 20 -29 20 -215 0
-186 -1 -200 -20 -217 -11 -10 -20 -22 -20 -27 0 -5 42 -7 92 -6 l93 3 3 190
2 191 29 17 c37 22 54 21 74 -1 14 -15 17 -42 17 -156 0 -153 9 -186 59 -229
27 -23 42 -27 92 -27 46 0 59 3 59 15 0 8 -3 15 -7 15 -5 0 -17 13 -28 28 -18
24 -21 47 -25 210 l-5 184 -37 34 c-32 29 -45 34 -85 34 -27 -1 -62 -7 -79
-14z"/>
<path d="M700 1245 c0 -8 5 -15 10 -15 6 0 20 -19 30 -42 16 -36 20 -67 20
-178 1 -165 14 -204 82 -244 62 -36 155 -37 222 -1 l48 25 30 -25 c25 -21 40
-25 94 -25 65 0 76 7 48 31 -35 29 -44 66 -44 183 0 131 -13 204 -42 241 -52
66 -169 85 -263 42 l-50 -23 -34 23 c-41 28 -151 34 -151 8z m325 -79 c44 -29
52 -61 57 -213 l3 -143 -35 0 c-49 0 -101 30 -121 71 -14 27 -18 62 -19 164
-1 72 -1 134 -1 139 1 14 88 0 116 -18z"/>
<path d="M1310 1245 c0 -8 4 -15 8 -15 4 0 17 -15 27 -32 17 -29 21 -57 25
-211 l5 -179 39 -35 c36 -33 41 -35 95 -31 38 3 68 12 88 26 38 27 39 27 46 2
5 -18 14 -20 96 -20 50 0 91 4 91 8 0 5 -9 17 -20 27 -19 17 -20 31 -20 217 0
186 1 199 20 215 11 10 20 21 20 26 0 4 -42 6 -92 5 l-93 -3 -5 -189 -5 -189
-28 -21 c-26 -19 -30 -19 -55 -5 l-27 15 -5 154 c-5 166 -10 181 -61 224 -25
22 -41 26 -90 26 -46 0 -59 -3 -59 -15z"/>
</g>
</svg>
