<svg id="SvgjsSvg1001" width="288" height="288" xmlns="http://www.w3.org/2000/svg" version="1.1" xmlns:xlink="http://www.w3.org/1999/xlink" xmlns:svgjs="http://svgjs.com/svgjs"><defs id="SvgjsDefs1002"></defs><g id="SvgjsG1008"><svg xmlns="http://www.w3.org/2000/svg" enable-background="new 0 0 399 126" viewBox="0 0 399 126" width="288" height="288"><path fill="#727272" d="M198 127C191.978851 127 185.957703 127 179.32608 126.649155 177.767197 125.99588 176.832047 125.640488 175.868393 125.398781 153.542572 119.798981 142.125992 105.288261 142.11441 82.460197 142.106476 66.825676 142.186859 51.190678 142.087128 35.556789 142.01178 23.746332 138.541153 13.66418 127 8.196329 127 5.649756 127 3.324878 127 1 135.354233 1 143.708466 1 152.7005 1.333085 161.369278 2.918911 167.632629 7.293354 171.929626 12.048929 182.174576 8.155075 191.587296 4.577537 201 1 207.021149 1 213.042297 1 219.683899 1.355335 245.334824 6.467547 257.775757 21.551264 257.786102 47.164066 257.792267 62.450531 257.713501 77.737511 257.815979 93.023293 257.894104 104.676048 261.49411 114.502411 273 119.896713 273 122.359276 273 124.679634 273 127 263.979095 127 254.958206 127 245.349976 126.659683 238.481857 122.883926 232.201096 119.448486 225.48111 115.772797 223.19722 117.07753 220.055908 119.383759 216.549774 120.761528 210.485748 123.144455 204.195404 124.951424 198 127M181.18248 86.661804C188.062424 103.611755 207.824829 113.304382 221.807968 106.709274 221.262054 103.772827 220.722855 100.872452 220.574814 97.253159 220.671356 82.114212 220.776978 66.975288 220.831436 51.836189 220.833633 51.229134 220.351257 50.620335 219.889404 49.207264 217.698715 28.158388 196.106659 13.70045 177.878204 21.203709 178.343781 23.741362 178.814468 26.306889 178.739777 29.533352 178.500275 30.486963 178.055267 31.439915 178.05217 32.394287 178.00769 46.20747 177.918976 60.022282 178.111328 73.832939 178.149353 76.562088 179.323273 79.275421 180.23439 82.59404 180.243149 83.024681 180.251923 83.455322 179.896088 84.245888 180.226639 84.829338 180.55719 85.412788 181.18248 86.661804zM1 11C1 8.958333 1 6.916667 1.261515 4.436442 1.690543 4.046208 1.858056 4.094532 2.381201 4.346536 15.863581 4.700747 28.990124 4.886381 42.117302 4.963607 44.065414 4.975069 46.016541 4.475244 48.323948 4.393763 48.681625 7.308532 48.681625 10.041498 48.681625 11.828269 57.980301 8.142524 66.99015 4.571261 76 1 79.36129 1 82.722572 1 86.728745 1.326298 103.235558 4.609701 113.83387 16.972366 113.958382 33.142597 114.116112 53.62738 113.876389 74.115471 114.071709 94.599617 114.15934 103.790298 116.78624 112.410881 125.057785 117.399864 129.694199 120.19632 129.718475 122.974068 128 127 119.645767 127 111.291534 127 102.33313 126.667099 100.328438 125.851326 98.914429 125.404106 97.529526 124.879974 85.460556 120.312271 77.007385 108.327728 77.332291 95.622147 77.68808 94.454109 77.966965 93.640846 77.9683 92.827118 77.996338 75.827904 78.012207 58.828575 77.956909 41.829506 77.952774 40.555859 77.395889 39.284004 76.981827 37.645386 75.094467 28.649708 70.421364 24.538376 63.163219 25.380005 56.127258 26.195868 48.421127 30.538818 48.631599 40.404057 49.188385 66.501991 48.836056 92.61969 48.783768 118.729393 48.780403 120.409317 48.251648 122.088181 47.603466 123.581848 33.114594 123.272453 18.989634 123.132729 4.864324 123.061058 3.920645 123.056267 2.974348 123.567337 1.776946 123.910683 1.349749 123.988594 1.174874 123.994301 1 124 1 121.958336 1 119.916664 1.387332 117.435616 10.098144 114.771454 11.798163 112.637985 11.800401 104.301331 11.807633 77.357162 11.808756 50.412987 11.79976 23.468819 11.796929 14.990905 9.411481 12.258426 1 11zM400 4C400 6.041668 400 8.083336 399.625854 10.656213 391.986084 12.339088 389.234741 15.088732 389.221558 21.754362 389.165894 49.877487 389.16214 78.000862 389.223022 106.12397 389.237823 112.959526 393.07251 116.672798 400 117 400 119.041664 400 121.083336 399.737732 123.55278 399.307129 123.932617 399.138855 123.884674 398.61377 123.636154 385.799255 123.289688 373.341766 123.095642 360.883636 123.03688 358.268036 123.024529 355.650116 123.50975 352.670532 123.594215 352.3078 120.687378 352.3078 117.952026 352.3078 116.144966 343.012939 119.839737 334.00647 123.419861 325 127 320.974487 127 316.949005 127 312.325439 126.667404 293.999298 119.963493 287.005157 109.997368 286.99408 91.099503 286.982758 71.794754 287.11496 52.4883 286.89032 33.186016 286.785614 24.190039 284.153229 15.728203 276.168091 10.749764 272.259064 8.31264 271.49762 5.875858 272.673096 2.039545 280.085175 1.689539 287.042603 1.344769 294 1 294.75 1 295.5 1 296.811646 1.326268 312.952576 4.569521 323.897949 17.113836 323.667114 32.378216 323.311493 33.546124 323.032867 34.35931 323.031525 35.172955 323.003448 52.169724 322.987793 69.166603 323.042053 86.163239 323.046143 87.43853 323.593872 88.712082 323.984741 90.362801 324.63736 95.226051 326.208618 98.981026 330.559143 101.237923 338.436676 105.324478 352.804871 99.210587 352.446808 87.970284 351.611603 61.751144 352.164764 35.487247 352.216919 9.241604 352.220276 7.561899 352.748138 5.883236 353.39325 4.395256 368.2164 4.682381 382.678284 4.787502 397.14032 4.842522 397.751343 4.844847 398.364105 4.381645 399.226746 4.061283 399.651611 3.991503 399.825806 3.995751 400 4z" class="color0958FF svgShape"></path><path fill="#fdfeff" d="M272.218445 2.044782C271.49762 5.875858 272.259064 8.31264 276.168091 10.749764 284.153229 15.728203 286.785614 24.190039 286.89032 33.186016 287.11496 52.4883 286.982758 71.794754 286.99408 91.099503 287.005157 109.997368 293.999298 119.963493 311.863708 126.667404 299.312439 127 286.624878 127 273.468658 127 273 124.679634 273 122.359276 273 119.896713 261.49411 114.502411 257.894104 104.676048 257.815979 93.023293 257.713501 77.737511 257.792267 62.450531 257.786102 47.164066 257.775757 21.551264 245.334824 6.467547 220.152176 1.355335 237.020889 1 254.041794 1 271.561523 1.266302 272.113068 1.703331 272.165741 1.874056 272.218445 2.044782zM128.468658 127C129.718475 122.974068 129.694199 120.19632 125.057785 117.399864 116.78624 112.410881 114.15934 103.790298 114.071709 94.599617 113.876389 74.115471 114.116112 53.62738 113.958382 33.142597 113.83387 16.972366 103.235558 4.609701 87.186813 1.326298 100.020897 1 113.041786 1 126.531342 1 127 3.324878 127 5.649756 127 8.196329 138.541153 13.66418 142.01178 23.746332 142.087128 35.556789 142.186859 51.190678 142.106476 66.825676 142.11441 82.460197 142.125992 105.288261 153.542572 119.798981 175.868393 125.398781 176.832047 125.640488 177.767197 125.99588 178.857819 126.649155 162.312439 127 145.624878 127 128.468658 127zM353.031982 4.204088C352.748138 5.883236 352.220276 7.561899 352.216919 9.241604 352.164764 35.487247 351.611603 61.751144 352.446808 87.970284 352.804871 99.210587 338.436676 105.324478 330.559143 101.237923 326.208618 98.981026 324.63736 95.226051 324.054169 89.899246 323.976257 70.047462 323.924774 51.035587 323.873291 32.023708 323.897949 17.113836 312.952576 4.569521 297.186646 1.326268 330.166656 1 363.333405.981525 396.499786 1.07335 397.717682 1.076722 400.471313-.533132 400 3.5 399.825806 3.995751 399.651611 3.991503 398.765808 3.980308 383.046783 4.05027 368.039368 4.127179 353.031982 4.204088z" class="colorFDFEFF svgShape"></path><path fill="#fefeff" d="M47.967293,123.767540 
	C48.251648,122.088181 48.780403,120.409317 48.783768,118.729393 
	C48.836056,92.619690 49.188385,66.501991 48.631599,40.404057 
	C48.421127,30.538818 56.127258,26.195868 63.163219,25.380005 
	C70.421364,24.538376 75.094467,28.649708 76.919006,38.109917 
	C77.022247,57.952484 77.074188,76.964592 77.126137,95.976692 
	C77.007385,108.327728 85.460556,120.312271 97.529526,124.879974 
	C98.914429,125.404106 100.328438,125.851326 101.864471,126.667099 
	C69.491142,127.000000 36.982224,127.018677 4.473623,126.926834 
	C3.263260,126.923416 0.508509,128.531006 1.000000,124.500000 
	C1.174874,123.994301 1.349749,123.988594 2.238949,123.980751 
	C17.957949,123.908257 32.962620,123.837898 47.967293,123.767540 
z" class="colorFEFEFF svgShape"></path><path fill="#f9fbff" d="M400 116.531342C393.07251 116.672798 389.237823 112.959526 389.223022 106.12397 389.16214 78.000862 389.165894 49.877487 389.221558 21.754362 389.234741 15.088732 391.986084 12.339088 399.625854 11.093711 400 46.020893 400 81.041786 400 116.531342zM1 11.468657C9.411481 12.258426 11.796929 14.990905 11.79976 23.468819 11.808756 50.412987 11.807633 77.357162 11.800401 104.301331 11.798163 112.637985 10.098144 114.771454 1.387332 116.998116 1 81.979103 1 46.95821 1 11.468657z" class="colorF9FBFF svgShape"></path><path fill="#f8faff" d="
M75.531342,1.000000 
	C66.990150,4.571261 57.980301,8.142524 48.681625,11.828269 
	C48.681625,10.041498 48.681625,7.308532 47.868538,4.284710 
	C32.045486,4.043522 17.035528,4.093189 2.025570,4.142856 
	C1.858056,4.094532 1.690543,4.046208 1.261515,3.998942 
	C1.000000,3.005643 1.000000,2.011286 1.000000,1.000000 
	C25.687559,1.000000 50.375122,1.000000 75.531342,1.000000 
z" class="colorF8FAFF svgShape"></path><path fill="#fcfdff" d="
M398.970581,123.836723 
	C399.138855,123.884674 399.307129,123.932617 399.737732,123.990280 
	C400.000000,124.994354 400.000000,125.988716 400.000000,127.000000 
	C375.312439,127.000000 350.624878,127.000000 325.468658,127.000000 
	C334.006470,123.419861 343.012939,119.839737 352.307800,116.144966 
	C352.307800,117.952026 352.307800,120.687378 353.127747,123.694885 
	C368.955353,123.923592 383.962952,123.880157 398.970581,123.836723 
z" class="colorFCFDFF svgShape"></path><path fill="#fafbff" d="
M198.468658,127.000000 
	C204.195404,124.951424 210.485748,123.144455 216.549774,120.761528 
	C220.055908,119.383759 223.197220,117.077530 225.481110,115.772797 
	C232.201096,119.448486 238.481857,122.883926 244.881317,126.659683 
	C229.645767,127.000000 214.291550,127.000000 198.468658,127.000000 
z" class="colorFAFBFF svgShape"></path><path fill="#f8faff" d="
M200.531342,1.000000 
	C191.587296,4.577537 182.174576,8.155075 171.929626,12.048929 
	C167.632629,7.293354 161.369278,2.918911 153.169144,1.333085 
	C168.687561,1.000000 184.375122,1.000000 200.531342,1.000000 
z" class="colorF8FAFF svgShape"></path><path fill="#727272" d="
M272.673096,2.039545 
	C272.165741,1.874056 272.113068,1.703331 272.030182,1.266302 
	C279.020966,1.000000 286.041901,1.000000 293.531433,1.000000 
	C287.042603,1.344769 280.085175,1.689539 272.673096,2.039545 
z" class="color386DFF svgShape"></path><path fill="#fdfeff" d="
M179.285156,28.872416 
	C178.814468,26.306889 178.343781,23.741362 177.878204,21.203709 
	C196.106659,13.700450 217.698715,28.158388 219.923203,50.073483 
	C220.032547,66.617165 220.108093,82.294624 220.183624,97.972084 
	C220.722855,100.872452 221.262054,103.772827 221.807968,106.709274 
	C207.824829,113.304382 188.062424,103.611755 181.068909,86.041885 
	C180.723801,84.909973 180.492249,84.397964 180.260696,83.885963 
	C180.251923,83.455322 180.243149,83.024681 180.153824,81.828918 
	C180.049164,65.613853 180.049942,50.163784 179.969727,34.714138 
	C179.959625,32.765766 179.523773,30.819601 179.285156,28.872416 
z" class="colorFDFEFF svgShape"></path><path fill="#727272" d="
M179.012466,29.202885 
	C179.523773,30.819601 179.959625,32.765766 179.969727,34.714138 
	C180.049942,50.163784 180.049164,65.613853 180.023300,81.529922 
	C179.323273,79.275421 178.149353,76.562088 178.111328,73.832939 
	C177.918976,60.022282 178.007690,46.207470 178.052170,32.394287 
	C178.055267,31.439915 178.500275,30.486963 179.012466,29.202885 
z" class="color0352FF svgShape"></path><path fill="#727272" d="
M220.379211,97.612625 
	C220.108093,82.294624 220.032547,66.617165 220.025818,50.476028 
	C220.351257,50.620335 220.833633,51.229134 220.831436,51.836189 
	C220.776978,66.975288 220.671356,82.114212 220.379211,97.612625 
z" class="color0047FF svgShape"></path><path fill="#727272" d="
M180.078400,84.065926 
	C180.492249,84.397964 180.723801,84.909973 180.921539,85.709106 
	C180.557190,85.412788 180.226639,84.829338 180.078400,84.065926 
z" class="color0352FF svgShape"></path><path fill="#727272" d="
M77.332291,95.622147 
	C77.074188,76.964592 77.022247,57.952484 77.033127,38.475849 
	C77.395889,39.284004 77.952774,40.555859 77.956909,41.829506 
	C78.012207,58.828575 77.996338,75.827904 77.968300,92.827118 
	C77.966965,93.640846 77.688080,94.454109 77.332291,95.622147 
z" class="color0047FF svgShape"></path><path fill="#727272" d="
M2.381201,4.346536 
	C17.035528,4.093189 32.045486,4.043522 47.510857,4.102909 
	C46.016541,4.475244 44.065414,4.975069 42.117302,4.963607 
	C28.990124,4.886381 15.863581,4.700747 2.381201,4.346536 
z" class="color0148FF svgShape"></path><path fill="#727272" d="
M47.603466,123.581848 
	C32.962620,123.837898 17.957949,123.908257 2.491272,123.908546 
	C2.974348,123.567337 3.920645,123.056267 4.864324,123.061058 
	C18.989634,123.132729 33.114594,123.272453 47.603466,123.581848 
z" class="color04F svgShape"></path><path fill="#727272" d="M323.667114 32.378216C323.924774 51.035587 323.976257 70.047462 323.958313 89.522896 323.593872 88.712082 323.046143 87.43853 323.042053 86.163239 322.987793 69.166603 323.003448 52.169724 323.031525 35.172955 323.032867 34.35931 323.311493 33.546124 323.667114 32.378216zM353.39325 4.395255C368.039368 4.127179 383.046783 4.05027 398.515137 4.054338 398.364105 4.381645 397.751343 4.844847 397.14032 4.842522 382.678284 4.787502 368.2164 4.682381 353.39325 4.395255z" class="color0047FF svgShape"></path><path fill="#727272" d="
M398.613770,123.636154 
	C383.962952,123.880157 368.955353,123.923592 353.490479,123.866364 
	C355.650116,123.509750 358.268036,123.024529 360.883636,123.036880 
	C373.341766,123.095642 385.799255,123.289688 398.613770,123.636154 
z" class="color04F svgShape"></path></svg></g></svg>