<?xml version="1.0" encoding="UTF-8"?>
<svg id="Layer_1" data-name="Layer 1" xmlns="http://www.w3.org/2000/svg" viewBox="0 0 399 126">
  <defs>
    <style>
      .cls-1 {
        fill: #0352ff;
      }

      .cls-2 {
        fill: #386dff;
      }

      .cls-3 {
        fill: #0958ff;
      }

      .cls-4 {
        fill: #0148ff;
      }

      .cls-5 {
        fill: #0047ff;
      }

      .cls-6 {
        fill: #04f;
      }
    </style>
  </defs>
  <path class="cls-3" d="M197,126c-6.02,0-12.04,0-18.67-.35-1.56-.65-2.49-1.01-3.46-1.25-22.33-5.6-33.74-20.11-33.75-42.94,0-15.63,.07-31.27-.03-46.9-.08-11.81-3.55-21.89-15.09-27.36V0c8.35,0,16.71,0,25.7,.33,8.67,1.59,14.93,5.96,19.23,10.72,10.24-3.89,19.66-7.47,29.07-11.05,6.02,0,12.04,0,18.68,.36,25.65,5.11,38.09,20.2,38.1,45.81,0,15.29-.07,30.57,.03,45.86,.08,11.65,3.68,21.48,15.18,26.87v7.1c-9.02,0-18.04,0-27.65-.34-6.87-3.78-13.15-7.21-19.87-10.89-2.28,1.3-5.43,3.61-8.93,4.99-6.06,2.38-12.35,4.19-18.55,6.24m-16.82-40.34c6.88,16.95,26.64,26.64,40.63,20.05-.55-2.94-1.09-5.84-1.23-9.46,.1-15.14,.2-30.28,.26-45.42,0-.61-.48-1.22-.94-2.63-2.19-21.05-23.78-35.51-42.01-28,.47,2.54,.94,5.1,.86,8.33-.24,.95-.68,1.91-.69,2.86-.04,13.81-.13,27.63,.06,41.44,.04,2.73,1.21,5.44,2.12,8.76,0,.43,.02,.86-.34,1.65,.33,.58,.66,1.17,1.29,2.42Z"/>
  <path class="cls-3" d="M0,10C0,7.96,0,5.92,.26,3.44c.43-.39,.6-.34,1.12-.09,13.48,.35,26.61,.54,39.74,.62,1.95,.01,3.9-.49,6.21-.57,.36,2.91,.36,5.65,.36,7.43,9.3-3.69,18.31-7.26,27.32-10.83,3.36,0,6.72,0,10.73,.33,16.51,3.28,27.11,15.65,27.23,31.82,.16,20.48-.08,40.97,.11,61.46,.09,9.19,2.71,17.81,10.99,22.8,4.64,2.8,4.66,5.57,2.94,9.6-8.35,0-16.71,0-25.67-.33-2-.82-3.42-1.26-4.8-1.79-12.07-4.57-20.52-16.55-20.2-29.26,.36-1.17,.63-1.98,.64-2.8,.03-17,.04-34-.01-51,0-1.27-.56-2.55-.98-4.18-1.89-9-6.56-13.11-13.82-12.27-7.04,.82-14.74,5.16-14.53,15.02,.56,26.1,.2,52.22,.15,78.33,0,1.68-.53,3.36-1.18,4.85-14.49-.31-28.61-.45-42.74-.52-.94,0-1.89,.51-3.09,.85-.43,.08-.6,.08-.78,.09,0-2.04,0-4.08,.39-6.56,8.71-2.66,10.41-4.8,10.41-13.13,0-26.94,0-53.89,0-80.83,0-8.48-2.39-11.21-10.8-12.47Z"/>
  <path class="cls-3" d="M399,3c0,2.04,0,4.08-.37,6.66-7.64,1.68-10.39,4.43-10.4,11.1-.06,28.12-.06,56.25,0,84.37,.01,6.84,3.85,10.55,10.78,10.88,0,2.04,0,4.08-.26,6.55-.43,.38-.6,.33-1.12,.08-12.81-.35-25.27-.54-37.73-.6-2.62-.01-5.23,.47-8.21,.56-.36-2.91-.36-5.64-.36-7.45-9.29,3.69-18.3,7.27-27.31,10.86-4.03,0-8.05,0-12.67-.33-18.33-6.7-25.32-16.67-25.33-35.57-.01-19.3,.12-38.61-.1-57.91-.1-9-2.74-17.46-10.72-22.44-3.91-2.44-4.67-4.87-3.49-8.71,7.41-.35,14.37-.69,21.33-1.04,.75,0,1.5,0,2.81,.33,16.14,3.24,27.09,15.79,26.86,31.05-.36,1.17-.63,1.98-.64,2.79-.03,17-.04,33.99,.01,50.99,0,1.28,.55,2.55,.94,4.2,.65,4.86,2.22,8.62,6.57,10.88,7.88,4.09,22.25-2.03,21.89-13.27-.84-26.22-.28-52.48-.23-78.73,0-1.68,.53-3.36,1.18-4.85,14.82,.29,29.29,.39,43.75,.45,.61,0,1.22-.46,2.09-.78,.42-.07,.6-.07,.77-.06Z"/>
  <path class="cls-2" d="M271.67,1.04c-.51-.17-.56-.34-.64-.77,6.99-.27,14.01-.27,21.5-.27-6.49,.34-13.45,.69-20.86,1.04Z"/>
  <path class="cls-1" d="M178.01,28.2c.51,1.62,.95,3.56,.96,5.51,.08,15.45,.08,30.9,.05,46.82-.7-2.25-1.87-4.97-1.91-7.7-.19-13.81-.1-27.63-.06-41.44,0-.95,.45-1.91,.96-3.19Z"/>
  <path class="cls-5" d="M219.38,96.61c-.27-15.32-.35-31-.35-47.14,.33,.14,.81,.75,.81,1.36-.05,15.14-.16,30.28-.45,45.78Z"/>
  <path class="cls-1" d="M179.08,83.07c.41,.33,.65,.84,.84,1.64-.36-.3-.69-.88-.84-1.64Z"/>
  <path class="cls-5" d="M76.33,94.62c-.26-18.66-.31-37.67-.3-57.15,.36,.81,.92,2.08,.92,3.35,.06,17,.04,34,.01,51,0,.81-.28,1.63-.64,2.8Z"/>
  <path class="cls-4" d="M1.38,3.35c14.65-.25,29.66-.3,45.13-.24-1.49,.37-3.45,.87-5.39,.86-13.13-.08-26.25-.26-39.74-.62Z"/>
  <path class="cls-6" d="M46.6,122.58c-14.64,.26-29.65,.33-45.11,.33,.48-.34,1.43-.85,2.37-.85,14.13,.07,28.25,.21,42.74,.52Z"/>
  <path class="cls-5" d="M322.67,31.38c.26,18.66,.31,37.67,.29,57.14-.36-.81-.91-2.08-.92-3.36-.05-17-.04-33.99-.01-50.99,0-.81,.28-1.63,.64-2.79Z"/>
  <path class="cls-5" d="M352.39,3.4c14.65-.27,29.65-.34,45.12-.34-.15,.33-.76,.79-1.37,.79-14.46-.06-28.92-.16-43.75-.45Z"/>
  <path class="cls-6" d="M397.61,122.64c-14.65,.24-29.66,.29-45.12,.23,2.16-.36,4.78-.84,7.39-.83,12.46,.06,24.92,.25,37.73,.6Z"/>
</svg>