<svg xmlns="http://www.w3.org/2000/svg" viewBox="0 0 24 24" version="1.1">
	<path d="M9.324 4.022832C6.542256 4.100064000000001 4.890696 4.191432 4.38 4.296336C3.496536 4.477824 2.6799600000000003 4.957104 2.1219360000000003 5.6217120000000005C1.6606319999999999 6.171096 1.387848 6.722424 1.240032 7.404C1.174152 7.707792 1.135248 8.166648 1.050816 9.636000000000001C1.009368 10.35732 1.009296 13.62396 1.05072 14.352C1.159608 16.266624 1.197264 16.613904 1.347312 17.088C1.7801040000000001 18.455376 2.962464 19.48872 4.368 19.727976C4.7316 19.789872 5.79804 19.857768 7.38 19.919736C9.9174 20.01912 14.0826 20.01912 16.62 19.919736C18.542568 19.844424 19.387056 19.784448 19.820567999999998 19.692408C20.186400000000003 19.614743999999998 20.680968 19.410336 21.022416 19.195656C21.988008 18.588528 22.647624 17.564616 22.799471999999998 16.437048C22.827288 16.230576 22.9038 15.161424 22.948704000000003 14.352C22.991016 13.589616000000001 22.991304 10.385904 22.949160000000003 9.648C22.899648000000003 8.78136 22.848888000000002 8.045448 22.821648000000003 7.8C22.690248 6.615 22.050048 5.556888 21.072 4.908168C20.470512 4.5092159999999994 19.858272 4.294416 19.128 4.22616C18.617712 4.178472 17.507064 4.119672 15.864 4.05336C15.287880000000001 4.030104 9.95796 4.005216 9.324 4.022832M10.308 5.017176C8.156424 5.043816 5.572296000000001 5.151 4.824 5.244624C4.14132 5.33004 3.5840640000000006 5.593152 3.098304 6.059376C2.8063200000000004 6.339624000000001 2.617416 6.595344 2.459784 6.923664C2.247216 7.36644 2.198352 7.595136 2.136912 8.434752C1.96728 10.75296 1.96764 13.193136 2.137944 15.583152C2.1923760000000003 16.346976 2.2251119999999998 16.564584 2.330352 16.862904C2.482128 17.293128 2.676336 17.600616000000002 3.0071760000000003 17.934432C3.422808 18.353832 3.8982000000000006 18.61116 4.478136 18.730656C4.8221039999999995 18.801528 6.820416000000001 18.905328 8.916 18.961152000000002C10.12344 18.993336 13.876560000000001 18.993336 15.084 18.961152000000002C17.179584000000002 18.905328 19.177896 18.801528 19.521864 18.730656C20.090976 18.613392 20.559768000000002 18.363192 20.966544 17.959656C21.298536 17.630280000000003 21.515544000000002 17.297784 21.656832 16.902072C21.781392 16.553160000000002 21.814008 16.331832000000002 21.875328 15.42C22.034184 13.056912 22.025784 10.516128 21.851616 8.263608C21.800088 7.597175999999999 21.73476 7.3211520000000005 21.528144 6.896592C21.379896 6.591984 21.189336 6.337728 20.900664 6.059376C20.418216 5.594184 19.859256000000002 5.330112 19.176000000000002 5.244624C18.504168 5.160576 16.004232 5.050704 14.256 5.0284320000000005C12.144048 5.001504 11.680128000000002 5.000184 10.308 5.017176M9.803784 8.54076C9.700512 8.58768 9.562848 8.728368000000001 9.526392 8.824224C9.496344 8.90328 9.496344 15.09672 9.526392 15.175775999999999C9.562848 15.271632 9.700512 15.41232 9.803784 15.45924C9.914088 15.509352 10.038864 15.515856000000001 10.149576 15.47724C10.191792000000001 15.462528 11.481311999999999 14.766264 13.015176 13.92996C15.142728 12.769968 15.822023999999999 12.388944 15.880008000000002 12.323015999999999C15.982728 12.206256 16.022208 12.039288 15.984408000000002 11.881704000000001C15.968040000000002 11.813424 15.92388 11.726856000000002 15.880008000000002 11.676984000000001C15.822023999999999 11.611056 15.142728 11.230032 13.015176 10.07004C11.481311999999999 9.233736 10.191792000000001 8.537472000000001 10.149576 8.52276C10.038864 8.484143999999999 9.914088 8.490648 9.803784 8.54076M10.512 12C10.512 13.274064000000001 10.520832 14.136768000000002 10.533816 14.131992C10.595640000000001 14.109336 14.424 12.011208 14.424 12C14.424 11.988792 10.595640000000001 9.890664 10.533816 9.868008C10.520832 9.863232 10.512 10.725936 10.512 12" stroke="none" fill="#1a1a1a" fill-rule="evenodd" stroke-width="0.024"></path>
</svg>