<?xml version="1.0" encoding="utf-8"?>
<!-- Generator: Adobe Illustrator 26.5.3, SVG Export Plug-In . SVG Version: 6.00 Build 0)  -->
<svg version="1.1" id="Nextjs-Icon--Streamline-Svg-Logos"
	 xmlns="http://www.w3.org/2000/svg" xmlns:xlink="http://www.w3.org/1999/xlink" x="0px" y="0px" viewBox="0 0 96 96"
	 style="enable-background:new 0 0 96 96;" xml:space="preserve">
<style type="text/css">
	.st0{fill:#FFFFFF;filter:url(#Adobe_OpacityMaskFilter);}
	.st1{mask:url(#a_00000052816889742672069170000012662673670880581562_);}
	.st2{fill:#1A1A1A;}
	.st3{fill:url(#SVGID_1_);}
	.st4{fill:url(#SVGID_00000052787388900957342370000011685044379930030490_);}
	.st5{fill:#FFFFFF;filter:url(#Adobe_OpacityMaskFilter_00000070090885443890241950000017547401975081056414_);}
	.st6{mask:url(#a_00000000197065488003953070000001216189368527249326_);}
	.st7{fill:url(#SVGID_00000176007628508892171540000006169149658763067289_);}
	.st8{fill:url(#SVGID_00000075845881696587114680000002877541618689114550_);}
	.st9{fill:#FFFFFF;filter:url(#Adobe_OpacityMaskFilter_00000173858386747957532050000010095724830285166749_);}
	.st10{mask:url(#a_00000139986118840376869430000003764296546814450090_);}
	.st11{fill:url(#SVGID_00000127007363988844291820000006529602700889242514_);}
	.st12{fill:url(#SVGID_00000176739805256788761400000016396957748077066888_);}
	.st13{fill:#FFFFFF;filter:url(#Adobe_OpacityMaskFilter_00000170957375590066992710000009587604555891084941_);}
	.st14{mask:url(#a_00000068660084293584948390000014036791192976424584_);}
	.st15{fill:url(#SVGID_00000138560082037333177290000006168536219205107134_);}
	.st16{fill:url(#SVGID_00000179627142364052252700000001215137950724353709_);}
	.st17{fill:#FFFFFF;filter:url(#Adobe_OpacityMaskFilter_00000147942218200181327010000018173701092445517246_);}
	.st18{mask:url(#a_00000048497817733957283990000006981683749061808570_);}
	.st19{fill:url(#SVGID_00000147916326585756067920000005041836343697369506_);}
	.st20{fill:url(#SVGID_00000119093566241844789030000009050961323234492066_);}
	.st21{fill:#FFFFFF;filter:url(#Adobe_OpacityMaskFilter_00000033332972824048400600000017595555251500486055_);}
	.st22{mask:url(#a_00000180326406810976749560000001291566866858293376_);}
	.st23{fill:#1A1A1A;stroke:#FFFFFF;stroke-width:3;stroke-miterlimit:10;}
	.st24{fill:url(#SVGID_00000097498407510164771210000001951743905659420854_);stroke:#FFFFFF;stroke-width:3;stroke-miterlimit:10;}
	.st25{fill:url(#SVGID_00000062163704453458810210000008481688575790991498_);stroke:#FFFFFF;stroke-width:3;stroke-miterlimit:10;}
</style>
<defs>
	<filter id="Adobe_OpacityMaskFilter" filterUnits="userSpaceOnUse" x="1" y="1" width="94" height="94">
		<feColorMatrix  type="matrix" values="1 0 0 0 0  0 1 0 0 0  0 0 1 0 0  0 0 0 1 0"/>
	</filter>
</defs>
<mask maskUnits="userSpaceOnUse" x="1" y="1" width="94" height="94" id="a_00000052816889742672069170000012662673670880581562_">
	<path class="st0" d="M48,95c26,0,47-21,47-47S74,1,48,1S1,22,1,48S22,95,48,95z"/>
</mask>
<g class="st1">
	<path class="st2" d="M48,95c26,0,47-21,47-47S74,1,48,1S1,22,1,48S22,95,48,95z"/>
	
		<linearGradient id="SVGID_1_" gradientUnits="userSpaceOnUse" x1="2711.5198" y1="-3271.7744" x2="4377.1196" y2="-5336.1841" gradientTransform="matrix(1 0 0 -1 0 95.8898)">
		<stop  offset="0" style="stop-color:#FFFFFF"/>
		<stop  offset="1" style="stop-color:#FFFFFF;stop-opacity:0"/>
	</linearGradient>
	<path class="st3" d="M79.1,83.3l-42-54.1h-7.9v37.6h6.3V37.2l38.6,49.9C75.9,85.9,77.5,84.6,79.1,83.3z"/>
	
		<linearGradient id="SVGID_00000102506763978658820710000009041072325161571505_" gradientUnits="userSpaceOnUse" x1="64.2654" y1="67.8687" x2="53.7693" y2="-2693.3413" gradientTransform="matrix(1 0 0 -1 0 95.8898)">
		<stop  offset="0" style="stop-color:#FFFFFF"/>
		<stop  offset="1" style="stop-color:#FFFFFF;stop-opacity:0"/>
	</linearGradient>
	<path style="fill:url(#SVGID_00000102506763978658820710000009041072325161571505_);" d="M67.3,29.2h-6.3v37.6h6.3V29.2z"/>
</g>
<defs>
	
		<filter id="Adobe_OpacityMaskFilter_00000062178383334424972930000004046977947676849064_" filterUnits="userSpaceOnUse" x="1" y="1" width="94" height="94">
		<feColorMatrix  type="matrix" values="1 0 0 0 0  0 1 0 0 0  0 0 1 0 0  0 0 0 1 0"/>
	</filter>
</defs>
<mask maskUnits="userSpaceOnUse" x="1" y="1" width="94" height="94" id="a_00000000197065488003953070000001216189368527249326_">
	<path style="fill:#FFFFFF;filter:url(#Adobe_OpacityMaskFilter_00000062178383334424972930000004046977947676849064_);" d="M48,95
		c26,0,47-21,47-47S74,1,48,1S1,22,1,48S22,95,48,95z"/>
</mask>
<g class="st6">
	<path class="st2" d="M48,95c26,0,47-21,47-47S74,1,48,1S1,22,1,48S22,95,48,95z"/>
	
		<linearGradient id="SVGID_00000065784279767008528150000004268950761653101724_" gradientUnits="userSpaceOnUse" x1="2711.5198" y1="-3271.7744" x2="4377.1196" y2="-5336.1841" gradientTransform="matrix(1 0 0 -1 0 95.8898)">
		<stop  offset="0" style="stop-color:#FFFFFF"/>
		<stop  offset="1" style="stop-color:#FFFFFF;stop-opacity:0"/>
	</linearGradient>
	<path style="fill:url(#SVGID_00000065784279767008528150000004268950761653101724_);" d="M79.1,83.3l-42-54.1h-7.9v37.6h6.3V37.2
		l38.6,49.9C75.9,85.9,77.5,84.6,79.1,83.3z"/>
	
		<linearGradient id="SVGID_00000109713739782330685450000016868352142153047727_" gradientUnits="userSpaceOnUse" x1="64.2654" y1="67.8687" x2="53.7693" y2="-2693.3413" gradientTransform="matrix(1 0 0 -1 0 95.8898)">
		<stop  offset="0" style="stop-color:#FFFFFF"/>
		<stop  offset="1" style="stop-color:#FFFFFF;stop-opacity:0"/>
	</linearGradient>
	<path style="fill:url(#SVGID_00000109713739782330685450000016868352142153047727_);" d="M67.3,29.2h-6.3v37.6h6.3V29.2z"/>
</g>
<defs>
	
		<filter id="Adobe_OpacityMaskFilter_00000144322922301094974580000008504933581850166404_" filterUnits="userSpaceOnUse" x="1" y="1" width="94" height="94">
		<feColorMatrix  type="matrix" values="1 0 0 0 0  0 1 0 0 0  0 0 1 0 0  0 0 0 1 0"/>
	</filter>
</defs>
<mask maskUnits="userSpaceOnUse" x="1" y="1" width="94" height="94" id="a_00000139986118840376869430000003764296546814450090_">
	<path style="fill:#FFFFFF;filter:url(#Adobe_OpacityMaskFilter_00000144322922301094974580000008504933581850166404_);" d="M48,95
		c26,0,47-21,47-47S74,1,48,1S1,22,1,48S22,95,48,95z"/>
</mask>
<g class="st10">
	<path class="st2" d="M48,95c26,0,47-21,47-47S74,1,48,1S1,22,1,48S22,95,48,95z"/>
	
		<linearGradient id="SVGID_00000071549530013353595700000000063900474126914476_" gradientUnits="userSpaceOnUse" x1="2711.5198" y1="-3271.7744" x2="4377.1196" y2="-5336.1841" gradientTransform="matrix(1 0 0 -1 0 95.8898)">
		<stop  offset="0" style="stop-color:#FFFFFF"/>
		<stop  offset="1" style="stop-color:#FFFFFF;stop-opacity:0"/>
	</linearGradient>
	<path style="fill:url(#SVGID_00000071549530013353595700000000063900474126914476_);" d="M79.1,83.3l-42-54.1h-7.9v37.6h6.3V37.2
		l38.6,49.9C75.9,85.9,77.5,84.6,79.1,83.3z"/>
	
		<linearGradient id="SVGID_00000023992538666256324930000017517479797974390681_" gradientUnits="userSpaceOnUse" x1="64.2654" y1="67.8687" x2="53.7693" y2="-2693.3413" gradientTransform="matrix(1 0 0 -1 0 95.8898)">
		<stop  offset="0" style="stop-color:#FFFFFF"/>
		<stop  offset="1" style="stop-color:#FFFFFF;stop-opacity:0"/>
	</linearGradient>
	<path style="fill:url(#SVGID_00000023992538666256324930000017517479797974390681_);" d="M67.3,29.2h-6.3v37.6h6.3V29.2z"/>
</g>
<defs>
	
		<filter id="Adobe_OpacityMaskFilter_00000030467240741700429300000000563643478717838484_" filterUnits="userSpaceOnUse" x="1" y="1" width="94" height="94">
		<feColorMatrix  type="matrix" values="1 0 0 0 0  0 1 0 0 0  0 0 1 0 0  0 0 0 1 0"/>
	</filter>
</defs>
<mask maskUnits="userSpaceOnUse" x="1" y="1" width="94" height="94" id="a_00000068660084293584948390000014036791192976424584_">
	<path style="fill:#FFFFFF;filter:url(#Adobe_OpacityMaskFilter_00000030467240741700429300000000563643478717838484_);" d="M48,95
		c26,0,47-21,47-47S74,1,48,1S1,22,1,48S22,95,48,95z"/>
</mask>
<g class="st14">
	<path class="st2" d="M48,95c26,0,47-21,47-47S74,1,48,1S1,22,1,48S22,95,48,95z"/>
	
		<linearGradient id="SVGID_00000085208576498289391350000006109003155496525706_" gradientUnits="userSpaceOnUse" x1="2711.5198" y1="-3271.7744" x2="4377.1196" y2="-5336.1841" gradientTransform="matrix(1 0 0 -1 0 95.8898)">
		<stop  offset="0" style="stop-color:#FFFFFF"/>
		<stop  offset="1" style="stop-color:#FFFFFF;stop-opacity:0"/>
	</linearGradient>
	<path style="fill:url(#SVGID_00000085208576498289391350000006109003155496525706_);" d="M79.1,83.3l-42-54.1h-7.9v37.6h6.3V37.2
		l38.6,49.9C75.9,85.9,77.5,84.6,79.1,83.3z"/>
	
		<linearGradient id="SVGID_00000029739585127487315340000011003794962675625359_" gradientUnits="userSpaceOnUse" x1="64.2654" y1="67.8687" x2="53.7693" y2="-2693.3413" gradientTransform="matrix(1 0 0 -1 0 95.8898)">
		<stop  offset="0" style="stop-color:#FFFFFF"/>
		<stop  offset="1" style="stop-color:#FFFFFF;stop-opacity:0"/>
	</linearGradient>
	<path style="fill:url(#SVGID_00000029739585127487315340000011003794962675625359_);" d="M67.3,29.2h-6.3v37.6h6.3V29.2z"/>
</g>
<defs>
	
		<filter id="Adobe_OpacityMaskFilter_00000091724792043779981200000018035832961940225468_" filterUnits="userSpaceOnUse" x="1" y="1" width="94" height="94">
		<feColorMatrix  type="matrix" values="1 0 0 0 0  0 1 0 0 0  0 0 1 0 0  0 0 0 1 0"/>
	</filter>
</defs>
<mask maskUnits="userSpaceOnUse" x="1" y="1" width="94" height="94" id="a_00000048497817733957283990000006981683749061808570_">
	<path style="fill:#FFFFFF;filter:url(#Adobe_OpacityMaskFilter_00000091724792043779981200000018035832961940225468_);" d="M48,95
		c26,0,47-21,47-47S74,1,48,1S1,22,1,48S22,95,48,95z"/>
</mask>
<g class="st18">
	<path class="st2" d="M48,95c26,0,47-21,47-47S74,1,48,1S1,22,1,48S22,95,48,95z"/>
	
		<linearGradient id="SVGID_00000114036294577992769040000000129526076704471943_" gradientUnits="userSpaceOnUse" x1="2711.5198" y1="-3271.7744" x2="4377.1196" y2="-5336.1841" gradientTransform="matrix(1 0 0 -1 0 95.8898)">
		<stop  offset="0" style="stop-color:#FFFFFF"/>
		<stop  offset="1" style="stop-color:#FFFFFF;stop-opacity:0"/>
	</linearGradient>
	<path style="fill:url(#SVGID_00000114036294577992769040000000129526076704471943_);" d="M79.1,83.3l-42-54.1h-7.9v37.6h6.3V37.2
		l38.6,49.9C75.9,85.9,77.5,84.6,79.1,83.3z"/>
	
		<linearGradient id="SVGID_00000178177447650037204170000016793491815894897308_" gradientUnits="userSpaceOnUse" x1="64.2654" y1="67.8687" x2="53.7693" y2="-2693.3413" gradientTransform="matrix(1 0 0 -1 0 95.8898)">
		<stop  offset="0" style="stop-color:#FFFFFF"/>
		<stop  offset="1" style="stop-color:#FFFFFF;stop-opacity:0"/>
	</linearGradient>
	<path style="fill:url(#SVGID_00000178177447650037204170000016793491815894897308_);" d="M67.3,29.2h-6.3v37.6h6.3V29.2z"/>
</g>
<defs>
	
		<filter id="Adobe_OpacityMaskFilter_00000049906969150902889650000008346575673586176935_" filterUnits="userSpaceOnUse" x="-0.5" y="-0.5" width="97" height="97">
		<feColorMatrix  type="matrix" values="1 0 0 0 0  0 1 0 0 0  0 0 1 0 0  0 0 0 1 0"/>
	</filter>
</defs>
<mask maskUnits="userSpaceOnUse" x="-0.5" y="-0.5" width="97" height="97" id="a_00000180326406810976749560000001291566866858293376_">
	<path style="fill:#FFFFFF;filter:url(#Adobe_OpacityMaskFilter_00000049906969150902889650000008346575673586176935_);" d="M48,95
		c26,0,47-21,47-47S74,1,48,1S1,22,1,48S22,95,48,95z"/>
</mask>
<g class="st22">
	<path class="st23" d="M48,95c26,0,47-21,47-47S74,1,48,1S1,22,1,48S22,95,48,95z"/>
	
		<linearGradient id="SVGID_00000079457703985781101900000000489844278120348846_" gradientUnits="userSpaceOnUse" x1="2711.5198" y1="-3271.7744" x2="4377.1196" y2="-5336.1841" gradientTransform="matrix(1 0 0 -1 0 95.8898)">
		<stop  offset="0" style="stop-color:#FFFFFF"/>
		<stop  offset="1" style="stop-color:#FFFFFF;stop-opacity:0"/>
	</linearGradient>
	
		<path style="fill:url(#SVGID_00000079457703985781101900000000489844278120348846_);stroke:#FFFFFF;stroke-width:3;stroke-miterlimit:10;" d="
		M79.1,83.3l-42-54.1h-7.9v37.6h6.3V37.2l38.6,49.9C75.9,85.9,77.5,84.6,79.1,83.3z"/>
	
		<linearGradient id="SVGID_00000130639525233891100050000011025747957322876310_" gradientUnits="userSpaceOnUse" x1="64.2654" y1="67.8687" x2="53.7693" y2="-2693.3413" gradientTransform="matrix(1 0 0 -1 0 95.8898)">
		<stop  offset="0" style="stop-color:#FFFFFF"/>
		<stop  offset="1" style="stop-color:#FFFFFF;stop-opacity:0"/>
	</linearGradient>
	
		<path style="fill:url(#SVGID_00000130639525233891100050000011025747957322876310_);stroke:#FFFFFF;stroke-width:3;stroke-miterlimit:10;" d="
		M67.3,29.2h-6.3v37.6h6.3V29.2z"/>
</g>
</svg>
