<svg xmlns="http://www.w3.org/2000/svg" viewBox="0 0 24 24" version="1.1">
	<path d="M2.976 1.0529519999999999C2.709528 1.111176 2.360952 1.2567359999999999 2.136 1.403712C1.905696 1.554192 1.55484 1.9048319999999999 1.4033280000000001 2.136C1.247136 2.374272 1.092768 2.7616799999999997 1.0422719999999999 3.04212C0.99 3.3325199999999997 1.006104 3.8640480000000004 1.07484 4.116C1.318032 5.0075520000000004 1.992072 5.685792 2.868 5.920272C3.077136 5.9762640000000005 3.1558319999999997 5.9847600000000005 3.48 5.9862720000000005C3.9096 5.988264 4.098288 5.95368 4.456992 5.8071600000000005C5.056248 5.562408 5.562408 5.056248 5.8071600000000005 4.456992C5.954016 4.0974960000000005 5.988336 3.909648 5.985768 3.48C5.983848 3.15804 5.974968 3.07572 5.919792 2.868C5.687568 1.99392 5.010216 1.320432 4.116 1.074456C3.862776 1.0047840000000001 3.249312 0.993216 2.976 1.0529519999999999M3.336 2.017896C2.98284 2.051712 2.712648 2.1823680000000003 2.4475200000000004 2.4475200000000004C2.140944 2.754072 2.0123040000000003 3.069984 2.013 3.514584C2.013744 3.9930480000000004 2.225184 4.411776000000001 2.616 4.708704C3.0465359999999997 5.0358 3.7064880000000002 5.081736 4.207536 4.819464C4.404048 4.716600000000001 4.716600000000001 4.404048 4.819464 4.207536C5.09472 3.681672 5.033040000000001 3.013008 4.668216 2.568264C4.332672 2.159208 3.867384 1.9669679999999998 3.336 2.017896M1.335 8.027256C1.22208 8.067504000000001 1.08612 8.192424 1.041144 8.297232000000001C1.0132079999999999 8.362344 1.008 9.493584 1.008 15.504192000000002C1.008 22.465152 1.00908 22.636008 1.053672 22.72296C1.1066880000000001 22.826352 1.180392 22.898424000000002 1.289544 22.953576C1.35984 22.989096 1.568616 22.992168 3.5254800000000004 22.986384L5.683872 22.98 5.7860879999999995 22.908C5.84232 22.8684 5.913456 22.788408 5.944152 22.730232L6 22.62444 5.999472 15.506231999999999C5.998968 8.63376 5.997408 8.384616 5.954568 8.290296C5.902008 8.174568 5.757408 8.048304 5.64 8.015640000000001C5.588376 8.001264 4.760568 7.992624 3.492 7.993176C1.7988000000000002 7.993944000000001 1.411296 8.000064 1.335 8.027256M7.868232000000001 8.015400000000001C7.68576 8.070504 7.545072 8.223840000000001 7.5098400000000005 8.405928000000001C7.477968 8.570688 7.482744 22.46064 7.514735999999999 22.612824C7.536408 22.715976 7.5633360000000005 22.761288 7.657224 22.852632C7.729776 22.923216 7.802688000000001 22.970616 7.852512 22.979592C7.896216000000001 22.987464000000003 8.888736 22.990776 10.058064 22.98696L12.184128000000001 22.98 12.283272 22.911288C12.345216 22.868351999999998 12.405216000000001 22.796808 12.443208 22.720584000000002L12.504 22.598568 12.504 19.031688C12.504 16.644768000000003 12.512352 15.417696 12.529224000000001 15.322415999999999C12.614856000000001 14.838936 12.8886 14.32788 13.259184000000001 13.9596C13.894319999999999 13.328448 14.772024 13.007664 15.862464000000001 13.008144C16.8492 13.008576 17.47212 13.308456 17.770296 13.926576C17.890032 14.174736000000001 17.937888 14.341560000000001 17.974800000000002 14.639376000000002C17.991456 14.773848000000001 18 16.160616 18 18.733584L18 22.62444 18.055848 22.730232C18.086544 22.788408 18.157680000000003 22.8684 18.213912 22.908L18.316128000000003 22.98 20.47428 22.986384C22.561392 22.992552 22.635384 22.991232 22.722216 22.946712C22.826112 22.893432 22.898304 22.8198 22.953192 22.711199999999998C22.988471999999998 22.641336 22.992 22.264680000000002 22.992 18.555744C22.992 15.110016 22.986456 14.424552 22.95624 14.138256000000002C22.835544 12.994608000000001 22.522752 12.011352 22.001136000000002 11.136000000000001C21.049608 9.539136000000001 19.480824000000002 8.49012 17.514792 8.13612C16.78032 8.003856 15.702312000000001 7.965576 15.108 8.050656C14.293248 8.167296 13.568448 8.398296 12.846 8.771592L12.504 8.948304 12.503856 8.692152C12.503784 8.551272 12.492192000000001 8.394408 12.478056 8.343576C12.44136 8.211336000000001 12.27708 8.055024 12.138024 8.020032C12.008304 7.987368000000001 7.975488 7.9830000000000005 7.868232000000001 8.015400000000001M1.9979520000000002 15.498000000000001L2.004 21.996000000000002 3.498 22.002192L4.992 22.00836 4.992 15.504192000000002L4.992 9 3.491952 9L1.991904 9 1.9979520000000002 15.498000000000001M8.501952 15.498000000000001L8.508000000000001 21.996000000000002 10.002 22.002192L11.496 22.00836 11.496 18.736008C11.496 16.526472 11.504448 15.398088 11.521992000000001 15.261816C11.555736 15.000024 11.665583999999999 14.615736000000002 11.777424 14.368319999999999C12.481800000000002 12.809952000000001 14.06952 11.93616 16.068 12.007032C16.788648000000002 12.032592000000001 17.324304 12.182496 17.797632 12.491015999999998C18.506040000000002 12.952776 18.89976 13.661736000000001 18.981792000000002 14.623296C18.99924 14.827800000000002 19.008 16.114608 19.008 18.469488000000002L19.008 22.00836 20.502 22.002192L21.996000000000002 21.996000000000002 21.996000000000002 18.288C21.996000000000002 14.376432000000001 21.995736 14.365656 21.884712 13.728C21.7176 12.768024 21.384888 11.957856000000001 20.859744 11.232000000000001C20.634648000000002 10.920888 20.10588 10.385352000000001 19.8 10.158696C19.381512 9.848592 18.805488 9.549264 18.279 9.368328C17.365344 9.054336000000001 16.11204 8.929776 15.177432000000001 9.060048C14.276471999999998 9.185640000000001 13.371984000000001 9.55224 12.475032 10.155336C12.21456 10.330464 12.12924 10.368168 11.994768 10.367472000000001C11.788728 10.366416000000001 11.574864 10.206984 11.52144 10.014648C11.507592 9.9648 11.496216 9.716088 11.496144 9.462L11.496 9 9.995952 9L8.495904 9 8.501952 15.498000000000001" stroke="none" fill="#1a1a1a" fill-rule="evenodd" stroke-width="0.024"></path>
</svg>