<svg xmlns="http://www.w3.org/2000/svg" fill="none" viewBox="0 0 96 96" id="Figma--Streamline-Svg-Logos"><desc>Figma Streamline Icon: https://streamlinehq.com</desc><path fill="#0acf83" d="M32.3332 95.0001c8.648 0 15.6666 -7.0187 15.6666 -15.6667V63.6667H32.3332c-8.648 0 -15.6667 7.0187 -15.6667 15.6667s7.0187 15.6667 15.6667 15.6667Z" stroke-width="1"></path><path fill="#a259ff" d="M16.6665 47.9999c0 -8.648 7.0187 -15.6666 15.6667 -15.6666h15.6666v31.3333H32.3332c-8.648 0 -15.6667 -7.0187 -15.6667 -15.6667Z" stroke-width="1"></path><path fill="#f24e1e" d="M16.6665 16.6667C16.6665 8.01867 23.6852 1 32.3332 1h15.6666v31.3333H32.3332c-8.648 0 -15.6667 -7.0186 -15.6667 -15.6666Z" stroke-width="1"></path><path fill="#ff7262" d="M47.9995 1h15.6667c8.648 0 15.6666 7.01867 15.6666 15.6667 0 8.648 -7.0186 15.6666 -15.6666 15.6666H47.9995V1Z" stroke-width="1"></path><path fill="#1abcfe" d="M79.3328 47.9999c0 8.648 -7.0186 15.6667 -15.6666 15.6667s-15.6667 -7.0187 -15.6667 -15.6667 7.0187 -15.6666 15.6667 -15.6666 15.6666 7.0186 15.6666 15.6666Z" stroke-width="1"></path></svg>