<svg xmlns="http://www.w3.org/2000/svg" fill="none" viewBox="0 0 96 96" id="Sass--Streamline-Svg-Logos"><desc>Sass Streamline Icon: https://streamlinehq.com</desc><path fill="#727272" d="M81.9414 53.2774c-3.2794 0.0172 -6.1295 0.807 -8.5161 1.9745 -0.8756 -1.7341 -1.7513 -3.2794 -1.9058 -4.4126 -0.1717 -1.322 -0.3777 -2.129 -0.1717 -3.7086 0.206 -1.5796 1.1332 -3.8288 1.116 -4.0005 -0.0171 -0.1717 -0.206 -0.9786 -2.0947 -0.9958 -1.8886 -0.0172 -3.5197 0.3606 -3.7086 0.8585 -0.1888 0.4979 -0.5494 1.6311 -0.7898 2.7986 -0.3262 1.717 -3.7772 7.8465 -5.7517 11.0571 -0.6353 -1.2533 -1.1847 -2.3522 -1.3049 -3.2278 -0.1717 -1.3221 -0.3777 -2.129 -0.1717 -3.7086 0.206 -1.5796 1.1332 -3.8288 1.116 -4.0005 -0.0172 -0.1717 -0.206 -0.9787 -2.0947 -0.9958 -1.8886 -0.0172 -3.5197 0.3605 -3.7086 0.8584 -0.1888 0.498 -0.3949 1.6655 -0.7898 2.7987 -0.3949 1.1331 -4.9791 11.3661 -6.181 14.0102 -0.6181 1.3564 -1.1503 2.4381 -1.5281 3.1764 0 0 -0.0171 0.0515 -0.0686 0.1374 -0.3262 0.6352 -0.5151 0.9786 -0.5151 0.9786l0 0.0172c-0.2576 0.4636 -0.5323 0.8928 -0.6696 0.8928 -0.103 0 -0.2919 -1.2362 0.0343 -2.9188 0.6868 -3.5541 2.3179 -9.0827 2.3007 -9.2715 0 -0.103 0.3091 -1.0645 -1.0645 -1.5624 -1.3392 -0.498 -1.8199 0.3262 -1.9401 0.3262 -0.1202 0 -0.2061 0.2919 -0.2061 0.2919s1.4938 -6.2154 -2.8501 -6.2154c-2.7128 0 -6.4557 2.9703 -8.31 5.6488 -1.1675 0.6352 -3.6571 1.9916 -6.3184 3.451 -1.013 0.5666 -2.0603 1.1332 -3.039 1.6655 -0.0687 -0.0687 -0.1373 -0.1546 -0.206 -0.2232 -5.2539 -5.6145 -14.97178 -9.5806 -14.55972 -17.118 0.15453 -2.7471 1.09885 -9.9583 18.66322 -18.7147 14.4567 -7.1253 25.9602 -5.1509 27.9519 -0.7726 2.8501 6.2496 -6.1639 17.8562 -21.1013 19.5388 -5.7003 0.6353 -8.6877 -1.5624 -9.4432 -2.3865 -0.7898 -0.8585 -0.91 -0.91 -1.2019 -0.7383 -0.4807 0.2575 -0.1717 1.0301 0 1.4765 0.4464 1.1676 2.2836 3.2279 5.3913 4.2409 2.7471 0.8928 9.426 1.3907 17.5128 -1.7341 9.0483 -3.5026 16.1221 -13.2377 14.0446 -21.3932 -2.0775 -8.2757 -15.813 -11.0056 -28.8103 -6.387 -7.7263 2.7471 -16.105 7.0738 -22.13147 12.7054C1.75996 34.391 0.626773 40.2114 1.09035 42.6495c1.66544 8.6534 13.59825 14.285 18.37135 18.4572 -0.2404 0.1373 -0.4636 0.2575 -0.6525 0.3605 -2.3865 1.1847 -11.48633 5.9407 -13.7527 10.9713 -2.57542 5.7003 0.41206 9.7866 2.38655 10.336 6.12955 1.6998 12.43065 -1.3564 15.81305 -6.4042 3.3824 -5.0478 2.9703 -11.6065 1.4079 -14.6112 -0.0171 -0.0343 -0.0343 -0.0687 -0.0687 -0.103 0.6181 -0.3606 1.2534 -0.7383 1.8715 -1.0989 1.2191 -0.7211 2.4209 -1.3907 3.4511 -1.9401 -0.5838 1.5968 -1.013 3.5026 -1.219 6.2497 -0.2576 3.2278 1.0645 7.4172 2.7986 9.0655 0.7726 0.7211 1.6826 0.7382 2.2663 0.7382 2.026 0 2.936 -1.6826 3.949 -3.6742 1.2362 -2.4381 2.3522 -5.271 2.3522 -5.271s-1.3907 7.6575 2.3866 7.6575c1.3735 0 2.7643 -1.7856 3.3824 -2.6956v0.0172s0.0343 -0.0515 0.103 -0.1717c0.1374 -0.2232 0.2232 -0.3606 0.2232 -0.3606v-0.0343c0.5494 -0.9615 1.7856 -3.142 3.6228 -6.7648 2.3693 -4.6701 4.6529 -10.5077 4.6529 -10.5077s0.206 1.4251 0.91 3.7945c0.412 1.3907 1.2705 2.9188 1.9573 4.3954 -0.5494 0.7726 -0.8928 1.2018 -0.8928 1.2018l0.0171 0.0172c-0.4464 0.5838 -0.9271 1.219 -1.4594 1.8371 -1.8714 2.2321 -4.1035 4.7903 -4.4125 5.5286 -0.3606 0.8756 -0.2747 1.5109 0.4121 2.026 0.4979 0.3777 1.3907 0.4292 2.3007 0.3777 1.6826 -0.1202 2.8673 -0.5322 3.451 -0.7898 0.91 -0.3262 1.9745 -0.8241 2.9703 -1.5624 1.8372 -1.3564 2.9532 -3.2965 2.8502 -5.8548 -0.0515 -1.4079 -0.5151 -2.8158 -1.0817 -4.1378 0.1717 -0.2404 0.3262 -0.4808 0.4979 -0.7211 2.9016 -4.2409 5.1509 -8.8938 5.1509 -8.8938s0.206 1.425 0.9099 3.7944c0.3434 1.2019 1.0474 2.5068 1.6655 3.7773 -2.73 2.2149 -4.4126 4.7903 -5.0135 6.4729 -1.0817 3.1248 -0.2404 4.5327 1.3564 4.859 0.7211 0.1545 1.7513 -0.1889 2.5067 -0.5151 0.9615 -0.3091 2.0947 -0.8413 3.1764 -1.6311 1.8371 -1.3564 3.6056 -3.2451 3.5025 -5.8033 -0.0515 -1.1675 -0.3605 -2.3179 -0.7898 -3.4339 2.3179 -0.9615 5.3054 -1.4937 9.117 -1.0473 8.1727 0.9615 9.7866 6.0608 9.4776 8.207 -0.3091 2.1462 -2.026 3.3137 -2.5926 3.6742 -0.5666 0.3606 -0.7555 0.4808 -0.704 0.7383 0.0687 0.3777 0.3434 0.3606 0.8242 0.2919 0.6696 -0.1202 4.2923 -1.7341 4.4469 -5.6831 0.2575 -5.0478 -4.5499 -10.5592 -13.0488 -10.5077ZM18.8951 74.5332c-2.7128 2.9531 -6.4901 4.0692 -8.1212 3.1248 -1.75126 -1.013 -1.06448 -5.374 2.2664 -8.4988 2.026 -1.9059 4.6358 -3.6743 6.3699 -4.756 0.3949 -0.2404 0.9786 -0.5838 1.6826 -1.013 0.1202 -0.0687 0.1888 -0.103 0.1888 -0.103 0.1374 -0.0859 0.2748 -0.1717 0.4121 -0.2575 1.219 4.464 0.0515 8.3958 -2.7986 11.5035ZM38.64 61.1067c-0.9444 2.3007 -2.9188 8.1898 -4.1207 7.8636 -1.0302 -0.2747 -1.6654 -4.7388 -0.206 -9.1513 0.7383 -2.2149 2.3007 -4.859 3.2107 -5.8892 1.4765 -1.6482 3.1076 -2.1977 3.5025 -1.528 0.4979 0.8756 -1.8028 7.2626 -2.3865 8.7049Zm16.2938 7.7949c-0.3949 0.206 -0.7726 0.3434 -0.9443 0.2404 -0.1202 -0.0687 0.1717 -0.3434 0.1717 -0.3434s2.0431 -2.1977 2.8501 -3.1935c0.4636 -0.5838 1.013 -1.2706 1.5968 -2.0432v0.2232c0 2.6269 -2.5411 4.3954 -3.6743 5.1165Zm12.568 -2.8673c-0.2918 -0.206 -0.2403 -0.8928 0.7383 -3.039 0.3778 -0.8413 1.2706 -2.2492 2.7987 -3.6056 0.1716 0.5495 0.2918 1.0817 0.2747 1.5796 -0.0172 3.3137 -2.3866 4.5499 -3.8117 5.065Z" stroke-width="1"></path></svg>