<svg xmlns="http://www.w3.org/2000/svg" viewBox="0 0 576 576" id="Free-Code-Camp--Streamline-Font-Awesome"><desc>Free Code Camp Streamline Icon: https://streamlinehq.com</desc><!--! Font Awesome Free 6.5.2 by @fontawesome - https://fontawesome.com License - https://fontawesome.com/license/free (Icons: CC BY 4.0, Fonts: SIL OFL 1.1, Code: MIT License) Copyright 2024 Fonticons, Inc.--><path d="M98.8381 129.5667c10.2721 -10.5595 15.8642 -16.9746 15.8642 -21.714 0 -2.7366 -1.9037 -5.4632 -3.7975 -7.357 -2.4207 -1.7653 -5.3235 -2.7479 -8.3188 -2.8159 -8.408 0 -20.7423 8.7154 -35.5357 25.4719 -41.1278 46.8587 -62.118 92.2797 -61.2653 159.2364s17.3217 116.0065 53.601 160.4956c18.6304 23.4492 32.9082 35.4861 43.1009 35.4861 3.126 -0.2614 6.0619 -1.6084 8.2989 -3.8074 1.8938 -2.7366 3.7777 -5.5822 3.7777 -8.3089 0 -5.5822 -3.8273 -12.0964 -13.088 -20.3755 -44.0725 -41.9706 -66.7484 -96.1764 -66.907 -163.599 -0.1487 -60.9084 21.4166 -111.4457 64.2696 -152.7123Zm141.0422 321.1102c0.5751 0.3669 0.9023 0.5454 0.9023 0.5454Zm92.9937 0.5454 0.1685 -0.1289c-0.1883 0.1289 -0.2577 0.1784 -0.1685 0.1289Zm3.1034 -156.837c-16.1021 -4.1147 49.982 -82.1862 -67.4722 -175.6657 0 0 15.408 48.9607 -62.2965 158.2152 -73.6394 103.464 23.2608 167.2973 33.7113 173.7421 -6.6729 -4.313 -46.9976 -35.3968 9.4689 -127.5477 10.9066 -18.1446 25.3132 -34.574 43.1306 -71.5473 0 0 15.775 22.2593 7.5355 70.526 -12.3542 72.9751 53.3829 52.0642 54.3744 53.0854 22.5568 26.5526 -17.5695 72.8859 -21.3968 75.9001 5.4434 -3.619 116.7106 -77.3378 32.7198 -186.5029 -5.9391 5.9589 -13.6828 33.9096 -29.775 29.7948Zm173.0085 -171.2832c-14.7537 -16.7565 -27.1277 -25.4719 -35.5754 -25.4719 -2.9952 0.068 -5.898 1.0506 -8.3187 2.8159 -1.8938 1.8938 -3.7975 4.6204 -3.7975 7.357 0 4.7394 5.5524 11.1644 15.8641 21.7141 42.863 41.2567 64.4481 91.8038 64.2697 152.7519 -0.1587 67.4226 -22.8048 121.5888 -66.9071 163.599 -9.2607 8.2791 -13.0681 14.7933 -13.0879 20.3755 0 2.7267 1.8839 5.5723 3.7776 8.3089 2.2385 2.1985 5.173 3.5483 8.299 3.8173 10.1927 0 24.4704 -12.027 43.1009 -35.4861 36.2793 -44.4692 52.6888 -93.5787 53.601 -160.4956s-20.1376 -112.3777 -61.2257 -159.286Z" fill="#727272" stroke-width="1"></path></svg>