<?xml version="1.0" standalone="no"?>
<!DOCTYPE svg PUBLIC "-//W3C//DTD SVG 20010904//EN"
 "http://www.w3.org/TR/2001/REC-SVG-20010904/DTD/svg10.dtd">
<svg version="1.0" xmlns="http://www.w3.org/2000/svg"
 width="2048.000000pt" height="1381.000000pt" viewBox="0 0 2048.000000 1381.000000"
 preserveAspectRatio="xMidYMid meet">

<g transform="translate(0.000000,1381.000000) scale(0.100000,-0.100000)"
fill="#000000" stroke="none">
<path d="M3404 13795 c-376 -82 -898 -539 -1559 -1365 -977 -1223 -1501 -2346
-1729 -3705 -130 -777 -148 -1756 -50 -2755 143 -1465 535 -2664 1242 -3794
333 -532 864 -1202 1282 -1616 314 -313 566 -485 790 -541 181 -46 363 19 462
164 97 142 122 240 94 362 -44 187 -143 320 -508 681 -151 149 -334 338 -407
420 -961 1076 -1561 2316 -1825 3774 -93 512 -134 960 -143 1555 -6 439 3 685
38 1030 149 1475 683 2775 1604 3905 179 220 323 378 605 665 413 420 538 567
612 719 62 130 51 222 -42 348 -43 59 -58 71 -132 107 -119 58 -216 72 -334
46z"/>
<path d="M16856 13794 c-144 -35 -232 -103 -297 -231 -29 -57 -31 -68 -27
-135 11 -169 128 -322 653 -858 475 -484 769 -841 1060 -1285 628 -958 1008
-2028 1134 -3190 41 -375 46 -483 46 -975 0 -476 -6 -612 -41 -980 -161 -1673
-770 -3147 -1799 -4350 -154 -180 -175 -201 -525 -555 -333 -336 -395 -410
-460 -540 -77 -156 -87 -272 -32 -390 70 -149 149 -229 271 -276 203 -77 458
19 801 300 424 348 1123 1191 1538 1856 794 1274 1195 2653 1282 4410 39 805
11 1469 -91 2100 -245 1518 -882 2782 -2109 4185 -446 510 -866 839 -1160 909
-98 24 -161 25 -244 5z"/>
<path d="M9544 13004 c25 -149 30 -213 30 -404 0 -471 -92 -963 -296 -1580
-357 -1083 -974 -2234 -1949 -3635 -309 -444 -419 -624 -584 -960 -243 -495
-379 -933 -442 -1430 -24 -195 -24 -646 1 -830 90 -669 328 -1242 760 -1830
326 -444 795 -896 1266 -1220 l85 -59 -82 78 c-305 286 -495 691 -553 1176
-16 135 -14 500 4 650 95 794 449 1684 1071 2695 54 88 243 376 420 640 513
767 711 1098 1010 1694 136 271 116 262 202 82 109 -226 201 -562 245 -896 20
-150 22 -214 23 -540 0 -376 -9 -514 -51 -790 -54 -354 -65 -449 -76 -608 -19
-293 10 -572 82 -789 139 -414 448 -669 917 -753 210 -38 536 -30 834 20 81
14 157 25 170 25 42 -1 146 -162 198 -306 48 -132 65 -233 65 -394 0 -312 -82
-607 -279 -1000 -166 -331 -448 -743 -674 -984 -52 -55 -46 -53 54 18 457 323
975 829 1311 1281 483 650 758 1295 859 2016 26 182 31 608 11 815 -65 642
-274 1244 -660 1899 -121 206 -429 653 -457 663 -13 5 -105 -143 -199 -318
-232 -435 -373 -618 -550 -714 -140 -76 -352 -73 -400 6 -46 76 -37 171 50
573 75 347 95 450 119 615 43 287 46 341 46 710 0 390 -6 469 -61 770 -223
1225 -1028 2419 -2383 3535 l-144 118 7 -39z"/>
</g>
</svg>
