<?xml version="1.0" encoding="utf-8"?>
<!-- Generator: Adobe Illustrator 26.5.3, SVG Export Plug-In . SVG Version: 6.00 Build 0)  -->
<svg version="1.1" id="Nextjs-Icon--Streamline-Svg-Logos"
	 xmlns="http://www.w3.org/2000/svg" xmlns:xlink="http://www.w3.org/1999/xlink" x="0px" y="0px" viewBox="0 0 96 96"
	 style="enable-background:new 0 0 96 96;" xml:space="preserve">
<style type="text/css">
	.st0{fill:#FFFFFF;filter:url(#Adobe_OpacityMaskFilter);}
	.st1{mask:url(#a_00000143609746846042875380000016762475539287035564_);}
	.st2{fill:#FEFEFE;stroke:#000000;stroke-width:3;stroke-miterlimit:10;}
	.st3{fill:url(#SVGID_1_);stroke:#000000;stroke-width:3;stroke-miterlimit:10;}
	.st4{fill:url(#SVGID_00000045614230117812106270000015615985805615861435_);stroke:#000000;stroke-width:3;stroke-miterlimit:10;}
</style>
<defs>
	<filter id="Adobe_OpacityMaskFilter" filterUnits="userSpaceOnUse" x="-0.5" y="-0.5" width="97" height="97">
		<feColorMatrix  type="matrix" values="1 0 0 0 0  0 1 0 0 0  0 0 1 0 0  0 0 0 1 0"/>
	</filter>
</defs>
<mask maskUnits="userSpaceOnUse" x="-0.5" y="-0.5" width="97" height="97" id="a_00000143609746846042875380000016762475539287035564_">
	<path class="st0" d="M48,95c26,0,47-21,47-47S74,1,48,1S1,22,1,48S22,95,48,95z"/>
</mask>
<g class="st1">
	<path class="st2" d="M48,95c26,0,47-21,47-47S74,1,48,1S1,22,1,48S22,95,48,95z"/>
	
		<linearGradient id="SVGID_1_" gradientUnits="userSpaceOnUse" x1="2711.5198" y1="-3271.7744" x2="4377.1196" y2="-5336.1841" gradientTransform="matrix(1 0 0 -1 0 95.8898)">
		<stop  offset="0" style="stop-color:#FFFFFF"/>
		<stop  offset="1" style="stop-color:#FFFFFF;stop-opacity:0"/>
	</linearGradient>
	<path class="st3" d="M79.1,83.3l-42-54.1h-7.9v37.6h6.3V37.2l38.6,49.9C75.9,85.9,77.5,84.6,79.1,83.3z"/>
	
		<linearGradient id="SVGID_00000042724926048349162670000008751897751463654037_" gradientUnits="userSpaceOnUse" x1="64.2654" y1="67.8687" x2="53.7693" y2="-2693.3413" gradientTransform="matrix(1 0 0 -1 0 95.8898)">
		<stop  offset="0" style="stop-color:#FFFFFF"/>
		<stop  offset="1" style="stop-color:#FFFFFF;stop-opacity:0"/>
	</linearGradient>
	
		<path style="fill:url(#SVGID_00000042724926048349162670000008751897751463654037_);stroke:#000000;stroke-width:3;stroke-miterlimit:10;" d="
		M67.3,29.2h-6.3v37.6h6.3V29.2z"/>
</g>
</svg>
