<?xml version="1.0" standalone="no"?>
<!DOCTYPE svg PUBLIC "-//W3C//DTD SVG 20010904//EN"
 "http://www.w3.org/TR/2001/REC-SVG-20010904/DTD/svg10.dtd">
<svg version="1.0" xmlns="http://www.w3.org/2000/svg"
 width="1000.000000pt" height="1000.000000pt" viewBox="0 0 1000.000000 1000.000000"
 preserveAspectRatio="xMidYMid meet">

<g transform="translate(0.000000,1000.000000) scale(0.100000,-0.100000)"
fill="#000000" stroke="none">
<path d="M3275 6020 c0 -333 1 -469 2 -303 2 167 2 439 0 605 -1 167 -2 31 -2
-302z"/>
<path d="M7855 5000 c0 -888 1 -1252 2 -808 2 445 2 1171 0 1615 -1 445 -2 81
-2 -807z"/>
<path d="M3275 3980 c0 -333 1 -469 2 -303 2 167 2 439 0 605 -1 167 -2 31 -2
-302z"/>
<path d="M2663 3323 c103 -2 271 -2 375 0 103 1 18 2 -188 2 -206 0 -291 -1
-187 -2z"/>
</g>
</svg>
