<svg xmlns="http://www.w3.org/2000/svg" viewBox="0 0 384 384" id="Mobile-Screen-Button--Streamline-Font-Awesome"><desc>Mobile Screen Button Streamline Icon: https://streamlinehq.com</desc><!--! Font Awesome Free 6.5.2 by @fontawesome - https://fontawesome.com License - https://fontawesome.com/license/free (Icons: CC BY 4.0, Fonts: SIL OFL 1.1, Code: MIT License) Copyright 2024 Fonticons, Inc.--><path d="M62.64 50.88c0 -25.9455 21.0945 -47.04 47.04 -47.04h164.64c25.9455 0 47.04 21.0945 47.04 47.04v282.24c0 25.9455 -21.0945 47.04 -47.04 47.04H109.68c-25.9455 0 -47.04 -21.0945 -47.04 -47.04V50.88Zm152.88 282.24c0 -18.1057 -19.6 -29.4218 -35.28 -20.3689 -7.2771 4.2014 -11.76 11.966 -11.76 20.3689 0 18.1057 19.6 29.4218 35.28 20.3689 7.2771 -4.2014 11.76 -11.966 11.76 -20.3689Zm58.8 -282.24H109.68v235.2h164.64V50.88Z" fill="#fefefe" stroke-width="1"></path></svg>