<?xml version="1.0" standalone="no"?>
<!DOCTYPE svg PUBLIC "-//W3C//DTD SVG 20010904//EN"
 "http://www.w3.org/TR/2001/REC-SVG-20010904/DTD/svg10.dtd">
<svg version="1.0" xmlns="http://www.w3.org/2000/svg"
 width="280.000000pt" height="280.000000pt" viewBox="0 0 280.000000 280.000000"
 preserveAspectRatio="xMidYMid meet">

<g transform="translate(0.000000,280.000000) scale(0.100000,-0.100000)"
fill="#000000" stroke="none">
<path d="M1353 2768 c-47 -53 -135 -224 -191 -373 -128 -337 -148 -735 -56
-1085 50 -189 59 -208 525 -1131 63 -125 85 -159 107 -168 20 -8 166 -11 519
-9 459 3 492 4 511 21 48 44 73 -11 -629 1394 -365 729 -671 1336 -682 1349
-25 32 -76 33 -104 2z"/>
<path d="M727 1520 c-18 -14 -86 -141 -208 -388 -100 -202 -255 -515 -345
-695 -184 -368 -190 -388 -123 -422 23 -13 107 -15 516 -15 559 0 518 -7 563
94 103 229 105 574 5 880 -60 188 -173 389 -283 506 -56 60 -87 70 -125 40z"/>
</g>
</svg>
