<svg xmlns="http://www.w3.org/2000/svg" fill="none" viewBox="0 0 96 96" id="Expo-Icon--Streamline-Svg-Logos"><desc>Expo Icon Streamline Icon: https://streamlinehq.com</desc><path fill="#727272" d="M45.5431 36.8058c0.7687 -1.1331 1.6102 -1.2772 2.2929 -1.2772 0.6827 0 1.8199 0.1441 2.5889 1.2772 6.0594 8.3228 16.0613 24.9022 23.4394 37.132 4.8114 7.9756 8.5069 14.1012 9.2651 14.8807 2.8462 2.9265 6.7496 1.1027 9.0178 -2.2167C94.3802 83.3338 95 81.0391 95 78.591c0 -1.6674 -32.351 -61.8343 -35.609 -66.8425 -3.1332 -4.81695 -4.1538 -6.03366 -9.5164 -6.03366h-4.0129c-5.3466 0 -6.1192 1.21671 -9.2527 6.03366C33.3512 16.7567 1 76.9236 1 78.591c0 2.4481 0.61992 4.7428 2.85298 8.0108 2.26819 3.3194 6.17152 5.1432 9.01762 2.2167 0.7583 -0.7795 4.4538 -6.9051 9.2653 -14.8807 7.3779 -12.2298 17.3478 -28.8092 23.4072 -37.132Z" stroke-width="1"></path></svg>