<svg viewBox="0 0 24 24" fill="none" xmlns="http://www.w3.org/2000/svg" id="React--Streamline-Unicons"><desc>React Streamline Icon: https://streamlinehq.com</desc><path d="M10.9451 10.1629c-0.3597 0.2077 -0.6499 0.5175 -0.8335 0.89s-0.2529 0.7912 -0.1987 1.2031c0.0542 0.4118 0.2293 0.7983 0.5032 1.1107 0.2739 0.3122 0.6344 0.5364 1.0356 0.6438 0.4011 0.1075 0.8253 0.0937 1.2187 -0.0399 0.3932 -0.1335 0.7382 -0.3807 0.9911 -0.7103 0.2529 -0.3295 0.4023 -0.7267 0.4295 -1.1412 0.027 -0.4146 -0.0693 -0.8278 -0.277 -1.1875 -0.2785 -0.4823 -0.7373 -0.8343 -1.2753 -0.9785 -0.538 -0.144 -1.1112 -0.0686 -1.5936 0.2098Zm9.4135 2.2787c-0.138 -0.1575 -0.2834 -0.3155 -0.4366 -0.474 0.1071 -0.1123 0.2105 -0.2246 0.3105 -0.3369 1.8885 -2.1218 2.6855 -4.2497 1.947 -5.529 -0.7082 -1.2265 -2.8146 -1.592 -5.4518 -1.0793 -0.2598 0.0508 -0.5181 0.1082 -0.775 0.172 -0.0491 -0.1695 -0.1015 -0.3381 -0.157 -0.5057C14.9011 1.9927 13.456 0.2391 11.9788 0.24c-1.4164 0.0007 -2.7853 1.643 -3.6585 4.1836 -0.086 0.2506 -0.1654 0.5034 -0.2385 0.7582 -0.1717 -0.0422 -0.3442 -0.0811 -0.5174 -0.1168C4.782 4.4937 2.5409 4.87 1.8038 6.15c-0.7067 1.2274 0.0324 3.2337 1.7976 5.2591 0.175 0.2004 0.355 0.3963 0.54 0.5878 -0.218 0.2246 -0.4245 0.4491 -0.617 0.6723 -1.7223 1.9968 -2.4192 3.9704 -1.7136 5.1925 0.7288 1.2624 2.9383 1.6751 5.6276 1.1459 0.218 -0.0433 0.4347 -0.0919 0.6502 -0.1458 0.079 0.2755 0.1656 0.5488 0.2599 0.8196 0.8694 2.4896 2.2306 4.0791 3.6421 4.0786 1.4575 -0.0009 2.9187 -1.7086 3.8039 -4.3027 0.07 -0.205 0.1361 -0.4179 0.1989 -0.6371 0.2784 0.0693 0.5586 0.1307 0.8406 0.1844 2.5912 0.4902 4.6481 0.1047 5.3525 -1.1183 0.7274 -1.2634 -0.0225 -3.3823 -1.8279 -5.4447ZM2.6745 6.6513c0.4538 -0.7879 2.2853 -1.0953 4.6877 -0.6021 0.1535 0.0316 0.3097 0.0669 0.4684 0.1059 -0.2345 1.0375 -0.4 2.0894 -0.4954 3.1489 -0.8668 0.6098 -1.6932 1.2751 -2.4741 1.9916 -0.1721 -0.1779 -0.3395 -0.3602 -0.5024 -0.5467C2.8463 9.0135 2.2486 7.391 2.6745 6.6513Zm4.5707 6.7362c-0.6004 -0.4546 -1.1584 -0.9203 -1.6648 -1.3889 0.5061 -0.4654 1.0644 -0.9297 1.6636 -1.383 -0.0215 0.4618 -0.0322 0.9241 -0.032 1.3867 0.0003 0.4619 0.0114 0.9236 0.0332 1.3852Zm-0.0007 4.6341c-1.0193 0.2267 -2.0715 0.2638 -3.1043 0.1096 -0.2831 -0.0221 -0.5586 -0.1019 -0.8097 -0.2347 -0.251 -0.1327 -0.4721 -0.3155 -0.6497 -0.5371 -0.4281 -0.7417 0.1315 -2.3261 1.6045 -4.034 0.1851 -0.214 0.3764 -0.4224 0.5737 -0.6253 0.781 0.7203 1.6088 1.3883 2.478 1.9993 0.0967 1.073 0.2641 2.1383 0.5012 3.1893 -0.1968 0.0492 -0.3946 0.0935 -0.5937 0.1329Zm8.3509 -9.4542c-0.3944 -0.2485 -0.7938 -0.489 -1.1979 -0.7216 -0.3978 -0.229 -0.8002 -0.4493 -1.2076 -0.661 0.6974 -0.2932 1.383 -0.5437 2.0447 -0.7477 0.1561 0.7036 0.2764 1.4146 0.3608 2.1303ZM9.2705 4.7502c0.7482 -2.1769 1.8552 -3.5051 2.7089 -3.5055 0.9091 -0.0004 2.0903 1.4327 2.8627 3.7604 0.0502 0.1518 0.0976 0.3044 0.1423 0.4578 -1.0146 0.3147 -2.0075 0.6963 -2.9718 1.1421 -0.9605 -0.451 -1.9501 -0.8368 -2.9624 -1.1547 0.0677 -0.2352 0.1411 -0.4685 0.2203 -0.7001Zm-0.4709 1.6744c0.6903 0.2173 1.3692 0.4693 2.0341 0.7549 -0.8239 0.4252 -1.6264 0.8883 -2.4077 1.3894 0.0944 -0.7503 0.22 -1.4692 0.3736 -2.1443Zm-0.3718 9.0089c0.3896 0.2494 0.7849 0.4896 1.1859 0.7205 0.409 0.2356 0.8235 0.4611 1.2434 0.6769 -0.6699 0.2956 -1.3547 0.5565 -2.0514 0.7819 -0.1554 -0.6845 -0.2824 -1.416 -0.3779 -2.1793Zm6.4158 3.6991c-0.3129 0.9962 -0.8063 1.9263 -1.456 2.7438 -0.1605 0.2343 -0.3675 0.4331 -0.6078 0.5842 -0.2404 0.151 -0.5091 0.2512 -0.7898 0.2944 -0.8564 0.0005 -1.9494 -1.276 -2.6929 -3.4051 -0.0876 -0.2517 -0.1682 -0.5057 -0.2417 -0.7619 1.0171 -0.3282 2.0108 -0.7249 2.9743 -1.1874 0.9723 0.4486 1.973 0.833 2.9956 1.1507 -0.0558 0.1951 -0.1164 0.3889 -0.1817 0.5813Zm0.426 -1.5573c-0.6694 -0.2069 -1.3649 -0.4615 -2.0722 -0.7591 0.3987 -0.2099 0.8005 -0.4316 1.205 -0.665 0.4151 -0.2397 0.8198 -0.4854 1.2137 -0.7372 -0.0784 0.7259 -0.1941 1.4473 -0.3465 2.1613Zm0.5248 -5.5774c0.0009 0.7142 -0.0214 1.4278 -0.0669 2.1408 -0.5794 0.3922 -1.191 0.775 -1.8275 1.1425 -0.6337 0.3659 -1.2617 0.7022 -1.8777 1.0065 -0.6482 -0.3107 -1.2839 -0.6455 -1.9072 -1.0043 -0.6197 -0.3568 -1.2252 -0.7366 -1.8165 -1.1395 -0.0541 -0.7129 -0.0813 -1.427 -0.0817 -2.1424 -0.0005 -0.7149 0.0263 -1.4289 0.0801 -2.1422 0.5792 -0.3956 1.1864 -0.7782 1.8142 -1.1406 0.6307 -0.3642 1.2666 -0.6991 1.8989 -1.0026 0.6402 0.3112 1.269 0.6447 1.8861 1.0004 0.6194 0.3559 1.2265 0.7317 1.8216 1.1274 0.0511 0.7169 0.0766 1.4349 0.0766 2.154Zm1.1251 -5.9891c2.2596 -0.4395 3.9631 -0.1439 4.3899 0.5953 0.4546 0.7875 -0.1969 2.5266 -1.8273 4.3586 -0.0901 0.1012 -0.1836 0.2026 -0.2805 0.3046 -0.7943 -0.7181 -1.6367 -1.3812 -2.5212 -1.9849 -0.0892 -1.0479 -0.2486 -2.0886 -0.4768 -3.1151 0.2433 -0.0599 0.4819 -0.1127 0.7159 -0.1585Zm-0.1526 4.5684c0.5965 0.4356 1.1702 0.9019 1.7184 1.3969 -0.5459 0.5032 -1.1176 0.9775 -1.713 1.4209 0.0182 -0.4656 0.0271 -0.9315 0.0269 -1.3975 -0.0002 -0.4736 -0.011 -0.9471 -0.0323 -1.4203Zm4.5488 6.8075c-0.4274 0.7423 -2.079 1.0518 -4.2951 0.6326 -0.2539 -0.048 -0.5145 -0.105 -0.7816 -0.1712 0.2227 -1.0399 0.375 -2.0934 0.4557 -3.1538 0.8829 -0.6141 1.7227 -1.2884 2.5131 -2.0178 0.1384 0.1436 0.2699 0.2867 0.3947 0.429 0.7068 0.7686 1.2662 1.6606 1.65 2.6318 0.1227 0.256 0.1917 0.5345 0.2026 0.8181 0.0108 0.2838 -0.0366 0.5667 -0.1394 0.8313Z" fill="#1a1a1a" stroke-width="1"></path></svg>