<svg xmlns="http://www.w3.org/2000/svg" viewBox="0 0 24 24" version="1.1">
	<path d="M11.304 1.2863280000000001C9.659640000000001 1.42704 8.4792 1.743 7.140000000000001 2.400864C4.381104 3.756096 2.322744 6.189408 1.4562240000000002 9.120000000000001C1.140096 10.189128 1.008288 11.118264 1.0080959999999999 12.278640000000001C1.007976 13.111416 1.0653839999999999 13.693224 1.224864 14.474784C1.7543279999999999 17.069808 3.229272 19.403807999999998 5.364 21.024624C6.253296 21.69984 7.2740160000000005 22.246344 8.364 22.630848C8.621688 22.72176 8.902728 22.749888000000002 9.098232000000001 22.704384C9.39804 22.634591999999998 9.662184 22.424976 9.78768 22.157232L9.852 22.02 9.858888 20.891424L9.865752 19.762872 9.80904 19.655424C9.777840000000001 19.596336 9.70632 19.5156 9.650088 19.476C9.55884 19.411728 9.529416000000001 19.404144 9.375936 19.405368C9.281376 19.406112 9.1068 19.42536 8.988 19.44816C8.680608000000001 19.507104 8.21736 19.525104000000002 7.930272 19.489248C7.472664 19.43208 7.063776000000001 19.255512 6.763128000000001 18.985224000000002C6.605112000000001 18.843168 6.40992 18.563472 6.340272 18.379296C6.3138 18.309288 6.28368 18.2304 6.2733360000000005 18.204C6.263016 18.177599999999998 6.334968 18.229704 6.433272 18.319752C6.651479999999999 18.519696 6.941280000000001 18.716304 7.181184 18.827136000000003C7.917336000000001 19.167264 8.792064 19.156392 9.516 18.79812C9.811176 18.652056 9.867816 18.573816 9.935472 18.218784C10.009656000000001 17.829456 10.124688 17.596368000000002 10.392504 17.292648C10.462032 17.213808 10.533552 17.114256 10.551456 17.071416C10.643544 16.851048 10.531704000000001 16.562904 10.309008 16.446648C10.269960000000001 16.426272 10.069320000000001 16.384776 9.863112000000001 16.354416C7.994184000000001 16.079328 6.910368000000001 15.438576000000001 6.324599999999999 14.262432C6.003744 13.6182 5.846664 12.905232 5.815392 11.951016000000001C5.7992159999999995 11.4576 5.8232159999999995 11.187912 5.918208000000001 10.795632C6.045816 10.268592 6.302664 9.768624 6.667944 9.336168C6.815664 9.161280000000001 6.88668 9.024288 6.887472000000001 8.912688000000001C6.88776 8.871264 6.8621039999999995 8.747064 6.830424 8.636688000000001C6.646751999999999 7.996368 6.627696 7.466232000000001 6.76704 6.87408C6.79476 6.756336 6.826008 6.646248000000001 6.8364720000000005 6.629447999999999C6.851783999999999 6.604896 6.89064 6.606264 7.033752 6.63636C7.610664 6.757632 8.219112 7.042944 9.043872 7.578912000000001C9.26124 7.7201759999999995 9.328584 7.7242560000000005 9.753143999999999 7.6218960000000004C10.541712 7.431792000000001 11.171088 7.358016 12 7.358496C12.84432 7.359 13.361088 7.418808 14.193456000000001 7.612296C14.712432000000002 7.73292 14.722920000000002 7.731504 15.096 7.490088C15.85836 6.9967440000000005 16.500576 6.711216 17.066471999999997 6.6139920000000005L17.152944 6.599136 17.203872 6.797568000000001C17.294832000000003 7.152048000000001 17.311416 7.278672 17.311536 7.62C17.311680000000003 7.985784 17.26932 8.282712 17.170992 8.605056C17.070408 8.934792 17.091984 9.05472 17.296104000000003 9.300552000000001C17.987304 10.132968 18.24012 10.954368 18.169128 12.136848C18.129792000000002 12.79176 18.05688 13.215192000000002 17.901984000000002 13.688256C17.386104000000003 15.263760000000001 16.227696 16.06872 14.064 16.35516C13.701047999999998 16.403208 13.589015999999999 16.451016 13.490352 16.599984000000003C13.351632 16.809408 13.369128000000002 17.021448 13.542528 17.232552000000002C13.758863999999999 17.495952000000003 13.804872 17.562216 13.89936 17.746464C13.953072 17.851224000000002 14.022912 18.038928 14.05452 18.16356L14.112 18.390144 14.112 20.113896C14.112 21.283248 14.120568 21.878544 14.138616 21.964824C14.176512 22.146024 14.294640000000001 22.35564 14.422248000000002 22.4682C14.750808 22.758 15.157584000000002 22.804728 15.684000000000001 22.613136C17.001863999999998 22.133544 18.102528000000003 21.498624 19.14 20.619552000000002C19.473959999999998 20.336568 20.154336 19.650144 20.428056 19.32C21.512904 18.01164 22.269000000000002 16.525032 22.667928 14.916C22.880136 14.060184000000001 22.967064 13.399296 22.985184 12.504C23.018232 10.873512 22.740888 9.422184 22.111464 7.932C21.099504 5.5360320000000005 19.127832 3.47832 16.764 2.35116C15.656712000000002 1.8231600000000001 14.5248 1.495872 13.272 1.341432C12.973872 1.304688 12.695088 1.29072 12.144 1.284864C11.7414 1.280592 11.3634 1.28124 11.304 1.2863280000000001M11.328 2.29416C9.856968 2.418 8.704608 2.736504 7.476 3.358848C6.784848 3.7089359999999996 6.2579519999999995 4.050384 5.676 4.525320000000001C2.309472 7.272768 1.10748 11.880864 2.703672 15.9204C3.2160719999999996 17.21712 3.93984 18.318504 4.930656 19.309344000000003C5.755896 20.134584 6.622032 20.752128000000003 7.637256 21.239184C8.100168 21.461256000000002 8.751816 21.72 8.8482 21.72C8.87376 21.72 8.88 21.599904 8.88 21.107208L8.88 20.494392 8.538 20.510544C7.48824 20.560152000000002 6.632976000000001 20.267568 6.009864 19.645704000000002C5.688216 19.32468 5.494584000000001 19.02 5.347992 18.604248000000002C5.15952 18.069744 4.9400640000000005 17.785056 4.416 17.395272000000002C4.264200000000001 17.282376000000003 4.08924 17.137344000000002 4.027200000000001 17.073C3.6264480000000003 16.657392 3.738408 16.109208 4.264176 15.912504C4.750848 15.730416 5.505984 15.9246 6.11544 16.388544C6.367584 16.580472 6.535104 16.770576000000002 6.784608 17.148C7.050264 17.549784 7.229472 17.725224 7.520472000000001 17.868312C7.930536000000001 18.06996 8.33856 18.122591999999997 8.725296 18.023664C8.829216 17.997096 8.924592 17.965008 8.937192 17.952408000000002C8.949816 17.939784 8.979072 17.85492 9.002208 17.763792000000002C9.025344 17.672664 9.076080000000001 17.52336 9.11496 17.431992L9.185664 17.265888 8.930832 17.210520000000002C7.752216000000001 16.954512 6.844992 16.483608 6.168 15.776424C5.364192 14.936760000000001 4.937304 13.846728 4.825296 12.348C4.778784000000001 11.725608000000001 4.801512 11.221848 4.897776 10.74C5.012087999999999 10.167984 5.303904 9.494328 5.642616 9.020592L5.820336 8.772 5.791584 8.656176C5.704248 8.304456 5.678136 8.066424 5.67924 7.632000000000001C5.680728 7.047312 5.764296 6.583032 5.955384 6.097968C6.061752 5.827944 6.120552 5.751048 6.280776 5.672352C6.412272 5.607792 6.437328 5.604024 6.732 5.604264C6.93888 5.604432 7.112736 5.619 7.248 5.647464C7.782984 5.76012 8.506295999999999 6.0681840000000005 9.142007999999999 6.454128000000001L9.464016 6.6496319999999995 9.730008 6.590184000000001C10.514064000000001 6.414960000000001 11.119176 6.351288 12 6.351288C12.873024 6.351288 13.554912 6.4245600000000005 14.319287999999998 6.600552L14.535792 6.650424 14.809895999999998 6.4798800000000005C15.418704000000002 6.101064 16.21404 5.76048 16.752 5.6481840000000005C16.999224 5.596584 17.48412 5.589504 17.635368 5.635296C17.801856 5.685696 17.911848 5.8049040000000005 18.011544 6.043008C18.128568 6.322463999999999 18.229032 6.695735999999999 18.277728 7.032C18.349104 7.524864 18.297072 8.436984 18.180384 8.73864C18.171576 8.76144 18.188592 8.805696 18.221952 8.84664C18.693744 9.425592 19.04508 10.26792 19.151856000000002 11.076C19.216584 11.566008 19.174704000000002 12.592535999999999 19.065168 13.200000000000001C18.853848 14.371991999999999 18.343536 15.33972 17.579688 16.017048C16.938816 16.58532 16.113672 16.97208 15.03336 17.210568L14.790696 17.264136 14.860104000000002 17.417184C14.929608 17.570472 15.017591999999999 17.835048 15.073896 18.06C15.096143999999999 18.148824 15.106344000000002 18.640439999999998 15.113256000000002 19.952736L15.122568 21.725496 15.194256000000001 21.711144C15.349272000000001 21.680136 15.993863999999999 21.416112 16.404 21.21564C19.202304 19.847808 21.183792 17.266896 21.802536 14.184000000000001C21.918264 13.607351999999999 21.962664 13.178351999999999 21.976896 12.499584C21.991751999999998 11.789592 21.9672 11.371152 21.875448 10.771152C21.605472 9.005664 20.900496 7.3957679999999995 19.786152 6C19.457136000000002 5.587896000000001 18.683904 4.815384 18.264 4.47924C17.913408 4.198608 17.254368 3.7511039999999998 16.908 3.5585039999999997C15.762 2.92128 14.571384 2.529336 13.236432 2.349864C12.961152 2.312856 12.705912 2.299488 12.156 2.293248C11.76 2.288736 11.387400000000001 2.289144 11.328 2.29416" stroke="none" fill="#68118d" fill-rule="evenodd" stroke-width="0.024"></path>
</svg>