<svg xmlns="http://www.w3.org/2000/svg" fill="none" viewBox="0 0 96 96" id="Confluence--Streamline-Svg-Logos"><desc>Confluence Streamline Icon: https://streamlinehq.com</desc><path fill="url(#a)" d="M4.40867 71.7915c-.97217 1.5854-2.06399 3.425-2.99128 4.8907-.830008 1.4026-.38443 3.2115 1.00208 4.0682L21.8628 92.7155c.6825.4214 1.5057.551 2.2846.3598.779-.1912 1.4486-.6873 1.8583-1.3768.7778-1.3012 1.7799-2.9913 2.8717-4.801 7.7025-12.713 15.45-11.1575 29.4193-4.487l19.2788 9.1683c.7301.3476 1.5699.3847 2.3279.1029.7579-.2818 1.3695-.8584 1.6954-1.5985l9.258-20.939c.6541-1.4955-.0115-3.2392-1.4956-3.9186-4.0682-1.9144-12.1596-5.7283-19.4434-9.2431C43.7141 43.2546 21.444 44.0772 4.40867 71.7915Z"></path><path fill="url(#b)" d="M91.5918 24.2725c.9722-1.5854 2.064-3.4251 2.9913-4.8908.83-1.4026.3844-3.2115-1.0021-4.0681L74.1377 3.34842c-.6881-.46343-1.5377-.62031-2.3459-.43315-.8082.18716-1.5024.70155-1.9167 1.42028-.7777 1.30121-1.7798 2.99128-2.8716 4.80101-7.7026 12.71294-15.45 11.15744-29.4193 4.48694l-19.219-9.12343c-.7302-.34754-1.5699-.38465-2.3279-.10287-.7579.28177-1.3695.85841-1.6954 1.59851L5.0839 26.9347c-.6541 1.4955.01145 3.2392 1.49564 3.9186 4.06816 1.9144 12.15956 5.7283 19.44336 9.243 26.2635 12.713 48.5336 11.8605 65.5689-15.8238Z"></path><defs><linearGradient id="a" x1="8934.33" x2="6756.98" y1="5130.85" y2="135.705" gradientUnits="userSpaceOnUse"><stop offset=".18" stop-color="#0052cc"></stop><stop offset="1" stop-color="#2684ff"></stop></linearGradient><linearGradient id="b" x1="88.3" x2="2269.12" y1="-565.329" y2="4432.23" gradientUnits="userSpaceOnUse"><stop offset=".18" stop-color="#0052cc"></stop><stop offset="1" stop-color="#2684ff"></stop></linearGradient></defs></svg>