<svg xmlns="http://www.w3.org/2000/svg" width="236" height="236" viewBox="0 0 236 236" version="1.1"><path d="M 88 7.570 C 84.946 9.128, 71.239 22.176, 45.336 48.183 C 13.102 80.546, 7.004 87.122, 6.092 90.500 C 5.458 92.845, 5.013 104.430, 5.015 118.500 C 5.019 141.699, 5.099 142.667, 7.398 147.500 C 9.251 151.397, 18.131 160.810, 47.638 190.157 C 83.675 225.999, 85.762 227.891, 90.932 229.407 C 95.162 230.648, 101.147 231, 118 231 C 134.977 231, 140.807 230.653, 145.068 229.390 C 150.227 227.860, 152.369 225.919, 187.637 190.806 C 213.503 165.053, 225.642 152.265, 227.637 148.666 C 230.500 143.500, 230.500 143.500, 230.817 120.168 C 231.087 100.300, 230.878 95.994, 229.408 91.168 C 227.753 85.733, 226.159 83.966, 190.591 48.142 C 157.092 14.403, 152.886 10.505, 147.157 7.892 C 140.814 5, 140.814 5, 116.657 5.137 C 93.577 5.268, 92.299 5.377, 88 7.570 M 91.593 23.053 C 88 26.207, 88 26.207, 88 58.188 C 88 90.169, 88 90.169, 118.500 59.902 C 135.275 43.255, 149 29.131, 149 28.514 C 149 27.897, 147.401 25.842, 145.446 23.946 C 141.893 20.500, 141.893 20.500, 118.539 20.199 C 95.185 19.899, 95.185 19.899, 91.593 23.053 M 143.355 55.609 C 126.500 72.500, 126.500 72.500, 159.403 72.764 C 177.499 72.909, 192.555 72.779, 192.859 72.474 C 193.164 72.170, 185.942 64.450, 176.812 55.319 C 160.211 38.718, 160.211 38.718, 143.355 55.609 M 55.124 58.766 C 38.748 75.225, 38.748 75.225, 55.112 91.613 C 64.113 100.626, 71.820 108, 72.239 108 C 72.657 108, 73 93.150, 73 75 C 73 56.850, 72.662 42.069, 72.250 42.154 C 71.838 42.238, 64.131 49.714, 55.124 58.766 M 24 90.249 C 20.500 94.461, 20.500 94.461, 20.500 117.981 C 20.500 141.353, 20.515 141.520, 22.938 144.750 C 25.376 148, 25.376 148, 57.188 148 C 74.685 148, 89 147.660, 89 147.244 C 89 146.828, 75.385 132.878, 58.744 116.244 C 42.103 99.610, 28.266 86.008, 27.994 86.018 C 27.722 86.028, 25.925 87.932, 24 90.249 M 99.252 99.430 C 88 110.861, 88 110.861, 88 117.696 C 88 124.531, 88 124.531, 99.765 136.266 C 111.530 148, 111.530 148, 118 148 C 124.470 148, 124.470 148, 136.235 136.266 C 148 124.531, 148 124.531, 148 118.031 C 148 111.530, 148 111.530, 136.266 99.765 C 124.531 88, 124.531 88, 117.517 88 C 110.504 88, 110.504 88, 99.252 99.430 M 147 88.756 C 147 89.172, 160.390 102.897, 176.756 119.256 C 193.122 135.615, 206.984 149, 207.560 149 C 208.136 149, 210.158 147.401, 212.054 145.447 C 215.500 141.893, 215.500 141.893, 215.806 119.737 C 215.974 107.551, 215.875 96.662, 215.587 95.540 C 215.299 94.418, 213.905 92.263, 212.491 90.750 C 209.919 88, 209.919 88, 178.460 88 C 161.157 88, 147 88.340, 147 88.756 M 163 159.761 C 163 178.043, 163.343 193, 163.762 193 C 164.181 193, 171.606 185.907, 180.262 177.239 C 188.918 168.570, 196 161.027, 196 160.477 C 196 159.927, 188.575 152.062, 179.500 143 C 163 126.523, 163 126.523, 163 159.761 M 116.582 176.917 C 85.665 207.847, 85.665 207.847, 89.005 210.674 C 90.843 212.228, 93.055 214.048, 93.923 214.718 C 95.049 215.588, 101.736 215.945, 117.300 215.968 C 134.061 215.993, 139.724 215.677, 141.802 214.602 C 143.289 213.834, 145.298 212.329, 146.267 211.258 C 147.883 209.471, 148.007 206.703, 147.764 177.649 C 147.500 145.987, 147.500 145.987, 116.582 176.917 M 58.500 180 C 75.478 197, 75.478 197, 92.239 180.261 C 101.458 171.055, 109 163.405, 109 163.261 C 109 163.117, 93.817 163, 75.261 163 C 41.522 163, 41.522 163, 58.500 180" stroke="none" fill="#f8f8f8" fill-rule="evenodd"/><path d="M 94.836 3.759 C 92.545 3.979, 90.930 4.746, 90.527 5.805 C 90.009 7.164, 90.131 7.252, 91.141 6.250 C 92.079 5.319, 98.580 5, 116.607 5 C 140.814 5, 140.814 5, 147.157 7.902 C 152.856 10.509, 157.177 14.493, 189.727 47.152 C 211.970 69.470, 226.719 85.044, 227.937 87.500 C 229.028 89.700, 229.938 90.915, 229.960 90.200 C 229.982 89.486, 229.354 87.686, 228.565 86.200 C 227.776 84.715, 210.339 66.766, 189.815 46.313 C 156.724 13.336, 151.821 8.826, 146.500 6.474 C 140.693 3.907, 139.823 3.815, 119.500 3.614 C 107.950 3.500, 96.851 3.565, 94.836 3.759 M 52.189 40.250 C 33.830 58.538, 16.264 76.128, 13.154 79.341 C 10.044 82.553, 6.953 86.153, 6.285 87.341 C 5.617 88.528, 5.075 90.400, 5.079 91.500 C 5.084 92.600, 5.720 91.725, 6.493 89.556 C 7.574 86.521, 16.612 76.874, 45.699 47.708 C 66.489 26.860, 84.850 9.190, 86.500 8.441 C 88.757 7.416, 89.013 7.069, 87.535 7.039 C 86.262 7.014, 73.808 18.715, 52.189 40.250 M 91.593 23.053 C 88 26.207, 88 26.207, 88 58.188 C 88 90.169, 88 90.169, 118.500 59.902 C 135.275 43.255, 149 29.131, 149 28.514 C 149 27.897, 147.401 25.842, 145.446 23.946 C 141.893 20.500, 141.893 20.500, 118.539 20.199 C 95.185 19.899, 95.185 19.899, 91.593 23.053 M 143.355 55.609 C 126.500 72.500, 126.500 72.500, 159.403 72.764 C 177.499 72.909, 192.555 72.779, 192.859 72.474 C 193.164 72.170, 185.942 64.450, 176.812 55.319 C 160.211 38.718, 160.211 38.718, 143.355 55.609 M 55.124 58.766 C 38.748 75.225, 38.748 75.225, 55.112 91.613 C 64.113 100.626, 71.820 108, 72.239 108 C 72.657 108, 73 93.150, 73 75 C 73 56.850, 72.662 42.069, 72.250 42.154 C 71.838 42.238, 64.131 49.714, 55.124 58.766 M 24 90.249 C 20.500 94.461, 20.500 94.461, 20.500 117.981 C 20.500 141.353, 20.515 141.520, 22.938 144.750 C 25.376 148, 25.376 148, 57.188 148 C 74.685 148, 89 147.660, 89 147.244 C 89 146.828, 75.385 132.878, 58.744 116.244 C 42.103 99.610, 28.266 86.008, 27.994 86.018 C 27.722 86.028, 25.925 87.932, 24 90.249 M 99.252 99.430 C 88 110.861, 88 110.861, 88 117.696 C 88 124.531, 88 124.531, 99.765 136.266 C 111.530 148, 111.530 148, 118 148 C 124.470 148, 124.470 148, 136.235 136.266 C 148 124.531, 148 124.531, 148 118.031 C 148 111.530, 148 111.530, 136.266 99.765 C 124.531 88, 124.531 88, 117.517 88 C 110.504 88, 110.504 88, 99.252 99.430 M 147 88.756 C 147 89.172, 160.390 102.897, 176.756 119.256 C 193.122 135.615, 206.984 149, 207.560 149 C 208.136 149, 210.158 147.401, 212.054 145.447 C 215.500 141.893, 215.500 141.893, 215.806 119.737 C 215.974 107.551, 215.875 96.662, 215.587 95.540 C 215.299 94.418, 213.905 92.263, 212.491 90.750 C 209.919 88, 209.919 88, 178.460 88 C 161.157 88, 147 88.340, 147 88.756 M 230.500 118.502 C 230.500 132.422, 230.831 143.291, 231.235 142.656 C 231.639 142.020, 231.976 130.839, 231.985 117.809 C 231.993 104.779, 231.662 93.910, 231.250 93.655 C 230.838 93.400, 230.500 104.581, 230.500 118.502 M 3.628 103.294 C 3.148 108.681, 2.963 119.706, 3.216 127.794 C 3.613 140.488, 3.985 143.116, 5.931 147 C 7.469 150.070, 20.148 163.513, 45.843 189.315 C 66.554 210.114, 84.715 227.776, 86.200 228.565 C 87.686 229.354, 89.486 229.982, 90.200 229.961 C 90.915 229.939, 89.925 229.243, 88 228.414 C 85.844 227.485, 70.171 212.622, 47.177 189.703 C 26.650 169.241, 8.875 150.700, 7.677 148.500 C 5.647 144.770, 5.466 142.779, 5 119 C 4.543 95.698, 4.425 94.344, 3.628 103.294 M 163 159.761 C 163 178.043, 163.343 193, 163.762 193 C 164.181 193, 171.606 185.907, 180.262 177.239 C 188.918 168.570, 196 161.027, 196 160.477 C 196 159.927, 188.575 152.062, 179.500 143 C 163 126.523, 163 126.523, 163 159.761 M 227.146 149.430 C 225.718 152.123, 210.834 167.712, 187.676 190.769 C 167.229 211.127, 151.625 226.967, 153 225.968 C 154.375 224.969, 171.783 207.806, 191.684 187.826 C 211.586 167.847, 228.361 150.200, 228.962 148.611 C 229.564 147.023, 229.917 145.584, 229.748 145.415 C 229.579 145.245, 228.408 147.052, 227.146 149.430 M 116.582 176.917 C 85.665 207.847, 85.665 207.847, 89.005 210.674 C 90.843 212.228, 93.055 214.048, 93.923 214.718 C 95.049 215.588, 101.736 215.945, 117.300 215.968 C 134.061 215.993, 139.724 215.677, 141.802 214.602 C 143.289 213.834, 145.298 212.329, 146.267 211.258 C 147.883 209.471, 148.007 206.703, 147.764 177.649 C 147.500 145.987, 147.500 145.987, 116.582 176.917 M 58.500 180 C 75.478 197, 75.478 197, 92.239 180.261 C 101.458 171.055, 109 163.405, 109 163.261 C 109 163.117, 93.817 163, 75.261 163 C 41.522 163, 41.522 163, 58.500 180 M 93.470 231.243 C 94.200 231.652, 104.856 232.182, 117.149 232.421 C 133.145 232.733, 140.121 232.521, 141.684 231.678 C 143.409 230.748, 138.424 230.500, 118.005 230.500 C 103.781 230.500, 92.740 230.834, 93.470 231.243 M 106.299 235.745 C 111.139 235.929, 118.789 235.928, 123.299 235.743 C 127.810 235.558, 123.850 235.408, 114.500 235.409 C 105.150 235.410, 101.460 235.562, 106.299 235.745" stroke="none" fill="#364d4f" fill-rule="evenodd"/></svg>