<svg xmlns="http://www.w3.org/2000/svg" fill="none" viewBox="0 0 96 96" id="Adobe-Photoshop--Streamline-Svg-Logos"><desc>Adobe Photoshop Streamline Icon: https://streamlinehq.com</desc><path fill="#001e36" d="M79.3945 2.1748h-62.789C7.98681 2.1748 1 9.16161 1 17.7803v60.439c0 8.6187 6.98681 15.6055 15.6055 15.6055h62.789C88.0132 93.8248 95 86.838 95 78.2193v-60.439c0 -8.61869 -6.9868 -15.6055 -15.6055 -15.6055Z" stroke-width="1"></path><path fill="#31a8ff" d="M22.1665 66.4454V26.1512c0 -0.2937 0.1262 -0.4415 0.3785 -0.4415l0.399 -0.0012 0.6822 -0.0075 0.9483 -0.0186 3.1763 -0.0672 3.4052 -0.0631c1.198 -0.0207 2.3855 -0.0316 3.5627 -0.0316 3.1943 0 5.8848 0.3994 8.0714 1.1981 1.9725 0.6672 3.7713 1.7659 5.2655 3.216 1.2667 1.2569 2.2455 2.7737 2.8691 4.4456 0.5899 1.6272 0.8888 3.3455 0.8831 5.0762 0 3.3638 -0.7779 6.1384 -2.3333 8.3237 -1.5223 2.1334 -3.6448 3.7633 -6.0951 4.6838l-0.2108 0.0771c-2.5602 0.9553 -5.3957 1.3004 -8.5055 1.3223l-0.4831 0.001 -0.717 -0.0038 -0.362 -0.0049 -0.4032 -0.0096 -0.2427 -0.0095 -0.1477 -0.0076 -0.3632 -0.0134 -0.4439 -0.0089 -0.6684 -0.0051c-0.0487 -0.0001 -0.0983 -0.0001 -0.1488 -0.0002v12.5811c0.0223 0.1563 -0.0303 0.314 -0.1419 0.4256 -0.1117 0.1117 -0.2694 0.1642 -0.4257 0.1419h-7.5076c-0.2945 0 -0.4414 -0.1675 -0.4414 -0.5045Zm8.5166 -33.1687v13.1424c0.5458 0.0423 1.0502 0.0633 1.5133 0.063h2.0809c1.4354 -0.0048 2.862 -0.2185 4.2349 -0.634l0.2739 -0.0858c1.2492 -0.3711 2.3655 -1.0934 3.2159 -2.0809 0.7904 -0.932 1.1998 -2.2162 1.2281 -3.8525l0.0016 -0.1832c0.0333 -1.2198 -0.2841 -2.4235 -0.9145 -3.4683 -0.6627 -1.0103 -1.6204 -1.7919 -2.743 -2.2385 -1.4658 -0.5698 -3.0314 -0.8379 -4.6032 -0.7882l-0.7998 0.0023 -0.5044 0.0042 -0.4816 0.0062 -0.6792 0.0133 -0.4955 0.014 -0.2578 0.0095 -0.3441 0.016 -0.2929 0.0181 -0.167 0.0132 -0.1441 0.0142c-0.0222 0.0024 -0.0434 0.0049 -0.0636 0.0074l-0.0579 0.0076Zm45.5058 10.7527c-1.1005 -0.5654 -2.2674 -0.9899 -3.4731 -1.2637l-0.2789 -0.0605c-1.3271 -0.3045 -2.6816 -0.4721 -4.0423 -0.5004l-0.3403 -0.0041c-0.7978 -0.0217 -1.5946 0.074 -2.3647 0.2838 -0.4902 0.1091 -0.9258 0.3884 -1.2297 0.7882 -0.2055 0.3198 -0.3149 0.6919 -0.3152 1.072 0.0115 0.3688 0.1445 0.7235 0.3783 1.0089 0.3349 0.3917 0.7373 0.7196 1.1877 0.9683l0.1365 0.0722c0.8991 0.4841 1.8255 0.9158 2.7746 1.2927 2.1163 0.7084 4.1386 1.6719 6.022 2.8691 1.2831 0.8098 2.3449 1.9258 3.0899 3.2475 0.6265 1.2516 0.9403 2.6364 0.9144 4.0358 0.0377 1.8478 -0.4903 3.6631 -1.5133 5.2023 -1.0953 1.5625 -2.6166 2.7773 -4.3827 3.4997 -1.8496 0.8125 -4.121 1.2324 -6.8139 1.2598l-0.2801 0.0014c-1.6696 0.0169 -3.3366 -0.1293 -4.9773 -0.4362l-0.3511 -0.0683c-1.3818 -0.2533 -2.7268 -0.6769 -4.0043 -1.2611 -0.2627 -0.1357 -0.4301 -0.4016 -0.4414 -0.6938l0 -6.8732c-0.0155 -0.1359 0.0452 -0.2692 0.1578 -0.3469 0.1108 -0.0627 0.249 -0.0501 0.3467 0.0316 1.5087 0.8896 3.1468 1.5384 4.8555 1.9232 1.506 0.3775 3.0508 0.5786 4.6032 0.5991 1.4711 0 2.5536 -0.1892 3.2475 -0.5675 0.6402 -0.2931 1.0479 -0.9355 1.0406 -1.6395 0 -0.5459 -0.3153 -1.0713 -0.9459 -1.5765 -0.2644 -0.2115 -0.6434 -0.4416 -1.1371 -0.6901l-0.2359 -0.116 -0.2523 -0.1187c-0.0434 -0.02 -0.0874 -0.0401 -0.1322 -0.0603l-0.2767 -0.1225c-0.0474 -0.0207 -0.0956 -0.0414 -0.1444 -0.0623l-0.3011 -0.1265c-0.0515 -0.0213 -0.1037 -0.0427 -0.1566 -0.0643l-0.3255 -0.1304c-0.0556 -0.022 -0.1119 -0.0441 -0.1688 -0.0662l-0.3499 -0.1344 -0.3662 -0.137c-1.98 -0.6892 -3.8573 -1.6437 -5.5806 -2.8376 -1.2327 -0.8573 -2.2476 -1.991 -2.9638 -3.3106 -0.6201 -1.2426 -0.9336 -2.6156 -0.9143 -4.0042 -0.0035 -1.6684 0.4548 -3.3053 1.3242 -4.7294 0.9913 -1.5681 2.4147 -2.8163 4.0989 -3.5943 1.8493 -0.9242 4.1615 -1.3866 6.9364 -1.3873 1.6251 -0.013 3.2487 0.1029 4.8555 0.3469 1.1635 0.1475 2.3011 0.4552 3.3804 0.9143 0.1735 0.0498 0.3136 0.1782 0.3782 0.3468 0.0427 0.154 0.0639 0.3132 0.0631 0.473v6.3688c0.0089 0.1509 -0.0631 0.295 -0.1891 0.3784 -0.1709 0.085 -0.3718 0.085 -0.5427 0Z" stroke-width="1"></path></svg>