<svg id="Layer_1" data-name="Layer 1" xmlns="http://www.w3.org/2000/svg" viewBox="0 0 69.7404 271.1974"><defs><style>.cls-1{fill:#fff;opacity:0.2;}</style></defs><rect class="cls-1" width="7.9017" height="7.9017" rx="3.9508"/><rect class="cls-1" x="30.9193" width="7.9017" height="7.9017" rx="3.9508"/><rect class="cls-1" x="61.8387" width="7.9017" height="7.9017" rx="3.9508"/><rect class="cls-1" y="29.2551" width="7.9017" height="7.9017" rx="3.9508"/><rect class="cls-1" x="30.9193" y="29.2551" width="7.9017" height="7.9017" rx="3.9508"/><rect class="cls-1" x="61.8387" y="29.2551" width="7.9017" height="7.9017" rx="3.9508"/><rect class="cls-1" y="58.5102" width="7.9017" height="7.9017" rx="3.9508"/><rect class="cls-1" x="30.9193" y="58.5102" width="7.9017" height="7.9017" rx="3.9508"/><rect class="cls-1" x="61.8387" y="58.5102" width="7.9017" height="7.9017" rx="3.9508"/><rect class="cls-1" y="87.7652" width="7.9017" height="7.9017" rx="3.9508"/><rect class="cls-1" x="30.9193" y="87.7652" width="7.9017" height="7.9017" rx="3.9508"/><rect class="cls-1" x="61.8387" y="87.7652" width="7.9017" height="7.9017" rx="3.9508"/><rect class="cls-1" y="117.0203" width="7.9017" height="7.9017" rx="3.9508"/><rect class="cls-1" x="30.9193" y="117.0203" width="7.9017" height="7.9017" rx="3.9508"/><rect class="cls-1" x="61.8387" y="117.0203" width="7.9017" height="7.9017" rx="3.9508"/><rect class="cls-1" y="146.2754" width="7.9017" height="7.9017" rx="3.9508"/><rect class="cls-1" x="30.9193" y="146.2754" width="7.9017" height="7.9017" rx="3.9508"/><rect class="cls-1" x="61.8387" y="146.2754" width="7.9017" height="7.9017" rx="3.9508"/><rect class="cls-1" y="175.5305" width="7.9017" height="7.9017" rx="3.9508"/><rect class="cls-1" x="30.9193" y="175.5305" width="7.9017" height="7.9017" rx="3.9508"/><rect class="cls-1" x="61.8387" y="175.5305" width="7.9017" height="7.9017" rx="3.9508"/><rect class="cls-1" y="204.7855" width="7.9017" height="7.9017" rx="3.9508"/><rect class="cls-1" x="30.9193" y="204.7855" width="7.9017" height="7.9017" rx="3.9508"/><rect class="cls-1" x="61.8387" y="204.7855" width="7.9017" height="7.9017" rx="3.9508"/><rect class="cls-1" y="234.0406" width="7.9017" height="7.9017" rx="3.9508"/><rect class="cls-1" x="30.9193" y="234.0406" width="7.9017" height="7.9017" rx="3.9508"/><rect class="cls-1" x="61.8387" y="234.0406" width="7.9017" height="7.9017" rx="3.9508"/><rect class="cls-1" y="263.2957" width="7.9017" height="7.9017" rx="3.9508"/><rect class="cls-1" x="30.9193" y="263.2957" width="7.9017" height="7.9017" rx="3.9508"/><rect class="cls-1" x="61.8387" y="263.2957" width="7.9017" height="7.9017" rx="3.9508"/></svg>