<?xml version="1.0" encoding="UTF-8"?>
<svg version="1.1" xmlns="http://www.w3.org/2000/svg" width="806" height="338">
<path d="M0 0 C1.21944305 -0.01286545 2.43888611 -0.0257309 3.69528198 -0.03898621 C5.03866506 -0.04307131 6.38204892 -0.04690821 7.72543335 -0.05052185 C9.14673447 -0.06142345 10.56802987 -0.07309586 11.98931885 -0.08547974 C15.84499825 -0.11593674 19.70061804 -0.13299232 23.55639315 -0.14569592 C25.96915742 -0.15379358 28.3819048 -0.16397474 30.79465866 -0.17471123 C38.35465714 -0.20742097 45.91461426 -0.23132206 53.47467387 -0.24352509 C62.18087244 -0.25776375 70.88625814 -0.30158753 79.59218752 -0.37102658 C86.33466618 -0.42293692 93.07691466 -0.44770836 99.81958997 -0.45234722 C103.84047689 -0.45573394 107.8605413 -0.47041008 111.88121414 -0.51362801 C115.66878724 -0.55362777 119.45497253 -0.55967865 123.24269485 -0.54072762 C125.27910802 -0.53887509 127.31546337 -0.57151463 129.35159302 -0.60554504 C138.21557904 -0.51583443 144.16324928 1.44541322 150.93002319 7.28761292 C158.94531882 16.59845839 159.22405069 25.95568836 159.05502319 37.78761292 C159.04599976 38.99159729 159.03697632 40.19558167 159.02767944 41.43605042 C159.00426095 44.38678082 158.97146312 47.33708981 158.93002319 50.28761292 C159.73109497 50.26666565 160.53216675 50.24571838 161.35751343 50.22413635 C165.02738629 50.14039891 168.69705736 50.08876923 172.36752319 50.03761292 C173.62758179 50.00409729 174.88764038 49.97058167 176.18588257 49.93605042 C186.58627188 49.82743016 194.48128977 51.71403972 202.06307983 59.13111877 C209.23148679 67.41129906 208.58321035 78.81506779 208.50643921 89.12086487 C208.49256406 91.71746474 208.52674872 94.31045562 208.56478882 96.90675354 C208.6124025 107.10406695 208.28700012 117.23894043 201.14511108 125.30299377 C199.4686755 126.87243864 197.89127112 128.09192253 195.93002319 129.28761292 C194.71463867 130.05440369 194.71463867 130.05440369 193.47470093 130.83668518 C188.66395842 132.80584578 184.42265176 132.71801226 179.27377319 132.68605042 C178.25327881 132.68892059 177.23278442 132.69179077 176.18136597 132.69474792 C174.02970828 132.696784 171.8780319 132.69128618 169.72640991 132.6787262 C166.44099368 132.66266654 163.15680761 132.67859094 159.87142944 132.69776917 C157.77637466 132.69578665 155.68132063 132.69194281 153.58627319 132.68605042 C152.60799561 132.69212311 151.62971802 132.6981958 150.62179565 132.70445251 C142.59815441 132.62208273 137.50077263 130.2785134 131.53939819 124.96339417 C120.86934795 113.85307486 124.93002319 97.46307737 124.93002319 83.28761292 C86.32002319 83.28761292 47.71002319 83.28761292 7.93002319 83.28761292 C7.93002319 138.06761292 7.93002319 192.84761292 7.93002319 249.28761292 C46.54002319 249.28761292 85.15002319 249.28761292 124.93002319 249.28761292 C124.93002319 240.04761292 124.93002319 230.80761292 124.93002319 221.28761292 C129.93002319 209.28761292 129.93002319 209.28761292 133.93002319 207.28761292 C133.93002319 206.62761292 133.93002319 205.96761292 133.93002319 205.28761292 C135.19957619 204.63926637 136.47072026 203.99403476 137.74252319 203.35011292 C138.45021851 202.99046448 139.15791382 202.63081604 139.88705444 202.26026917 C143.04651058 200.75605391 145.61689952 200.15723949 149.07504272 200.11061096 C149.90665924 200.09777573 150.73827576 200.08494049 151.59509277 200.07171631 C152.49194794 200.06432938 153.3888031 200.05694244 154.31283569 200.04933167 C155.70609573 200.03722404 155.70609573 200.03722404 157.12750244 200.02487183 C159.0961623 200.01103796 161.06484607 200.00031268 163.03353882 199.9924469 C166.02294426 199.97529695 169.01122533 199.93141214 172.00033569 199.88722229 C173.91699426 199.87708925 175.8336622 199.86857506 177.75033569 199.86183167 C179.07740036 199.83556953 179.07740036 199.83556953 180.43127441 199.80877686 C187.61937293 199.83350177 193.28332266 201.76442253 199.19955444 205.85792542 C207.87979122 214.60408804 208.49664338 224.14364875 208.47689819 235.89698792 C208.46851929 236.78321838 208.46014038 237.66944885 208.45150757 238.58253479 C208.43006764 241.28201638 208.45137659 243.97883736 208.47689819 246.67823792 C208.49358459 257.11332117 208.06433176 265.98853299 201.61752319 274.66261292 C195.47333001 280.66391788 189.64649102 282.42233427 181.19564819 282.38526917 C179.90014038 282.38204651 178.60463257 282.37882385 177.26986694 282.37550354 C175.90658502 282.36714889 174.54330377 282.35868396 173.18002319 282.35011292 C171.80111854 282.3450946 170.42221215 282.34053227 169.04330444 282.33644104 C165.67216661 282.32465384 162.30111692 282.30819926 158.93002319 282.28761292 C158.95358887 283.4359259 158.95358887 283.4359259 158.97763062 284.60743713 C159.04056198 288.12575183 159.07919748 291.64394753 159.11752319 295.16261292 C159.14265991 296.36659729 159.16779663 297.57058167 159.19369507 298.81105042 C159.25939327 306.87002928 158.57288225 314.00189481 154.93002319 321.28761292 C154.27002319 321.28761292 153.61002319 321.28761292 152.93002319 321.28761292 C152.62064819 321.90636292 152.31127319 322.52511292 151.99252319 323.16261292 C150.33622045 326.4752184 149.64667994 327.63613777 146.30502319 329.28761292 C145.65275757 329.61761292 145.00049194 329.94761292 144.32846069 330.28761292 C136.71798085 333.460712 129.92639298 333.5841354 121.73373413 333.57814026 C119.75434593 333.58821609 119.75434593 333.58821609 117.73497009 333.59849548 C114.12937038 333.61609572 110.52386572 333.62084838 106.9182272 333.62212706 C104.6605653 333.62355284 102.40292725 333.62783053 100.1452713 333.63312149 C92.25465879 333.6516034 84.36411366 333.65979459 76.47348022 333.65821838 C69.14177332 333.65701812 61.81036134 333.67810237 54.47872901 333.70970571 C48.16507844 333.73594196 41.85152375 333.74658258 35.53781915 333.74530756 C31.77541991 333.7448 28.01328289 333.7503682 24.25093842 333.77166367 C20.70817955 333.79117017 17.16592964 333.79108711 13.62315178 333.7766304 C11.72043741 333.77357565 9.8177223 333.79013234 7.91508484 333.80751038 C-0.90929756 333.74356919 -8.65256727 332.35982726 -16.00747681 327.24464417 C-16.68810181 326.53694885 -17.36872681 325.82925354 -18.06997681 325.10011292 C-18.77122681 324.40530823 -19.47247681 323.71050354 -20.19497681 322.99464417 C-25.91353719 314.73847261 -25.4445541 305.95792892 -25.25747681 296.22511292 C-25.24239636 294.86900806 -25.22871392 293.5128869 -25.21646118 292.15675354 C-25.18133517 288.8666169 -25.1321432 285.57733108 -25.06997681 282.28761292 C-25.93163452 282.30856018 -26.79329224 282.32950745 -27.68106079 282.35108948 C-30.91832431 282.41979626 -34.15521271 282.46966918 -37.39297485 282.50733948 C-38.78665495 282.52729287 -40.18025311 282.55446611 -41.57363892 282.58937073 C-51.10187263 282.82185006 -58.36554031 282.23457242 -66.33950806 276.71730042 C-74.55445596 268.43996051 -75.58099356 259.38880513 -75.61209106 248.16030884 C-75.60431595 246.42735105 -75.59612341 244.69439509 -75.58755493 242.96144104 C-75.59298228 241.11414032 -75.60010836 239.26684393 -75.60879517 237.41955566 C-75.62695857 232.42572508 -75.6199899 227.43222678 -75.60727882 222.43839073 C-75.59711488 217.19936131 -75.6065539 211.96035934 -75.61282349 206.72132874 C-75.62009002 197.92517517 -75.61053828 189.12915618 -75.59146118 180.33302307 C-75.5696944 170.17980619 -75.57674647 160.02691067 -75.5987668 149.87370157 C-75.61694913 141.13878085 -75.61946528 132.40395658 -75.60901213 123.66902304 C-75.60279277 118.45972524 -75.6018986 113.25057824 -75.61515808 108.04129028 C-75.62675722 103.14258426 -75.61861682 98.24429047 -75.59558105 93.34562874 C-75.59031562 91.55343877 -75.59177041 89.7612138 -75.60063171 87.96903801 C-75.64958875 77.05723415 -75.05045846 68.31519941 -68.88247681 58.97511292 C-62.64172129 53.01172431 -56.02313219 50.1524463 -47.43325806 50.18995667 C-46.13452759 50.19317932 -44.83579712 50.19640198 -43.49771118 50.19972229 C-42.12596573 50.2080776 -40.75422094 50.21654255 -39.38247681 50.22511292 C-37.99901485 50.23012956 -36.61555118 50.23469218 -35.23208618 50.23878479 C-31.84467286 50.25058762 -28.45734647 50.26705273 -25.06997681 50.28761292 C-25.09092407 49.45624817 -25.11187134 48.62488342 -25.13345337 47.76832581 C-25.2021875 44.64288026 -25.2520457 41.51782371 -25.28970337 38.39186096 C-25.31938462 36.3900524 -25.37024738 34.38859372 -25.42153931 32.38722229 C-25.52106116 22.50967813 -24.26387725 15.20703287 -17.50747681 7.72511292 C-16.92868774 7.06382385 -16.34989868 6.40253479 -15.75357056 5.72120667 C-14.06997681 4.28761292 -14.06997681 4.28761292 -11.06997681 4.28761292 C-11.06997681 3.62761292 -11.06997681 2.96761292 -11.06997681 2.28761292 C-7.23802937 0.51310657 -4.2096762 0.02884623 0 0 Z " fill="#426BBD" transform="translate(327.0699768066406,3.7123870849609375)"/>
<path d="M0 0 C0.98361008 -0.01094193 1.96722015 -0.02188385 2.9806366 -0.03315735 C5.05222361 -0.0489525 7.12391469 -0.05423912 9.19555664 -0.04956055 C12.33724515 -0.05077421 15.47425931 -0.11058041 18.61523438 -0.17382812 C38.40826088 -0.34668481 38.40826088 -0.34668481 46.54296875 7.63671875 C52.30019747 13.81009224 53.85273793 20.32005414 53.77001953 28.56982422 C53.77031158 29.34123245 53.77060364 30.11264069 53.77090454 30.90742493 C53.76951886 33.43970255 53.75399387 35.97168047 53.73828125 38.50390625 C53.73454841 40.26652872 53.73170271 42.02915327 53.72970581 43.79177856 C53.72209073 48.41794624 53.70246057 53.04398718 53.68029785 57.67010498 C53.65979356 62.39593797 53.65069431 67.12179155 53.640625 71.84765625 C53.61921261 81.11073259 53.58510241 90.37371511 53.54296875 99.63671875 C54.4854245 99.63005692 55.42788025 99.62339508 56.39889526 99.61653137 C65.3137261 99.55551506 74.22851414 99.51064806 83.143507 99.48128223 C87.72596873 99.46567704 92.30826085 99.44453365 96.890625 99.41040039 C101.31916071 99.37762227 105.74753406 99.3598271 110.17618179 99.35208702 C111.8593412 99.34657645 113.5424925 99.33581625 115.22558212 99.31952858 C137.83329819 99.10960042 137.83329819 99.10960042 146.0078125 106.8203125 C150.32618961 111.92984267 153.61631317 118.00840015 153.73583984 124.76586914 C153.75190277 125.59425797 153.7679657 126.42264679 153.78451538 127.27613831 C153.82929817 131.0791826 153.87007104 134.88205559 153.89306641 138.68530273 C153.9095654 140.68216658 153.93677463 142.67897286 153.97509766 144.67553711 C154.39085336 166.47017398 154.39085336 166.47017398 148.54296875 173.63671875 C142.92155853 179.35702008 138.06621905 182.48721788 129.90458679 182.75697327 C128.48025627 182.75985262 127.05590796 182.75725815 125.6315918 182.75024414 C124.46006813 182.75046318 124.46006813 182.75046318 123.26487732 182.75068665 C120.69478536 182.74999245 118.12476673 182.74222321 115.5546875 182.734375 C113.76821431 182.73250907 111.98174061 182.73108599 110.19526672 182.73008728 C105.50172504 182.72627591 100.80821448 182.71645742 96.11468506 182.7053833 C90.47869256 182.69333727 84.84268963 182.68876037 79.20668793 182.68292999 C70.65209325 182.67324492 62.09756681 182.6540787 53.54296875 182.63671875 C53.54296875 204.74671875 53.54296875 226.85671875 53.54296875 249.63671875 C67.13806641 249.60191406 67.13806641 249.60191406 81.0078125 249.56640625 C86.75455843 249.55618547 92.50129777 249.54647454 98.24804688 249.5390625 C107.36664079 249.5272069 116.48519767 249.5132885 125.60375977 249.48583984 C132.24550247 249.46585649 138.88721506 249.45299061 145.52898699 249.44854176 C149.04320128 249.44594273 152.55732945 249.43986774 156.07151604 249.42525864 C160.00203904 249.40905247 163.93247906 249.40874223 167.86303711 249.40966797 C169.01822342 249.40247742 170.17340973 249.39528687 171.36360168 249.38787842 C181.89752047 249.4146703 189.61203453 250.39072885 197.54296875 257.63671875 C203.8420154 264.27625441 205.00973903 270.79732741 205.01171875 279.59375 C205.01933228 280.53675461 205.0269458 281.47975922 205.03479004 282.45133972 C205.04555369 284.43896856 205.04845941 286.42665378 205.04394531 288.41430664 C205.04297488 291.43017612 205.08460045 294.4434827 205.12890625 297.45898438 C205.25164318 317.22321954 205.25164318 317.22321954 198.1706543 325.1784668 C190.00674873 332.73620341 182.03331693 333.21628007 171.43530273 333.13842773 C170.01692164 333.14221613 168.59854426 333.14772046 167.18017578 333.15480042 C163.34749819 333.16870335 159.5152721 333.15762257 155.68261981 333.1410892 C151.66203169 333.12718638 147.64146839 333.13370462 143.62086487 333.13722229 C136.87160001 333.13991998 130.12251344 333.12648583 123.37329102 333.10327148 C115.58083933 333.07665368 107.78868542 333.07491969 99.99620384 333.08665985 C92.4847614 333.0974545 84.97342621 333.09123804 77.46199226 333.07710457 C74.27195754 333.07136046 71.0820017 333.07141498 67.89196587 333.07616997 C64.13337683 333.08095704 60.37511217 333.07076698 56.61658478 333.04921532 C54.58671618 333.04103534 52.556805 333.04748042 50.52693176 333.05441284 C42.03098275 332.98533123 36.03476982 332.17932294 29.35546875 326.57421875 C28.40607422 325.81431641 28.40607422 325.81431641 27.4375 325.0390625 C20.80293373 316.62615888 21.03526473 307.23478856 21.29296875 297.01171875 C21.31308051 295.61200495 21.33132296 294.21226299 21.34765625 292.8125 C21.39445157 289.4198396 21.46000512 286.02865491 21.54296875 282.63671875 C20.64054443 282.6524292 19.73812012 282.66813965 18.80834961 282.68432617 C15.43312741 282.73571229 12.05832604 282.77319285 8.68286133 282.80151367 C7.22706507 282.81652188 5.77131343 282.83693508 4.31567383 282.86303711 C2.21294086 282.89977551 0.1108099 282.91652435 -1.9921875 282.9296875 C-3.25426025 282.94539795 -4.51633301 282.9611084 -5.81665039 282.97729492 C-10.05268406 282.5809924 -12.65448387 281.49384454 -16.45703125 279.63671875 C-17.26140625 279.24484375 -18.06578125 278.85296875 -18.89453125 278.44921875 C-19.41015625 278.18109375 -19.92578125 277.91296875 -20.45703125 277.63671875 C-20.45703125 276.97671875 -20.45703125 276.31671875 -20.45703125 275.63671875 C-21.44703125 275.30671875 -22.43703125 274.97671875 -23.45703125 274.63671875 C-29.17261139 267.70874283 -29.75789312 259.51298621 -29.74755859 250.80322266 C-29.75427582 249.971017 -29.76099304 249.13881134 -29.76791382 248.28138733 C-29.7867505 245.55862285 -29.79081045 242.83610664 -29.79296875 240.11328125 C-29.79940571 238.20193383 -29.80613473 236.29058737 -29.81314087 234.37924194 C-29.82507716 230.38333859 -29.82882537 226.38752147 -29.82763672 222.39160156 C-29.82743353 217.29551405 -29.85475227 212.19998417 -29.88918114 207.1040287 C-29.91151983 203.15924587 -29.91547216 199.2145959 -29.91441727 195.26975632 C-29.91676209 193.39205374 -29.92552187 191.51434687 -29.941082 189.63670731 C-30.11699451 166.22182343 -30.11699451 166.22182343 -22.33203125 157.94921875 C-19.45703125 155.63671875 -19.45703125 155.63671875 -17.45703125 155.63671875 C-17.45703125 154.97671875 -17.45703125 154.31671875 -17.45703125 153.63671875 C-5.01797904 147.9963388 8.20425681 149.27809767 21.54296875 149.63671875 C21.54296875 144.02671875 21.54296875 138.41671875 21.54296875 132.63671875 C18.2171875 132.70632812 18.2171875 132.70632812 14.82421875 132.77734375 C12.65301802 132.80862772 10.48184336 132.83286477 8.31054688 132.85644531 C6.81303485 132.87643794 5.31559967 132.90364174 3.81835938 132.93847656 C-6.25535558 133.1668141 -13.42062536 133.03017921 -21.39453125 126.07421875 C-23.45703125 123.63671875 -23.45703125 123.63671875 -24.45703125 120.63671875 C-25.11703125 120.63671875 -25.77703125 120.63671875 -26.45703125 120.63671875 C-30.59007813 111.063938 -29.89313493 100.93110745 -29.85546875 90.7265625 C-29.85749305 88.78943269 -29.86040745 86.85230362 -29.86416626 84.91517639 C-29.86857178 80.8697275 -29.86221518 76.82447829 -29.84814453 72.77905273 C-29.83104229 67.61224212 -29.84091178 62.44589875 -29.85886192 57.27910519 C-29.86973798 53.28378319 -29.86623611 49.28857073 -29.85847855 45.29324532 C-29.85648769 43.38878892 -29.85889631 41.48432235 -29.86591721 39.57987785 C-29.87359623 36.91228003 -29.86183852 34.2454239 -29.84521484 31.57788086 C-29.85128754 30.8030838 -29.85736023 30.02828674 -29.86361694 29.23001099 C-29.77660153 21.63506776 -27.99122516 14.53312953 -22.76953125 8.82421875 C-21.83560547 7.76267578 -21.83560547 7.76267578 -20.8828125 6.6796875 C-14.39809979 1.2183272 -8.33051553 0.01176735 0 0 Z " fill="#5ABDCE" transform="translate(594.45703125,3.36328125)"/>
<path d="M0 0 C1.41366471 -0.00706972 2.82732185 -0.01581914 4.2409668 -0.02610779 C8.05722473 -0.04849411 11.87306584 -0.04568752 15.68936419 -0.03678632 C18.88503357 -0.03165407 22.08062615 -0.03898705 25.27628762 -0.04625839 C32.81984028 -0.06322327 40.3631905 -0.05972617 47.90673828 -0.04296875 C55.66802779 -0.02604969 63.42875474 -0.04188639 71.18998283 -0.07419163 C77.87395918 -0.10095056 84.55776109 -0.10814663 91.24178559 -0.09967655 C95.22491546 -0.09476575 99.20770707 -0.096862 103.19079399 -0.11746407 C106.93806834 -0.13592098 110.68453829 -0.12974231 114.43177032 -0.10526466 C116.44795518 -0.09793082 118.46418354 -0.11503426 120.4803009 -0.13308716 C128.44095668 -0.05057205 134.0745393 1.23877904 140.82641602 5.53344727 C140.82641602 6.19344727 140.82641602 6.85344727 140.82641602 7.53344727 C141.73255394 7.89027084 141.73255394 7.89027084 142.65699768 8.25430298 C146.78480156 10.68816125 148.24999555 15.16949971 149.82641602 19.53344727 C150.45603568 23.07142979 150.5077218 26.48542052 150.45532227 30.07250977 C150.45773422 31.03820892 150.46014618 32.00390808 150.46263123 32.99887085 C150.46165878 35.02411031 150.44841078 37.04937838 150.42333984 39.07446289 C150.38892023 42.15806975 150.40274184 45.23882151 150.42211914 48.32250977 C150.41522218 50.30168851 150.40555115 52.28085994 150.39282227 54.26000977 C150.39778214 55.17166901 150.402742 56.08332825 150.40785217 57.02261353 C150.27119701 64.51322821 148.31414663 69.73475032 143.32641602 75.34594727 C134.75358475 82.84717463 128.23276345 83.97494711 117.00634766 83.87402344 C115.72760773 83.87446152 114.4488678 83.8748996 113.13137817 83.87535095 C109.64210639 83.87620825 106.15314685 83.85862594 102.66394734 83.83762908 C99.01112422 83.81881774 95.35829317 83.81710834 91.70542908 83.81355286 C84.79593828 83.80424543 77.88659066 83.77964942 70.97716278 83.74950439 C61.63501421 83.70963435 52.29282622 83.69349497 42.95061398 83.67599773 C28.24244085 83.64782727 13.53456977 83.58804924 -1.17358398 83.53344727 C-1.17358398 105.31344727 -1.17358398 127.09344727 -1.17358398 149.53344727 C4.28043945 149.49864258 9.73446289 149.46383789 15.35375977 149.42797852 C18.82186952 149.41263864 22.28993708 149.39819598 25.75805664 149.38696289 C31.25529739 149.3690728 36.75238735 149.34797464 42.24951172 149.30712891 C46.68452666 149.27438362 51.11937974 149.25656242 55.5545063 149.24881554 C57.24128324 149.24329914 58.92805195 149.23252729 60.61475945 149.2162571 C69.17671716 149.13699876 76.81949622 149.07959964 84.82641602 152.53344727 C85.81641602 152.86344727 86.80641602 153.19344727 87.82641602 153.53344727 C87.82641602 154.19344727 87.82641602 154.85344727 87.82641602 155.53344727 C88.44516602 155.78094727 89.06391602 156.02844727 89.70141602 156.28344727 C92.17710288 157.73973366 92.77766604 158.91157233 93.82641602 161.53344727 C94.48641602 161.53344727 95.14641602 161.53344727 95.82641602 161.53344727 C99.51350717 170.83132931 100.01283875 179.22137065 100.01171875 189.16357422 C100.01389934 191.3293847 100.03207318 193.49468014 100.05102539 195.66040039 C100.1037025 208.21273315 98.82147668 217.61606958 90.38891602 227.34594727 C85.05708532 231.89751005 80.40515175 232.97235627 73.52612305 232.87402344 C72.71570053 232.87446152 71.90527802 232.8748996 71.07029724 232.87535095 C68.40802398 232.87327121 65.74639093 232.84997906 63.08422852 232.82641602 C61.23192692 232.82081716 59.37962087 232.81654843 57.52731323 232.81355286 C52.6643435 232.80212692 47.80164478 232.77267915 42.93878174 232.73944092 C37.97167628 232.70869145 33.00452682 232.69503711 28.03735352 232.67993164 C18.30025562 232.64780727 8.5633584 232.59663819 -1.17358398 232.53344727 C-1.16248093 233.54076401 -1.15137787 234.54808075 -1.13993835 235.58592224 C-1.03833865 245.10436327 -0.96351161 254.62269349 -0.91452312 264.14155483 C-0.88849029 269.03470494 -0.85320825 273.92741538 -0.79638672 278.8203125 C-0.74184086 283.54712779 -0.71211601 288.27352165 -0.69919777 293.00062752 C-0.68999825 294.79908947 -0.67203378 296.59752979 -0.6449337 298.39581108 C-0.36862314 317.50027314 -0.36862314 317.50027314 -7.92948914 325.35838318 C-14.5136941 331.66186791 -21.17026345 332.99273906 -29.98217773 332.93188477 C-30.90772964 332.93475494 -31.83328156 332.93762512 -32.78688049 332.94058228 C-34.73585627 332.94261521 -36.68485282 332.93713953 -38.63378906 332.92456055 C-41.59869563 332.90851431 -44.56223537 332.92442619 -47.52709961 332.94360352 C-49.4287953 332.94162059 -51.33049014 332.9377759 -53.23217773 332.93188477 C-54.10950058 332.93795746 -54.98682343 332.94403015 -55.89073181 332.95028687 C-63.13373895 332.86852271 -69.62508902 331.49284896 -75.17358398 326.47094727 C-76.03983398 325.71104492 -76.03983398 325.71104492 -76.92358398 324.93579102 C-78.17358398 323.53344727 -78.17358398 323.53344727 -78.17358398 321.53344727 C-78.83358398 321.53344727 -79.49358398 321.53344727 -80.17358398 321.53344727 C-84.80087269 311.06515479 -84.76193406 301.17544617 -84.70483398 289.97094727 C-84.70753514 288.0887024 -84.71142272 286.2064589 -84.71643066 284.32421875 C-84.7222964 280.39740592 -84.71385784 276.47095938 -84.69506836 272.54418945 C-84.67228062 267.54126315 -84.68541951 262.53919555 -84.70935822 257.53630066 C-84.72389577 253.65492423 -84.71917396 249.77374734 -84.70884705 245.8923645 C-84.70620168 244.04899999 -84.70937126 242.20561664 -84.71876526 240.36227417 C-84.75976164 230.05985432 -84.4212885 221.14300829 -80.17358398 211.53344727 C-79.51358398 211.53344727 -78.85358398 211.53344727 -78.17358398 211.53344727 C-77.96733398 210.97657227 -77.76108398 210.41969727 -77.54858398 209.84594727 C-74.33581761 204.44265835 -70.03635803 202.18114941 -64.17358398 200.53344727 C-60.64672852 200.30639648 -60.64672852 200.30639648 -56.80639648 200.33813477 C-56.12680878 200.34096466 -55.44722107 200.34379456 -54.74703979 200.34671021 C-52.59736791 200.35781762 -50.44812785 200.38290336 -48.29858398 200.40844727 C-46.83244421 200.41848932 -45.36629784 200.42761302 -43.90014648 200.43579102 C-40.32432941 200.45601623 -36.74943445 200.49518014 -33.17358398 200.53344727 C-33.17358398 194.59344727 -33.17358398 188.65344727 -33.17358398 182.53344727 C-35.26959961 182.55665039 -37.36561523 182.57985352 -39.52514648 182.60375977 C-41.57055049 182.61938778 -43.61594767 182.63151453 -45.66137695 182.64331055 C-47.07547008 182.65332583 -48.48954272 182.666942 -49.90356445 182.68432617 C-51.94414344 182.70877285 -53.98444701 182.7199751 -56.02514648 182.72875977 C-57.25056152 182.7392334 -58.47597656 182.74970703 -59.73852539 182.76049805 C-67.20257007 182.26713902 -72.50601657 179.13750117 -77.79858398 173.97094727 C-85.48297164 163.89814156 -84.7503483 151.96433367 -84.66967773 139.96313477 C-84.669833 138.07227523 -84.67132659 136.18141539 -84.67408752 134.29055786 C-84.67546546 130.34517186 -84.66301311 126.40015207 -84.64013672 122.45483398 C-84.61171492 117.416942 -84.61450824 112.37965577 -84.62722683 107.34171867 C-84.63420507 103.44331758 -84.62637092 99.54505472 -84.6139698 95.6466713 C-84.60947889 93.78966935 -84.60909768 91.93265246 -84.6130352 90.07564926 C-84.61596963 87.47517563 -84.59933645 84.8755167 -84.57763672 82.27514648 C-84.58213837 81.52062195 -84.58664001 80.76609741 -84.59127808 79.9887085 C-84.4671009 70.96070609 -81.51307459 63.028595 -75.17358398 56.53344727 C-69.23825684 52.00326386 -64.61068412 50.40513257 -57.09936523 50.43579102 C-56.07361641 50.43791344 -56.07361641 50.43791344 -55.02714539 50.44007874 C-52.84674677 50.4456685 -50.66645148 50.45821905 -48.48608398 50.47094727 C-47.00626776 50.47596359 -45.52644993 50.48052627 -44.04663086 50.48461914 C-40.42224842 50.49563456 -36.79792629 50.51289214 -33.17358398 50.53344727 C-33.18929443 49.6968457 -33.20500488 48.86024414 -33.22119141 47.99829102 C-33.27267404 44.85980567 -33.31010506 41.72153738 -33.33837891 38.58276367 C-33.36067806 36.57008478 -33.39882051 34.55760143 -33.43725586 32.54516602 C-33.51722935 21.93534979 -32.16309352 14.15297904 -24.78618717 6.00011349 C-17.78438903 -0.36803765 -8.9316791 -0.04456915 0 0 Z " fill="#7BBD01" transform="translate(88.173583984375,3.466552734375)"/>
</svg>
