<svg xmlns="http://www.w3.org/2000/svg" viewBox="0 0 24 24" version="1.1">
	<path d="M6.72 1.043784C3.74244 1.40508 1.392864 3.76428 1.0431840000000001 6.743856000000001C0.990576 7.1922239999999995 0.990576 16.807776 1.0431840000000001 17.256144C1.370304 20.043432000000003 3.448992 22.305504 6.204 22.87224C6.797112 22.994256 6.68772 22.992 12 22.992C16.215552000000002 22.992 17.001528 22.98672 17.258928 22.9566C18.704784 22.787472 20.06172 22.1292 21.095472 21.095472C22.1292 20.06172 22.787472 18.704784 22.9566 17.258928C23.0094 16.807464 23.009591999999998 7.193688000000001 22.956816 6.743856000000001C22.62972 3.9567840000000003 20.550816 1.694472 17.796 1.12776C17.201496000000002 1.005456 17.31876 1.007808 11.964144 1.010592C8.081304 1.012632 6.916008 1.02 6.72 1.043784M7.164000000000001 2.0172480000000004C6.09744 2.0788800000000003 5.080176000000001 2.451792 4.2 3.103824C3.909408 3.3190799999999996 3.324528 3.9043440000000005 3.1045439999999997 4.2C2.438832 5.09472 2.0821199999999997 6.0833520000000005 2.015664 7.21788C1.9867679999999999 7.710864 1.9867679999999999 16.289136000000003 2.015664 16.78212C2.0821199999999997 17.916456 2.4382800000000002 18.90372 3.1043520000000004 19.8C3.3221760000000002 20.093088 3.906912 20.677824 4.2 20.895648C5.09628 21.56172 6.083544 21.91788 7.21788 21.984336C7.710864 22.013232 16.289136000000003 22.013232 16.78212 21.984336C17.916456 21.91788 18.90372 21.56172 19.8 20.895648C20.093088 20.677824 20.677824 20.093088 20.895648 19.8C21.560807999999998 18.904968 21.917976 17.914896 21.984336 16.78212C22.013232 16.289136000000003 22.013232 7.710864 21.984336 7.21788C21.91788 6.083544 21.56172 5.09628 20.895648 4.2C20.677824 3.906912 20.093088 3.3221760000000002 19.8 3.1043520000000004C18.90372 2.4382800000000002 17.916456 2.0821199999999997 16.78212 2.015664C16.335168 1.98948 7.619736 1.99092 7.164000000000001 2.0172480000000004M17.809512 5.018256C17.5332 5.066184000000001 17.238216 5.289096 17.106672 5.549352000000001C17.018184 5.724408 16.984152 5.956536 17.016863999999998 6.162C17.05044 6.372864 17.140512 6.547128000000001 17.296704000000002 6.703296C17.452872 6.859488000000001 17.627136 6.94956 17.838 6.983136C18.164712 7.035144 18.470280000000002 6.936311999999999 18.703295999999998 6.703296C18.859488 6.547128000000001 18.94956 6.372864 18.983136000000002 6.162C19.034760000000002 5.837664 18.935256000000003 5.526768000000001 18.707784 5.301624C18.458952 5.055312 18.15276 4.958736 17.809512 5.018256M11.364 6.530448C8.796192 6.839784 6.790896 8.876904 6.525744 11.445408C6.486432 11.826312 6.509832 12.55848 6.572640000000001 12.912C6.675384 13.490256000000002 6.8116319999999995 13.908696 7.068887999999999 14.436C7.761456 15.855528000000001 9.095088 16.940231999999998 10.622424 17.326296C11.158631999999999 17.461824 11.33424 17.481888 11.988 17.482272000000002C12.646872 17.482656 12.852936 17.459616 13.3752 17.327136000000003C15.29412 16.840439999999997 16.840439999999997 15.29412 17.327136000000003 13.3752C17.45844 12.857591999999999 17.482319999999998 12.645816 17.482319999999998 12C17.482319999999998 11.354184 17.45844 11.142408 17.327136000000003 10.6248C16.938576 9.092856000000001 15.85644 7.761912000000001 14.436 7.068887999999999C13.914864 6.814632 13.43712 6.660744 12.864 6.562512C12.591287999999999 6.515784 11.652432 6.495696 11.364 6.530448M11.376 7.54716C10.617096 7.658352000000001 9.911159999999999 7.9512480000000005 9.3 8.408496C9.0534 8.593008 8.593008 9.0534 8.408496 9.3C7.812288000000001 10.096919999999999 7.512887999999999 10.999512 7.512887999999999 12C7.512887999999999 12.998904 7.813224 13.904352 8.408496 14.700000000000001C8.593008 14.9466 9.0534 15.406991999999999 9.3 15.591503999999999C10.095648 16.186776 11.001096 16.487112 12 16.487112C12.998904 16.487112 13.904352 16.186776 14.700000000000001 15.591503999999999C14.9466 15.406991999999999 15.406991999999999 14.9466 15.591503999999999 14.700000000000001C16.186776 13.904352 16.487112 12.998904 16.487112 12C16.487112 11.001096 16.186776 10.095648 15.591503999999999 9.3C15.406991999999999 9.0534 14.9466 8.593008 14.700000000000001 8.408496C14.207160000000002 8.039784 13.601952 7.7563439999999995 13.015584 7.61964C12.559415999999999 7.51332 11.827728 7.480968 11.376 7.54716" stroke="none" fill="#d24f58" fill-rule="evenodd" stroke-width="0.024"></path>
</svg>