<svg version="1.1" id="Layer_1" xmlns="http://www.w3.org/2000/svg" xmlns:xlink="http://www.w3.org/1999/xlink" x="0px" y="0px"
	 width="100%" viewBox="0 0 200 200" enable-background="new 0 0 200 200" xml:space="preserve">
<path fill="#6B9153" opacity="1.000000" stroke="none" 
	d="
M160.000000,201.000000 
	C158.611008,201.000000 157.222000,201.000000 155.170105,200.782745 
	C153.669510,200.329376 152.831802,200.093277 151.831940,199.574036 
	C146.825867,195.739182 141.986862,192.180725 137.135361,188.639435 
	C135.442505,187.403763 133.718796,186.210358 131.909882,184.667297 
	C124.914047,176.817703 117.982994,169.329758 111.132439,161.768890 
	C106.076744,156.188965 101.126076,150.513901 96.580635,144.902527 
	C106.635544,146.160355 114.354286,143.102859 121.089417,135.934006 
	C127.200645,129.429230 134.292358,123.845604 141.103271,118.144470 
	C141.541214,119.018387 141.827682,119.603699 142.086029,120.540344 
	C142.224579,123.037956 142.405655,125.183220 142.555405,127.330658 
	C143.286301,137.812347 151.581711,145.143204 162.326004,144.793411 
	C172.864044,144.450333 179.874741,137.390961 180.149948,126.743271 
	C180.449951,115.137077 180.676071,103.528984 181.120056,92.235077 
	C184.180389,101.388168 187.055069,110.227898 189.944733,119.399078 
	C190.001663,120.171402 190.043625,120.612282 190.204163,121.267288 
	C190.498428,121.762299 190.706711,122.016464 190.923019,122.433914 
	C190.898438,122.623886 190.913605,123.006699 190.934906,123.406845 
	C191.633194,126.544136 192.310181,129.281296 192.980988,132.018051 
	C192.974823,132.017654 192.974915,132.036575 192.978760,132.408493 
	C193.316910,134.195374 193.651199,135.610321 193.992615,137.376022 
	C194.306900,138.839401 194.614044,139.952026 194.928406,141.440430 
	C194.988998,142.565933 195.042343,143.315643 195.213043,144.270599 
	C195.505569,144.743027 195.710770,144.984741 195.919769,145.402985 
	C195.893509,145.604980 195.899200,146.012360 195.905029,146.450562 
	C196.929520,152.934067 197.948166,158.979370 198.951324,165.403076 
	C198.819061,166.525635 198.702301,167.269791 198.449768,168.138397 
	C198.161224,168.465439 198.083832,168.693573 198.030167,169.322556 
	C195.048828,178.391129 190.314651,186.102524 182.439529,190.776505 
	C175.412445,194.947189 167.513947,197.649643 160.000000,201.000000 
z"/>
<path fill="#8EC04C" opacity="1.000000" stroke="none" 
	d="
M41.000000,1.000000 
	C41.000000,1.000000 41.500000,1.000000 42.096947,1.190052 
	C45.131500,1.604573 47.569107,1.829042 50.223221,2.361009 
	C55.377407,4.511096 60.273838,5.378613 65.447441,2.043487 
	C68.935211,2.040455 71.968430,2.046847 75.137177,2.391603 
	C78.358131,3.889054 81.443565,5.048141 84.398628,6.158248 
	C81.265884,7.771072 78.132507,9.384222 74.582626,10.997623 
	C72.777786,10.999256 71.389450,11.000636 69.599609,11.006409 
	C60.715530,15.006208 52.189972,18.915722 43.807037,23.110279 
	C42.806309,23.611010 42.582275,25.663979 41.748627,26.997927 
	C41.499023,26.998396 40.999821,26.999735 40.624847,26.999640 
	C39.499912,26.999746 38.749958,26.999947 37.732811,27.122059 
	C36.976791,27.829142 36.487965,28.414312 35.664265,29.122654 
	C34.552486,31.163469 33.775578,33.081116 32.782818,35.228989 
	C31.377871,36.639355 30.188776,37.819500 28.667566,39.096252 
	C26.223520,41.128391 24.111591,43.063919 21.701910,45.131756 
	C20.602875,46.509327 19.801590,47.754593 18.862555,49.337234 
	C17.886717,51.814308 17.114239,53.982555 16.197714,56.088108 
	C13.846848,61.488819 11.022528,66.724411 9.158695,72.284538 
	C7.320352,77.768631 7.057318,78.175087 2.040493,74.533005 
	C2.021679,66.949738 2.117951,59.832783 1.958664,52.721550 
	C1.878492,49.142338 1.334339,45.573521 1.000000,42.000000 
	C1.000000,41.250000 1.000000,40.500000 1.354259,39.254025 
	C2.122551,37.862495 2.690916,37.005718 2.927146,36.065491 
	C5.830718,24.508884 12.027169,15.134171 22.340399,9.153246 
	C28.174322,5.769993 34.755432,3.675158 41.000000,1.000000 
z"/>
<path fill="#8EC04C" opacity="1.000000" stroke="none" 
	d="
M43.000000,201.000000 
	C42.555664,201.000000 42.111328,201.000000 41.176498,200.647278 
	C23.025879,196.546295 10.304980,186.892685 4.003036,169.583557 
	C2.966094,166.735458 1.999243,163.861832 0.999999,161.000000 
	C1.000000,161.000000 1.000000,160.500000 1.209996,159.893555 
	C1.630939,147.856247 1.841886,136.425400 2.328570,124.834267 
	C3.554280,123.409576 4.504254,122.145157 5.725541,120.519623 
	C6.273683,121.479156 6.749142,121.979111 6.856625,122.548515 
	C9.183309,134.874420 12.413886,146.786667 21.666813,156.056686 
	C22.239311,156.630249 22.476269,157.531647 23.030535,158.131577 
	C29.157846,164.763809 34.541115,172.415955 41.677788,177.693115 
	C49.388935,183.395065 58.745632,186.872131 67.389694,191.309677 
	C67.678246,191.457825 68.024887,191.582947 68.340637,191.574600 
	C74.128761,191.421432 75.861771,195.918869 77.524704,199.970703 
	C68.617554,199.986801 60.177200,199.911575 51.740261,200.047791 
	C48.822479,200.094894 45.913177,200.667450 43.000000,201.000000 
z"/>
<path fill="#8EC04C" opacity="1.000000" stroke="none" 
	d="
M201.000000,45.000000 
	C201.000000,45.750000 201.000000,46.500000 200.816772,47.994499 
	C200.423904,54.786694 200.026321,60.835587 200.064972,66.881691 
	C200.095062,71.589592 200.668198,76.294029 201.000000,81.000000 
	C201.000000,82.066521 201.000000,83.133034 200.639191,84.552589 
	C198.610474,82.843155 196.318085,81.022148 195.407364,78.666893 
	C193.626114,74.060310 192.706100,69.128288 191.269882,64.379280 
	C187.101593,50.596226 177.630127,40.339066 168.220520,30.064798 
	C167.706131,29.503139 166.750732,29.345385 165.824829,28.842129 
	C165.420288,28.468086 165.203934,28.239767 164.878052,27.732544 
	C164.170746,26.977016 163.585373,26.488625 162.709015,25.874300 
	C161.612427,25.498613 160.806824,25.248857 159.893280,24.674051 
	C155.501801,21.311274 151.432297,17.887154 146.866898,15.358266 
	C143.224045,13.340397 138.976898,12.413465 134.615051,10.988513 
	C132.488068,10.649656 130.744034,10.324572 128.822769,9.686224 
	C124.805969,8.150587 120.966393,6.928213 116.616066,5.543232 
	C120.127739,4.233432 123.060631,3.139512 126.370049,2.040123 
	C127.499687,2.038943 128.252792,2.043231 129.185364,2.331473 
	C131.456436,4.558641 133.336273,4.403087 135.463028,2.037987 
	C143.621292,1.685708 151.310654,1.342854 159.000000,1.000000 
	C159.000000,1.000000 159.500000,1.000000 159.927216,1.351706 
	C182.197647,5.097270 199.023270,22.176023 200.041412,42.296761 
	C200.371002,43.414261 200.685501,44.207130 201.000000,45.000000 
z"/>
<path fill="#FFFFFF" opacity="1.000000" stroke="none" 
	d="
M0.999999,161.468658 
	C1.999243,163.861832 2.966094,166.735458 4.003036,169.583557 
	C10.304980,186.892685 23.025879,196.546295 40.843002,200.647278 
	C27.740011,201.000000 14.480022,201.000000 1.000000,201.000000 
	C1.000000,187.979935 1.000000,174.958618 0.999999,161.468658 
z"/>
<path fill="#8FC14E" opacity="1.000000" stroke="none" 
	d="
M166.000610,28.999619 
	C166.750732,29.345385 167.706131,29.503139 168.220520,30.064798 
	C177.630127,40.339066 187.101593,50.596226 191.269882,64.379280 
	C192.706100,69.128288 193.626114,74.060310 195.407364,78.666893 
	C196.318085,81.022148 198.610474,82.843155 200.639191,84.952812 
	C201.000000,98.687561 201.000000,112.375122 200.743683,126.528564 
	C200.316498,126.995178 200.145599,126.995911 199.635193,127.082794 
	C197.188766,128.791489 195.081833,130.414032 192.974915,132.036575 
	C192.974915,132.036575 192.974823,132.017654 193.003052,131.606750 
	C193.354172,128.464005 193.677078,125.732155 194.000153,122.559967 
	C194.029831,120.630936 193.680145,119.008514 194.150314,117.675209 
	C197.243576,108.903297 195.690140,100.037994 195.020828,91.165878 
	C194.813080,88.412254 194.289978,86.215828 191.005920,85.580872 
	C191.003616,83.776207 191.002106,82.387993 191.279144,80.836433 
	C191.852051,79.789345 192.602997,78.758934 192.373199,78.043579 
	C187.985474,64.384689 184.889786,49.985794 171.844864,40.695999 
	C170.126694,38.261295 168.563644,36.130596 167.113068,33.743484 
	C166.817215,31.991251 166.408920,30.495434 166.000610,28.999619 
z"/>
<path fill="#FFFFFF" opacity="1.000000" stroke="none" 
	d="
M160.468658,201.000000 
	C167.513947,197.649643 175.412445,194.947189 182.439529,190.776505 
	C190.314651,186.102524 195.048828,178.391129 198.211487,169.229446 
	C198.697540,168.551086 198.744568,168.302063 198.585541,168.013962 
	C198.702301,167.269791 198.819061,166.525635 199.211945,165.243378 
	C199.992035,164.136841 200.496017,163.568420 201.000000,163.000000 
	C201.000000,175.596100 201.000000,188.192200 201.000000,201.000000 
	C187.646515,201.000000 174.291916,201.000000 160.468658,201.000000 
z"/>
<path fill="#FFFFFF" opacity="1.000000" stroke="none" 
	d="
M200.026321,41.972134 
	C199.023270,22.176023 182.197647,5.097270 160.177216,1.351706 
	C173.593338,1.000000 187.186661,1.000000 201.000000,1.000000 
	C201.000000,14.353423 201.000000,27.708054 200.756134,41.540123 
	C200.512253,42.017567 200.026321,41.972134 200.026321,41.972134 
z"/>
<path fill="#FFFFFF" opacity="1.000000" stroke="none" 
	d="
M40.531342,1.000000 
	C34.755432,3.675158 28.174322,5.769993 22.340399,9.153246 
	C12.027169,15.134171 5.830718,24.508884 2.927146,36.065491 
	C2.690916,37.005718 2.122551,37.862495 1.354259,38.879025 
	C1.000000,26.404808 1.000000,13.809617 1.000000,1.000000 
	C14.020110,1.000000 27.041397,1.000000 40.531342,1.000000 
z"/>
<path fill="#A0D065" opacity="1.000000" stroke="none" 
	d="
M2.052834,124.994545 
	C1.841886,136.425400 1.630939,147.856247 1.209996,159.643555 
	C1.000000,120.979103 1.000000,81.958214 1.000000,42.468658 
	C1.334339,45.573521 1.878492,49.142338 1.958664,52.721550 
	C2.117951,59.832783 2.021679,66.949738 2.026223,75.001030 
	C2.031902,92.290009 2.042368,108.642273 2.052834,124.994545 
z"/>
<path fill="#A0D065" opacity="1.000000" stroke="none" 
	d="
M158.531342,1.000000 
	C151.310654,1.342854 143.621292,1.685708 135.035828,2.024429 
	C132.428421,2.029371 130.717163,2.038445 129.005890,2.047520 
	C128.252792,2.043231 127.499687,2.038943 125.902634,2.026682 
	C108.373001,2.030219 91.687332,2.041729 75.001656,2.053240 
	C71.968430,2.046847 68.935211,2.040455 64.982727,2.028605 
	C59.377880,2.033268 54.692295,2.043390 50.006714,2.053511 
	C47.569107,1.829042 45.131500,1.604573 42.346947,1.190052 
	C80.687561,1.000000 119.375122,1.000000 158.531342,1.000000 
z"/>
<path fill="#8CBE4A" opacity="1.000000" stroke="none" 
	d="
M192.978760,132.408493 
	C195.081833,130.414032 197.188766,128.791489 199.552368,127.484680 
	C200.206039,133.200287 200.603012,138.600143 201.000000,144.000000 
	C201.000000,144.750000 201.000000,145.500000 200.627289,146.611603 
	C198.802780,146.652924 197.350983,146.332642 195.899200,146.012360 
	C195.899200,146.012360 195.893509,145.604980 195.796448,145.197571 
	C195.521500,144.529114 195.320282,144.287521 195.095703,144.065369 
	C195.042343,143.315643 194.988998,142.565933 195.063293,141.191376 
	C194.789139,139.386139 194.387314,138.205704 193.985489,137.025284 
	C193.651199,135.610321 193.316910,134.195374 192.978760,132.408493 
z"/>
<path fill="#8EBA57" opacity="1.000000" stroke="none" 
	d="
M195.905029,146.450562 
	C197.350983,146.332642 198.802780,146.652924 200.627289,146.986603 
	C201.000000,150.361282 201.000000,153.722580 200.850098,157.776306 
	C200.800110,159.312515 200.900055,160.156250 201.000000,161.000000 
	C201.000000,161.444443 201.000000,161.888901 201.000000,162.666672 
	C200.496017,163.568420 199.992035,164.136841 199.227448,164.864990 
	C197.948166,158.979370 196.929520,152.934067 195.905029,146.450562 
z"/>
<path fill="#A0D065" opacity="1.000000" stroke="none" 
	d="
M43.468658,201.000000 
	C45.913177,200.667450 48.822479,200.094894 51.740261,200.047791 
	C60.177200,199.911575 68.617554,199.986801 77.902214,199.978088 
	C79.502151,199.959152 80.256439,199.941162 81.366608,199.902405 
	C82.192848,199.809860 82.663200,199.738113 83.488487,199.705872 
	C84.547302,199.861252 85.251175,199.977127 85.965836,200.319794 
	C85.976608,200.546555 86.000000,201.000000 86.000000,201.000000 
	C71.979103,201.000000 57.958210,201.000000 43.468658,201.000000 
z"/>
<path fill="#8BB36D" opacity="1.000000" stroke="none" 
	d="
M151.994110,199.857178 
	C152.831802,200.093277 153.669510,200.329376 154.753601,200.782745 
	C140.979111,201.000000 126.958214,201.000000 112.460304,200.776123 
	C111.983292,200.552261 111.966415,200.104523 112.437515,200.071045 
	C125.937111,199.977432 138.965607,199.917297 151.994110,199.857178 
z"/>
<path fill="#99CA5B" opacity="1.000000" stroke="none" 
	d="
M201.000000,80.531342 
	C200.668198,76.294029 200.095062,71.589592 200.064972,66.881691 
	C200.026321,60.835587 200.423904,54.786694 200.816772,48.369499 
	C201.000000,58.687561 201.000000,69.375122 201.000000,80.531342 
z"/>
<path fill="#94BD73" opacity="1.000000" stroke="none" 
	d="
M111.966415,200.104523 
	C111.966415,200.104523 111.983292,200.552261 111.991646,200.776123 
	C103.645767,201.000000 95.291534,201.000000 86.468651,201.000000 
	C86.000000,201.000000 85.976608,200.546555 86.438454,200.292221 
	C95.255669,200.060089 103.611046,200.082306 111.966415,200.104523 
z"/>
<path fill="#99CA5B" opacity="1.000000" stroke="none" 
	d="
M201.000000,143.532394 
	C200.603012,138.600143 200.206039,133.200287 199.891876,127.398537 
	C200.145599,126.995911 200.316498,126.995178 200.743683,126.997223 
	C201.000000,132.354935 201.000000,137.709854 201.000000,143.532394 
z"/>
<path fill="#99CA5B" opacity="1.000000" stroke="none" 
	d="
M201.000000,160.625000 
	C200.900055,160.156250 200.800110,159.312515 200.850098,158.234375 
	C201.000000,158.750000 201.000000,159.500000 201.000000,160.625000 
z"/>
<path fill="#99CA5B" opacity="1.000000" stroke="none" 
	d="
M200.041412,42.296761 
	C200.026321,41.972134 200.512253,42.017567 200.756134,42.008781 
	C201.000000,42.750000 201.000000,43.500000 201.000000,44.625000 
	C200.685501,44.207130 200.371002,43.414261 200.041412,42.296761 
z"/>
<path fill="#FDFEFB" opacity="1.000000" stroke="none" 
	d="
M140.951797,117.855865 
	C134.292358,123.845604 127.200645,129.429230 121.089417,135.934006 
	C114.354286,143.102859 106.635544,146.160355 96.567398,144.927277 
	C96.102142,144.930710 96.145828,144.896286 96.075691,144.667694 
	C95.906219,144.107681 95.694206,143.882263 95.151855,143.510971 
	C93.416054,142.374832 91.897911,141.490540 90.187279,140.744812 
	C89.994789,140.883392 90.384727,140.618530 90.255127,140.351257 
	C89.406662,139.414154 88.687813,138.744293 87.918472,137.831970 
	C87.727829,137.266586 87.491760,137.046646 87.082031,136.555283 
	C82.117584,125.524139 83.911125,117.508224 92.416290,109.804710 
	C101.391907,101.675079 110.124908,93.277588 119.293175,84.913574 
	C126.076698,78.885178 132.530945,72.940308 139.218567,66.921478 
	C139.762772,66.691391 139.966782,66.446335 140.362762,65.971954 
	C142.153137,64.260063 143.644684,62.688560 145.083420,61.063354 
	C145.030594,61.009647 145.111679,61.135853 145.424698,61.073868 
	C146.602493,60.403080 147.467270,59.794277 148.671783,59.045731 
	C153.629242,58.337109 158.246979,57.768227 162.902039,57.182743 
	C162.939362,57.166142 162.859467,57.148991 163.109161,57.384117 
	C164.874817,58.149277 166.390778,58.679317 168.107483,59.472107 
	C175.516647,64.667114 177.486893,71.836212 176.790619,80.340401 
	C175.049530,85.925430 172.205887,90.271484 166.970306,93.140274 
	C164.715103,95.273651 162.849243,97.407272 160.904892,99.855545 
	C154.201538,106.065414 147.576675,111.960640 140.951797,117.855865 
z"/>
<path fill="#739B54" opacity="1.000000" stroke="none" 
	d="
M87.159767,136.929672 
	C87.491760,137.046646 87.727829,137.266586 87.971252,138.156067 
	C88.844589,139.354599 89.614662,139.986557 90.384727,140.618530 
	C90.384727,140.618530 89.994789,140.883392 90.212212,141.082642 
	C91.615898,142.521652 92.802162,143.761414 94.348274,144.987244 
	C95.187355,144.947632 95.666588,144.921967 96.145828,144.896301 
	C96.145828,144.896286 96.102142,144.930710 96.115372,144.905975 
	C101.126076,150.513901 106.076744,156.188965 111.132439,161.768890 
	C117.982994,169.329758 124.914047,176.817703 131.519913,184.814331 
	C123.788216,187.315338 115.205894,183.676041 108.601685,189.851959 
	C98.464821,189.311081 87.251686,193.125793 80.032631,183.049011 
	C77.113655,184.475037 74.455948,185.773422 71.510635,186.996063 
	C70.487793,186.591095 69.752563,186.261856 68.866615,185.694397 
	C68.174194,184.941757 67.632500,184.427338 66.908531,183.658646 
	C65.531639,182.252594 64.337013,181.100830 63.024574,179.630341 
	C60.952614,177.190582 58.998463,175.069504 57.027870,172.975723 
	C57.011429,173.003021 57.054646,172.951889 56.902237,172.652008 
	C52.520035,168.211029 48.290241,164.069916 44.029472,159.950027 
	C43.998501,159.971252 44.070679,159.952789 43.982742,159.640808 
	C42.942059,158.183182 41.989315,157.037552 40.854965,155.617340 
	C37.407276,151.898163 34.141190,148.453568 30.930847,144.604370 
	C31.006159,143.928162 31.025728,143.656586 31.432831,143.569977 
	C39.370956,146.299622 46.354412,145.486267 52.504284,140.138275 
	C56.718029,136.473969 60.856918,132.723572 65.397369,128.994507 
	C67.086472,127.546494 68.407463,126.115616 69.777634,124.756195 
	C69.826813,124.827660 69.694351,124.715599 70.064331,124.717384 
	C71.934608,123.115326 73.434898,121.511482 75.039047,119.681656 
	C75.375237,119.196587 75.664055,119.045418 76.391861,118.995239 
	C81.611412,117.666641 83.425049,119.658844 83.046478,124.460373 
	C82.841721,127.057465 82.579163,129.831024 83.274590,132.257935 
	C83.785233,134.039963 85.809860,135.388138 87.159767,136.929672 
z"/>
<path fill="#95C458" opacity="1.000000" stroke="none" 
	d="
M176.987549,80.059883 
	C177.486893,71.836212 175.516647,64.667114 167.951675,59.146542 
	C166.016571,58.088478 164.438019,57.618736 162.859467,57.148994 
	C162.859467,57.148991 162.939362,57.166142 162.839752,56.889107 
	C162.592743,54.873981 162.445358,53.135895 162.281067,51.198547 
	C160.870132,51.131847 159.437088,51.064102 157.987778,50.620232 
	C157.263184,48.609715 156.852325,46.745705 155.797287,45.378952 
	C149.847061,37.670757 141.833725,32.379078 133.080917,28.781874 
	C113.663559,20.801775 93.757851,20.269274 73.732925,26.919662 
	C60.348209,31.364798 50.289738,40.101112 41.048092,50.495995 
	C29.127872,63.903698 22.218319,78.858025 23.003639,97.335098 
	C23.004341,98.112030 23.005070,98.556000 22.659863,99.038658 
	C20.814039,99.810219 19.314152,100.543083 18.407513,100.986084 
	C19.209295,103.581032 19.501183,105.599243 20.441261,107.247833 
	C21.278540,108.716141 22.833267,109.775337 23.959719,111.342346 
	C23.252426,113.139244 22.656775,114.608887 21.974628,116.392166 
	C21.735228,116.859612 21.582315,117.013435 21.308733,117.330978 
	C21.085396,117.764420 21.063229,118.040741 21.188156,118.493515 
	C21.254753,118.663338 21.186569,119.021736 21.077463,119.115356 
	C20.816019,119.487709 20.840036,119.751114 21.015537,120.418808 
	C20.794458,121.938995 20.598253,123.039566 20.278147,124.424774 
	C20.304073,126.127686 20.453899,127.545944 20.696842,129.300140 
	C20.821264,130.099411 20.852568,130.562759 20.783096,131.281448 
	C21.205948,132.653290 21.729574,133.769806 22.218565,134.881973 
	C22.183929,134.877640 22.200121,134.809738 22.243591,135.106964 
	C22.612219,135.898209 22.937376,136.392197 23.223162,136.883835 
	C23.183790,136.881470 23.189795,136.802811 23.249390,137.098297 
	C23.848227,137.940948 24.387470,138.488098 24.956007,139.024933 
	C24.985300,139.014618 24.964268,139.073059 24.958490,139.393356 
	C24.967558,140.140610 24.982405,140.567551 24.599525,140.995224 
	C22.132118,140.331741 20.062433,139.667557 18.122536,138.660110 
	C17.161610,132.867661 16.658236,127.211060 14.826313,122.023643 
	C12.703631,116.012901 10.215473,110.324303 11.661396,103.712135 
	C12.107120,101.673859 11.495605,99.426163 11.583510,97.283188 
	C11.752057,93.174332 11.361482,88.862595 12.490626,85.012726 
	C14.482986,78.219704 17.010708,71.503578 20.072369,65.118759 
	C30.874216,42.592468 47.070923,25.780531 71.607536,18.344515 
	C76.272255,16.930830 81.098778,16.014208 85.889000,15.061019 
	C91.559738,13.932621 97.239296,12.442419 102.972664,12.113387 
	C118.327705,11.232183 131.762665,17.236235 144.848648,24.503761 
	C155.374222,30.349327 165.732697,36.113255 171.399521,47.600109 
	C172.214584,49.252274 175.081848,49.892029 176.999695,51.000153 
	C177.000000,51.000000 176.999390,51.000687 176.873718,51.315186 
	C175.223267,53.978352 174.948761,55.704109 177.697525,57.832829 
	C179.898575,59.537376 181.419617,62.399075 182.638123,65.027397 
	C184.432343,68.897530 185.500137,73.102745 187.266586,76.988274 
	C187.983765,78.565773 189.723251,79.678520 190.998779,81.001526 
	C191.000000,81.000298 191.000610,80.999786 191.000610,80.999786 
	C191.002106,82.387993 191.003616,83.776207 191.005814,86.011398 
	C191.853622,97.635117 192.122284,108.392517 189.929749,119.067635 
	C187.055069,110.227898 184.180389,101.388168 180.934433,91.954430 
	C180.369614,90.480362 180.176071,89.600296 179.936264,88.367523 
	C178.922516,85.363167 177.955032,82.711525 176.987549,80.059883 
M170.398056,56.488903 
	C170.837234,56.430046 171.276428,56.371185 171.715607,56.312328 
	C171.653580,56.035713 171.591568,55.759098 171.529541,55.482479 
	C171.072617,55.715405 170.615677,55.948334 170.398056,56.488903 
z"/>
<path fill="#FCFDFB" opacity="1.000000" stroke="none" 
	d="
M179.982529,88.720230 
	C180.176071,89.600296 180.369614,90.480362 180.748779,91.641068 
	C180.676071,103.528984 180.449951,115.137077 180.149948,126.743271 
	C179.874741,137.390961 172.864044,144.450333 162.326004,144.793411 
	C151.581711,145.143204 143.286301,137.812347 142.555405,127.330658 
	C142.405655,125.183220 142.224579,123.037956 142.419952,120.459671 
	C148.507156,114.859665 154.335999,109.798317 159.862930,104.426346 
	C160.868881,103.448593 160.641434,101.201836 160.983368,99.540894 
	C162.849243,97.407272 164.715103,95.273651 166.799347,93.438957 
	C165.899796,95.019615 164.781860,96.301353 163.663925,97.583092 
	C165.356003,98.079193 166.248138,97.802193 166.936066,97.264107 
	C169.377548,95.354446 171.636505,93.190552 174.186661,91.447937 
	C175.927200,90.258568 178.037537,89.610382 179.982529,88.720230 
z"/>
<path fill="#719A50" opacity="1.000000" stroke="none" 
	d="
M71.798248,187.071808 
	C74.455948,185.773422 77.113655,184.475037 80.032631,183.049011 
	C87.251686,193.125793 98.464821,189.311081 108.601685,189.851959 
	C115.205894,183.676041 123.788216,187.315338 131.619232,185.144684 
	C133.718796,186.210358 135.442505,187.403763 137.135361,188.639435 
	C141.986862,192.180725 146.825867,195.739182 151.831940,199.574020 
	C138.965607,199.917297 125.937111,199.977432 112.437515,200.071045 
	C103.611046,200.082306 95.255669,200.060089 86.427673,200.065460 
	C85.251175,199.977127 84.547302,199.861252 83.334915,199.479889 
	C82.224808,198.798157 81.623215,198.381897 80.822617,197.699249 
	C78.095261,194.946930 75.566902,192.461014 72.899338,189.691223 
	C72.439499,188.628845 72.118874,187.850327 71.798248,187.071808 
z"/>
<path fill="#90C251" opacity="1.000000" stroke="none" 
	d="
M189.944733,119.399078 
	C192.122284,108.392517 191.853622,97.635117 191.006622,86.427849 
	C194.289978,86.215828 194.813080,88.412254 195.020828,91.165878 
	C195.690140,100.037994 197.243576,108.903297 194.150314,117.675209 
	C193.680145,119.008514 194.029831,120.630936 193.615189,122.560173 
	C192.457901,123.002708 191.685760,123.004700 190.913605,123.006699 
	C190.913605,123.006699 190.898438,122.623886 190.799026,122.218292 
	C190.519012,121.540047 190.314346,121.286873 190.085587,121.053162 
	C190.043625,120.612282 190.001663,120.171402 189.944733,119.399078 
z"/>
<path fill="#7B9A69" opacity="1.000000" stroke="none" 
	d="
M160.904892,99.855545 
	C160.641434,101.201836 160.868881,103.448593 159.862930,104.426346 
	C154.335999,109.798317 148.507156,114.859665 142.448044,120.108322 
	C141.827682,119.603699 141.541214,119.018387 141.103271,118.144470 
	C147.576675,111.960640 154.201538,106.065414 160.904892,99.855545 
z"/>
<path fill="#8EC052" opacity="1.000000" stroke="none" 
	d="
M190.934906,123.406845 
	C191.685760,123.004700 192.457901,123.002708 193.615021,123.000511 
	C193.677078,125.732155 193.354172,128.464005 193.009216,131.607147 
	C192.310181,129.281296 191.633194,126.544136 190.934906,123.406845 
z"/>
<path fill="#8EBA57" opacity="1.000000" stroke="none" 
	d="
M193.992615,137.376022 
	C194.387314,138.205704 194.789139,139.386139 195.056076,140.815613 
	C194.614044,139.952026 194.306900,138.839401 193.992615,137.376022 
z"/>
<path fill="#8EBA57" opacity="1.000000" stroke="none" 
	d="
M195.213043,144.270599 
	C195.320282,144.287521 195.521500,144.529114 195.822693,144.995575 
	C195.710770,144.984741 195.505569,144.743027 195.213043,144.270599 
z"/>
<path fill="#8EBA57" opacity="1.000000" stroke="none" 
	d="
M198.449768,168.138397 
	C198.744568,168.302063 198.697540,168.551086 198.263153,168.854156 
	C198.083832,168.693573 198.161224,168.465439 198.449768,168.138397 
z"/>
<path fill="#8EC052" opacity="1.000000" stroke="none" 
	d="
M190.204163,121.267288 
	C190.314346,121.286873 190.519012,121.540047 190.823608,122.028320 
	C190.706711,122.016464 190.498428,121.762299 190.204163,121.267288 
z"/>
<path fill="#91C252" opacity="1.000000" stroke="none" 
	d="
M176.999390,51.000305 
	C175.081848,49.892029 172.214584,49.252274 171.399521,47.600109 
	C165.732697,36.113255 155.374222,30.349327 144.848648,24.503761 
	C131.762665,17.236235 118.327705,11.232183 102.972664,12.113387 
	C97.239296,12.442419 91.559738,13.932621 85.889000,15.061019 
	C81.098778,16.014208 76.272255,16.930830 71.607536,18.344515 
	C47.070923,25.780531 30.874216,42.592468 20.072369,65.118759 
	C17.010708,71.503578 14.482986,78.219704 12.490626,85.012726 
	C11.361482,88.862595 11.752057,93.174332 11.583510,97.283188 
	C11.495605,99.426163 12.107120,101.673859 11.661396,103.712135 
	C10.215473,110.324303 12.703631,116.012901 14.826313,122.023643 
	C16.658236,127.211060 17.161610,132.867661 17.760509,138.615692 
	C15.447568,137.002808 12.521563,135.347672 12.007162,133.132492 
	C10.287527,125.727158 8.680912,118.146393 8.429433,110.586304 
	C8.100083,100.685242 9.287179,90.743393 9.474122,80.812546 
	C9.632539,72.397179 14.884727,66.117905 18.125057,59.036564 
	C21.279722,52.142426 25.338099,45.661819 28.999683,38.999645 
	C30.188776,37.819500 31.377871,36.639355 33.074730,35.080475 
	C35.055454,32.801544 36.528412,30.901354 38.299007,28.917423 
	C39.397701,28.222366 40.198761,27.611050 40.999821,26.999733 
	C40.999821,26.999735 41.499023,26.998396 42.096016,26.913258 
	C44.327938,26.077156 46.011562,25.415714 47.588440,24.558022 
	C51.888523,22.219128 56.203255,19.896761 60.397293,17.376648 
	C63.687439,15.399668 66.806206,13.137492 70.001114,11.002016 
	C71.389450,11.000636 72.777786,10.999256 74.985550,10.954800 
	C82.572693,10.274323 89.337143,9.154948 96.108849,9.109175 
	C107.070061,9.035087 118.036034,9.666167 129.000000,9.999487 
	C130.744034,10.324572 132.488068,10.649656 134.748947,11.293431 
	C140.510330,15.075049 145.754852,18.537977 151.147980,22.281921 
	C152.197723,23.041998 153.098862,23.521061 154.249847,24.000340 
	C154.499695,24.000555 154.999390,24.000824 155.191864,24.278551 
	C159.256439,27.704151 163.128525,30.852024 167.000610,33.999897 
	C168.563644,36.130596 170.126694,38.261295 171.886353,41.052948 
	C173.721786,44.809368 175.360596,47.904835 176.999390,51.000305 
z"/>
<path fill="#8FC14F" opacity="1.000000" stroke="none" 
	d="
M28.667564,39.096252 
	C25.338099,45.661819 21.279722,52.142426 18.125057,59.036564 
	C14.884727,66.117905 9.632539,72.397179 9.474122,80.812546 
	C9.287179,90.743393 8.100083,100.685242 8.429433,110.586304 
	C8.680912,118.146393 10.287527,125.727158 12.007162,133.132492 
	C12.521563,135.347672 15.447568,137.002808 17.630722,138.958954 
	C20.062433,139.667557 22.132118,140.331741 24.626968,141.303131 
	C25.077333,142.019958 25.102530,142.429611 24.964003,143.135498 
	C23.873705,145.079224 21.729769,147.369461 22.208000,148.275208 
	C27.248503,157.821762 34.133621,166.110596 42.505096,172.790756 
	C48.069775,177.231186 54.692833,180.405655 61.051670,183.748215 
	C62.651516,184.589172 65.056061,183.899292 67.090797,183.912918 
	C67.632500,184.427338 68.174194,184.941757 68.914200,186.042145 
	C70.421188,187.743790 71.729866,188.859436 73.038544,189.975098 
	C75.566902,192.461014 78.095261,194.946930 80.818863,198.026230 
	C81.012970,199.054138 81.011848,199.488663 81.010727,199.923187 
	C80.256439,199.941162 79.502151,199.959152 78.370361,199.969742 
	C75.861771,195.918869 74.128761,191.421432 68.340637,191.574600 
	C68.024887,191.582947 67.678246,191.457825 67.389694,191.309677 
	C58.745632,186.872131 49.388935,183.395065 41.677788,177.693115 
	C34.541115,172.415955 29.157846,164.763809 23.030535,158.131577 
	C22.476269,157.531647 22.239311,156.630249 21.666813,156.056686 
	C12.413886,146.786667 9.183309,134.874420 6.856625,122.548515 
	C6.749142,121.979111 6.273683,121.479156 5.725541,120.519623 
	C4.504254,122.145157 3.554280,123.409576 2.328570,124.834267 
	C2.042368,108.642273 2.031902,92.290009 2.035707,75.469711 
	C7.057318,78.175087 7.320352,77.768631 9.158695,72.284538 
	C11.022528,66.724411 13.846848,61.488819 16.197714,56.088108 
	C17.114239,53.982555 17.886717,51.814308 19.160324,49.205025 
	C20.397118,47.490105 21.198389,46.244774 21.999660,44.999447 
	C24.111591,43.063919 26.223520,41.128391 28.667564,39.096252 
z"/>
<path fill="#8FC04F" opacity="1.000000" stroke="none" 
	d="
M128.822769,9.686225 
	C118.036034,9.666167 107.070061,9.035087 96.108849,9.109175 
	C89.337143,9.154948 82.572693,10.274323 75.402054,10.954546 
	C78.132507,9.384222 81.265884,7.771072 84.398628,6.158248 
	C81.443565,5.048141 78.358131,3.889054 75.137177,2.391603 
	C91.687332,2.041729 108.373001,2.030219 125.526093,2.032150 
	C123.060631,3.139512 120.127739,4.233432 116.616066,5.543232 
	C120.966393,6.928213 124.805969,8.150587 128.822769,9.686225 
z"/>
<path fill="#8FC04F" opacity="1.000000" stroke="none" 
	d="
M69.599609,11.006410 
	C66.806206,13.137492 63.687439,15.399668 60.397293,17.376648 
	C56.203255,19.896761 51.888523,22.219128 47.588440,24.558022 
	C46.011562,25.415714 44.327938,26.077156 42.345619,26.912788 
	C42.582275,25.663979 42.806309,23.611010 43.807037,23.110279 
	C52.189972,18.915722 60.715530,15.006208 69.599609,11.006410 
z"/>
<path fill="#8FC04F" opacity="1.000000" stroke="none" 
	d="
M50.223221,2.361009 
	C54.692295,2.043390 59.377880,2.033268 64.528183,2.038029 
	C60.273838,5.378613 55.377407,4.511096 50.223221,2.361009 
z"/>
<path fill="#8FC14F" opacity="1.000000" stroke="none" 
	d="
M38.001373,29.001163 
	C36.528412,30.901354 35.055454,32.801544 33.290581,34.850250 
	C33.775578,33.081116 34.552486,31.163469 35.997753,29.122791 
	C37.110744,28.999840 37.555370,28.999920 38.000000,29.000000 
	C38.000000,29.000000 38.001373,29.001163 38.001373,29.001163 
z"/>
<path fill="#8FC04F" opacity="1.000000" stroke="none" 
	d="
M21.701910,45.131756 
	C21.198389,46.244774 20.397118,47.490105 19.298077,48.867645 
	C19.801590,47.754593 20.602875,46.509327 21.701910,45.131756 
z"/>
<path fill="#8FC14F" opacity="1.000000" stroke="none" 
	d="
M40.624847,26.999638 
	C40.198761,27.611050 39.397701,28.222366 38.299011,28.917423 
	C38.001373,29.001163 38.000000,29.000000 38.000000,28.666691 
	C38.000000,27.888971 38.000000,27.444559 38.000000,27.000149 
	C38.749958,26.999947 39.499912,26.999746 40.624847,26.999638 
z"/>
<path fill="#8FC04F" opacity="1.000000" stroke="none" 
	d="
M37.732811,27.122059 
	C38.000000,27.444559 38.000000,27.888971 38.000000,28.666691 
	C37.555370,28.999920 37.110744,28.999840 36.332626,28.999622 
	C36.487965,28.414312 36.976791,27.829142 37.732811,27.122059 
z"/>
<path fill="#8FC14E" opacity="1.000000" stroke="none" 
	d="
M150.999390,22.000906 
	C145.754852,18.537977 140.510330,15.075049 135.131897,11.307202 
	C138.976898,12.413465 143.224045,13.340397 146.866898,15.358266 
	C151.432297,17.887154 155.501801,21.311274 159.537460,24.594414 
	C157.859528,24.560162 156.429459,24.280493 154.999390,24.000824 
	C154.999390,24.000824 154.499695,24.000555 154.101379,23.719200 
	C152.801834,22.958866 151.900604,22.479887 150.999390,22.000906 
z"/>
<path fill="#8FC150" opacity="1.000000" stroke="none" 
	d="
M155.191864,24.278551 
	C156.429459,24.280493 157.859528,24.560162 159.645416,24.919468 
	C160.806824,25.248857 161.612427,25.498613 162.830994,26.141418 
	C163.829300,27.022873 164.414642,27.511278 165.000000,27.999681 
	C165.203934,28.239767 165.420288,28.468086 165.824844,28.842125 
	C166.408920,30.495434 166.817215,31.991251 167.113068,33.743484 
	C163.128525,30.852024 159.256439,27.704151 155.191864,24.278551 
z"/>
<path fill="#8FC04F" opacity="1.000000" stroke="none" 
	d="
M129.185364,2.331473 
	C130.717163,2.038445 132.428421,2.029371 134.566895,2.033854 
	C133.336273,4.403087 131.456436,4.558641 129.185364,2.331473 
z"/>
<path fill="#8FC14E" opacity="1.000000" stroke="none" 
	d="
M164.878052,27.732544 
	C164.414642,27.511278 163.829300,27.022873 163.121979,26.267351 
	C163.585373,26.488625 164.170746,26.977016 164.878052,27.732544 
z"/>
<path fill="#91C251" opacity="1.000000" stroke="none" 
	d="
M176.999695,51.000153 
	C175.360596,47.904835 173.721786,44.809368 172.041489,41.356949 
	C184.889786,49.985794 187.985474,64.384689 192.373199,78.043579 
	C192.602997,78.758934 191.852051,79.789345 191.279144,80.836433 
	C191.000610,80.999786 191.000000,81.000298 190.983429,80.604706 
	C187.596649,71.439552 184.322723,62.630394 180.750656,53.943836 
	C180.224716,52.664867 178.284988,51.967270 176.999390,51.000687 
	C176.999390,51.000687 177.000000,51.000000 176.999695,51.000153 
z"/>
<path fill="#8EC04C" opacity="1.000000" stroke="none" 
	d="
M81.366608,199.902405 
	C81.011848,199.488663 81.012970,199.054138 81.017860,198.292633 
	C81.623215,198.381897 82.224808,198.798157 82.979980,199.440369 
	C82.663200,199.738113 82.192848,199.809860 81.366608,199.902405 
z"/>
<path fill="#9EC865" opacity="1.000000" stroke="none" 
	d="
M140.063965,66.112343 
	C139.966782,66.446335 139.762772,66.691391 138.882996,66.812195 
	C137.189041,65.267593 136.076431,63.748867 134.934189,62.252750 
	C134.281982,61.398468 133.745102,60.186623 132.870834,59.823948 
	C130.614014,58.887753 128.225388,58.220509 125.839760,57.655487 
	C122.631935,56.895737 119.399567,56.166443 116.136673,55.733570 
	C113.063751,55.325897 109.937561,55.319660 106.330414,55.107098 
	C107.235909,52.533272 107.715652,51.169628 107.925484,50.573189 
	C104.591270,50.573189 101.525185,50.461887 98.470604,50.601849 
	C94.795586,50.770237 90.723297,50.616055 90.940231,56.443245 
	C90.291908,56.829052 89.770302,56.963917 88.835312,57.072968 
	C83.802353,57.142082 79.657143,58.118275 76.806999,62.304989 
	C74.881737,65.133110 72.863144,64.982559 71.142555,61.895187 
	C70.720230,61.137383 69.961700,60.566948 69.610008,60.184620 
	C67.596916,64.784325 65.920624,69.306473 63.676113,73.526390 
	C61.844288,76.970413 59.333542,80.053322 56.967224,83.582771 
	C50.322647,89.674072 43.834671,95.478935 37.344021,100.919930 
	C37.282684,99.238098 37.692650,97.628387 37.084938,96.652252 
	C34.324703,92.218628 35.401253,88.499832 38.627499,84.938423 
	C39.056103,84.465294 39.412582,83.789307 39.499592,83.165039 
	C40.646980,74.933266 44.298668,68.034142 49.051064,61.167599 
	C54.935715,52.665100 63.407715,47.895271 71.566750,42.586262 
	C75.102638,40.285492 79.440781,39.112526 83.535500,37.806637 
	C87.292305,36.608517 91.191933,35.266716 95.063889,35.149166 
	C102.253059,34.930912 109.379410,34.302071 116.380257,38.201061 
	C122.174629,41.428120 129.213272,42.337784 135.455811,44.876251 
	C138.898407,46.276154 141.836685,48.916279 145.251740,50.998203 
	C145.501160,50.999119 146.000000,51.000916 145.984955,51.374428 
	C145.651596,54.167866 145.333313,56.587788 145.021973,59.362614 
	C145.056503,60.190296 145.084091,60.663074 145.111679,61.135853 
	C145.111679,61.135853 145.030594,61.009647 144.702713,61.057564 
	C141.059097,61.156822 140.181015,63.306965 140.063965,66.112343 
M82.733887,54.780113 
	C85.528000,53.173683 84.621025,51.803146 82.168861,51.569157 
	C80.475060,51.407539 78.663193,52.483162 76.904091,53.005890 
	C76.940834,53.486679 76.977585,53.967472 77.014328,54.448261 
	C78.683060,54.600018 80.351799,54.751774 82.733887,54.780113 
M112.216774,51.942863 
	C112.099220,52.024185 111.981667,52.105503 111.864113,52.186832 
	C111.978638,52.164272 112.093155,52.141708 112.216774,51.942863 
z"/>
<path fill="#A2C96D" opacity="1.000000" stroke="none" 
	d="
M91.066956,56.192303 
	C90.723297,50.616055 94.795586,50.770237 98.470604,50.601849 
	C101.525185,50.461887 104.591270,50.573189 107.925484,50.573189 
	C107.715652,51.169628 107.235909,52.533272 106.330414,55.107098 
	C109.937561,55.319660 113.063751,55.325897 116.136673,55.733570 
	C119.399567,56.166443 122.631935,56.895737 125.839760,57.655487 
	C128.225388,58.220509 130.614014,58.887753 132.870834,59.823948 
	C133.745102,60.186623 134.281982,61.398468 134.934189,62.252750 
	C136.076431,63.748867 137.189041,65.267593 138.649628,66.886147 
	C132.530945,72.940308 126.076698,78.885178 119.051620,84.679207 
	C116.708618,82.044144 114.936440,79.559921 113.112663,76.652359 
	C113.076912,65.183014 105.797699,56.980251 91.066956,56.192303 
z"/>
<path fill="#7F9F64" opacity="1.000000" stroke="none" 
	d="
M113.164261,77.075691 
	C114.936440,79.559921 116.708618,82.044144 118.722351,84.762741 
	C110.124908,93.277588 101.391907,101.675079 92.416290,109.804710 
	C83.911125,117.508224 82.117584,125.524139 87.082031,136.555283 
	C85.809860,135.388138 83.785233,134.039963 83.274590,132.257935 
	C82.579163,129.831024 82.841721,127.057465 83.046478,124.460373 
	C83.425049,119.658844 81.611412,117.666641 76.542221,118.697777 
	C85.860268,109.715462 95.309715,100.909172 105.003838,92.381027 
	C109.734436,88.219406 112.688667,83.375793 113.164261,77.075691 
z"/>
<path fill="#9AC661" opacity="1.000000" stroke="none" 
	d="
M145.015030,59.007710 
	C145.333313,56.587788 145.651596,54.167866 146.330231,51.271553 
	C150.516022,47.808826 154.240646,50.493221 158.004044,50.996353 
	C159.437088,51.064102 160.870132,51.131847 162.281067,51.198547 
	C162.445358,53.135895 162.592743,54.873981 162.802429,56.905708 
	C158.246979,57.768227 153.629242,58.337109 148.258118,58.996574 
	C146.674835,59.060677 145.844925,59.034195 145.015030,59.007710 
z"/>
<path fill="#799662" opacity="1.000000" stroke="none" 
	d="
M179.936264,88.367516 
	C178.037537,89.610382 175.927200,90.258568 174.186661,91.447937 
	C171.636505,93.190552 169.377548,95.354446 166.936066,97.264107 
	C166.248138,97.802193 165.356003,98.079193 163.663925,97.583092 
	C164.781860,96.301353 165.899796,95.019615 167.188690,93.439194 
	C172.205887,90.271484 175.049530,85.925430 176.790619,80.340401 
	C177.955032,82.711525 178.922516,85.363167 179.936264,88.367516 
z"/>
<path fill="#A8C67C" opacity="1.000000" stroke="none" 
	d="
M140.362762,65.971954 
	C140.181015,63.306965 141.059097,61.156822 144.755539,61.111275 
	C143.644684,62.688560 142.153137,64.260063 140.362762,65.971954 
z"/>
<path fill="#7F9F64" opacity="1.000000" stroke="none" 
	d="
M93.988434,145.001160 
	C92.802162,143.761414 91.615898,142.521652 90.404701,140.944061 
	C91.897911,141.490540 93.416054,142.374832 94.917297,143.712616 
	C94.596405,144.444458 94.292419,144.722809 93.988434,145.001160 
z"/>
<path fill="#9AC661" opacity="1.000000" stroke="none" 
	d="
M163.109161,57.384117 
	C164.438019,57.618736 166.016571,58.088478 167.750916,58.883789 
	C166.390778,58.679317 164.874817,58.149277 163.109161,57.384117 
z"/>
<path fill="#7F9F64" opacity="1.000000" stroke="none" 
	d="
M90.255127,140.351257 
	C89.614662,139.986557 88.844589,139.354599 88.021744,138.398529 
	C88.687813,138.744293 89.406662,139.414154 90.255127,140.351257 
z"/>
<path fill="#A8C67C" opacity="1.000000" stroke="none" 
	d="
M145.021973,59.362614 
	C145.844925,59.034195 146.674835,59.060677 147.918396,59.136318 
	C147.467270,59.794277 146.602493,60.403080 145.424698,61.073868 
	C145.084091,60.663074 145.056503,60.190296 145.021973,59.362614 
z"/>
<path fill="#6B9153" opacity="1.000000" stroke="none" 
	d="
M94.348274,144.987244 
	C94.292419,144.722809 94.596405,144.444458 95.134949,143.964462 
	C95.694206,143.882263 95.906219,144.107681 96.075691,144.667694 
	C95.666588,144.921967 95.187355,144.947632 94.348274,144.987244 
z"/>
<path fill="#FDFEFB" opacity="1.000000" stroke="none" 
	d="
M113.112663,76.652359 
	C112.688667,83.375793 109.734436,88.219406 105.003838,92.381027 
	C95.309715,100.909172 85.860268,109.715462 76.159714,118.704697 
	C75.664055,119.045418 75.375237,119.196587 74.738327,119.809723 
	C72.787285,121.681046 71.240822,123.198326 69.694351,124.715599 
	C69.694351,124.715599 69.826813,124.827660 69.474724,124.873894 
	C67.758179,126.283966 66.393723,127.647804 65.029266,129.011642 
	C60.856918,132.723572 56.718029,136.473969 52.504284,140.138275 
	C46.354412,145.486267 39.370956,146.299622 31.224491,143.351227 
	C28.740503,141.656021 26.852385,140.364548 24.964268,139.073059 
	C24.964268,139.073059 24.985300,139.014618 24.860050,138.749939 
	C24.219799,137.924454 23.704800,137.363632 23.189796,136.802811 
	C23.189795,136.802811 23.183790,136.881470 23.191534,136.579117 
	C22.866224,135.787750 22.533173,135.298752 22.200121,134.809738 
	C22.200121,134.809738 22.183929,134.877640 22.201559,134.535461 
	C21.774084,133.137558 21.328978,132.081833 20.883871,131.026108 
	C20.852568,130.562759 20.821264,130.099411 20.757378,128.897949 
	C20.617212,126.819923 20.509628,125.480026 20.402046,124.140129 
	C20.598253,123.039566 20.794458,121.938995 21.126617,120.185577 
	C21.237236,119.362396 21.211903,119.192062 21.186569,119.021736 
	C21.186569,119.021736 21.254753,118.663338 21.272308,118.304855 
	C21.309652,117.681870 21.356167,117.422165 21.429403,117.167252 
	C21.582315,117.013435 21.735228,116.859612 22.166784,116.126068 
	C26.029888,112.066185 29.614346,108.586021 33.455856,105.014999 
	C34.189819,104.398613 34.666729,103.873085 35.431297,103.233536 
	C36.242603,102.512497 36.766247,101.905464 37.306648,101.305267 
	C37.323402,101.312096 37.346695,101.283806 37.346695,101.283806 
	C43.834671,95.478935 50.322647,89.674072 57.287968,83.461395 
	C61.078121,80.087440 64.280945,76.986053 67.726715,74.183357 
	C74.832054,68.404091 82.067055,62.784222 89.248703,57.098778 
	C89.770302,56.963917 90.291908,56.829052 90.940231,56.443245 
	C105.797699,56.980251 113.076912,65.183014 113.112663,76.652359 
z"/>
<path fill="#93C355" opacity="1.000000" stroke="none" 
	d="
M66.908531,183.658646 
	C65.056061,183.899292 62.651516,184.589172 61.051670,183.748215 
	C54.692833,180.405655 48.069775,177.231186 42.505096,172.790756 
	C34.133621,166.110596 27.248503,157.821762 22.208000,148.275208 
	C21.729769,147.369461 23.873705,145.079224 25.266808,143.295715 
	C27.447262,143.776123 29.161186,144.392548 30.875109,145.008987 
	C34.141190,148.453568 37.407276,151.898163 40.883987,155.973892 
	C42.086636,157.720963 43.078655,158.836868 44.070679,159.952789 
	C44.070679,159.952789 43.998501,159.971252 44.019920,160.351440 
	C44.576946,165.404434 51.504463,171.909775 57.054646,172.951889 
	C57.054646,172.951889 57.011429,173.003021 57.056889,173.336777 
	C59.115692,175.763367 61.129040,177.856216 63.142387,179.949051 
	C64.337013,181.100830 65.531639,182.252594 66.908531,183.658646 
z"/>
<path fill="#93C15C" opacity="1.000000" stroke="none" 
	d="
M56.902237,172.652008 
	C51.504463,171.909775 44.576946,165.404434 44.050896,160.330231 
	C48.290241,164.069916 52.520035,168.211029 56.902237,172.652008 
z"/>
<path fill="#A0C375" opacity="1.000000" stroke="none" 
	d="
M30.930851,144.604370 
	C29.161186,144.392548 27.447262,143.776123 25.430531,142.999481 
	C25.102530,142.429611 25.077333,142.019958 25.024693,141.302414 
	C24.982405,140.567551 24.967558,140.140610 24.958488,139.393356 
	C26.852385,140.364548 28.740503,141.656021 30.836960,143.166260 
	C31.025728,143.656586 31.006159,143.928162 30.930851,144.604370 
z"/>
<path fill="#93C15C" opacity="1.000000" stroke="none" 
	d="
M63.024574,179.630341 
	C61.129040,177.856216 59.115692,175.763367 57.073330,173.309479 
	C58.998463,175.069504 60.952614,177.190582 63.024574,179.630341 
z"/>
<path fill="#7F9F64" opacity="1.000000" stroke="none" 
	d="
M70.064331,124.717384 
	C71.240822,123.198326 72.787285,121.681046 74.634476,120.035706 
	C73.434898,121.511482 71.934608,123.115326 70.064331,124.717384 
z"/>
<path fill="#7F9F64" opacity="1.000000" stroke="none" 
	d="
M65.397369,128.994507 
	C66.393723,127.647804 67.758179,126.283966 69.425537,124.802429 
	C68.407463,126.115616 67.086472,127.546494 65.397369,128.994507 
z"/>
<path fill="#93C15C" opacity="1.000000" stroke="none" 
	d="
M72.899338,189.691223 
	C71.729866,188.859436 70.421188,187.743790 69.064926,186.280365 
	C69.752563,186.261856 70.487793,186.591095 71.510635,186.996063 
	C72.118874,187.850327 72.439499,188.628845 72.899338,189.691223 
z"/>
<path fill="#93C15C" opacity="1.000000" stroke="none" 
	d="
M43.982742,159.640808 
	C43.078655,158.836868 42.086636,157.720963 41.065590,156.248474 
	C41.989315,157.037552 42.942059,158.183182 43.982742,159.640808 
z"/>
<path fill="#98C55E" opacity="1.000000" stroke="none" 
	d="
M157.987778,50.620228 
	C154.240646,50.493221 150.516022,47.808826 146.345276,50.898037 
	C146.000000,51.000916 145.501160,50.999119 145.332184,50.637161 
	C145.036026,48.375450 145.662292,45.561073 144.654251,44.730709 
	C139.692719,40.643730 134.698471,36.205837 128.945694,33.577038 
	C122.875053,30.802990 115.997948,28.847849 109.360947,28.461231 
	C96.579887,27.716707 83.227646,25.841127 72.341980,35.663727 
	C71.502708,36.421036 70.268799,36.721085 69.301086,37.359188 
	C63.263065,41.340591 56.673447,44.728172 51.396431,49.549213 
	C46.610622,53.921494 43.141453,59.782211 39.339989,65.162071 
	C37.754112,67.406425 37.367893,70.694946 35.470745,72.486092 
	C29.741650,77.895088 28.473799,84.786407 28.088381,91.999702 
	C27.898022,95.562401 26.640337,97.301292 23.003662,97.002136 
	C22.218319,78.858025 29.127872,63.903698 41.048092,50.495995 
	C50.289738,40.101112 60.348209,31.364798 73.732925,26.919662 
	C93.757851,20.269274 113.663559,20.801775 133.080917,28.781874 
	C141.833725,32.379078 149.847061,37.670757 155.797287,45.378952 
	C156.852325,46.745705 157.263184,48.609715 157.987778,50.620228 
z"/>
<path fill="#9AC661" opacity="1.000000" stroke="none" 
	d="
M23.003639,97.335098 
	C26.640337,97.301292 27.898022,95.562401 28.088381,91.999702 
	C28.473799,84.786407 29.741650,77.895088 35.470745,72.486092 
	C37.367893,70.694946 37.754112,67.406425 39.339989,65.162071 
	C43.141453,59.782211 46.610622,53.921494 51.396431,49.549213 
	C56.673447,44.728172 63.263065,41.340591 69.301086,37.359188 
	C70.268799,36.721085 71.502708,36.421036 72.341980,35.663727 
	C83.227646,25.841127 96.579887,27.716707 109.360947,28.461231 
	C115.997948,28.847849 122.875053,30.802990 128.945694,33.577038 
	C134.698471,36.205837 139.692719,40.643730 144.654251,44.730709 
	C145.662292,45.561073 145.036026,48.375450 145.082764,50.636246 
	C141.836685,48.916279 138.898407,46.276154 135.455811,44.876251 
	C129.213272,42.337784 122.174629,41.428120 116.380257,38.201061 
	C109.379410,34.302071 102.253059,34.930912 95.063889,35.149166 
	C91.191933,35.266716 87.292305,36.608517 83.535500,37.806637 
	C79.440781,39.112526 75.102638,40.285492 71.566750,42.586262 
	C63.407715,47.895271 54.935715,52.665100 49.051064,61.167599 
	C44.298668,68.034142 40.646980,74.933266 39.499592,83.165039 
	C39.412582,83.789307 39.056103,84.465294 38.627499,84.938423 
	C35.401253,88.499832 34.324703,92.218628 37.084938,96.652252 
	C37.692650,97.628387 37.282684,99.238098 37.344025,100.919930 
	C37.346695,101.283806 37.323402,101.312096 36.926689,101.238419 
	C36.019684,101.109116 35.509396,101.053490 34.871151,100.690506 
	C33.418144,97.792191 31.658010,96.989639 28.748663,98.224304 
	C27.033541,98.952171 24.933002,98.771851 23.005798,98.999969 
	C23.005070,98.556000 23.004341,98.112030 23.003639,97.335098 
z"/>
<path fill="#98C55E" opacity="1.000000" stroke="none" 
	d="
M22.659863,99.038666 
	C24.933002,98.771851 27.033541,98.952171 28.748663,98.224304 
	C31.658010,96.989639 33.418144,97.792191 34.890495,101.082443 
	C35.073078,102.303665 35.108356,102.825607 35.143639,103.347549 
	C34.666729,103.873085 34.189819,104.398613 33.078194,105.016983 
	C29.652771,107.078247 26.862064,109.046669 24.071358,111.015083 
	C22.833267,109.775337 21.278540,108.716141 20.441261,107.247833 
	C19.501183,105.599243 19.209295,103.581032 18.407513,100.986084 
	C19.314152,100.543083 20.814039,99.810219 22.659863,99.038666 
z"/>
<path fill="#91C252" opacity="1.000000" stroke="none" 
	d="
M176.873718,51.315186 
	C178.284988,51.967270 180.224716,52.664867 180.750656,53.943836 
	C184.322723,62.630394 187.596649,71.439552 190.982208,80.605927 
	C189.723251,79.678520 187.983765,78.565773 187.266586,76.988274 
	C185.500137,73.102745 184.432343,68.897530 182.638123,65.027397 
	C181.419617,62.399075 179.898575,59.537376 177.697525,57.832829 
	C174.948761,55.704109 175.223267,53.978352 176.873718,51.315186 
z"/>
<path fill="#A9CB75" opacity="1.000000" stroke="none" 
	d="
M23.959719,111.342346 
	C26.862064,109.046669 29.652771,107.078247 32.821140,105.107849 
	C29.614346,108.586021 26.029888,112.066185 22.253277,115.812439 
	C22.656775,114.608887 23.252426,113.139244 23.959719,111.342346 
z"/>
<path fill="#9AC661" opacity="1.000000" stroke="none" 
	d="
M170.278412,56.335083 
	C170.615677,55.948334 171.072617,55.715405 171.529541,55.482483 
	C171.591568,55.759098 171.653580,56.035713 171.715607,56.312328 
	C171.276428,56.371185 170.837234,56.430046 170.278412,56.335083 
z"/>
<path fill="#A9CB75" opacity="1.000000" stroke="none" 
	d="
M20.783096,131.281448 
	C21.328978,132.081833 21.774084,133.137558 22.236195,134.539795 
	C21.729574,133.769806 21.205948,132.653290 20.783096,131.281448 
z"/>
<path fill="#A9CB75" opacity="1.000000" stroke="none" 
	d="
M20.278145,124.424774 
	C20.509628,125.480026 20.617212,126.819923 20.664261,128.562012 
	C20.453899,127.545944 20.304073,126.127686 20.278145,124.424774 
z"/>
<path fill="#A0C375" opacity="1.000000" stroke="none" 
	d="
M23.249390,137.098297 
	C23.704800,137.363632 24.219799,137.924454 24.830757,138.760254 
	C24.387470,138.488098 23.848227,137.940948 23.249390,137.098297 
z"/>
<path fill="#A9CB75" opacity="1.000000" stroke="none" 
	d="
M22.243591,135.106964 
	C22.533173,135.298752 22.866224,135.787750 23.230906,136.581482 
	C22.937376,136.392197 22.612219,135.898209 22.243591,135.106964 
z"/>
<path fill="#A9CB75" opacity="1.000000" stroke="none" 
	d="
M21.077463,119.115356 
	C21.211903,119.192062 21.237236,119.362396 21.151489,119.765953 
	C20.840036,119.751114 20.816019,119.487709 21.077463,119.115356 
z"/>
<path fill="#A9CB75" opacity="1.000000" stroke="none" 
	d="
M21.308733,117.330978 
	C21.356167,117.422165 21.309652,117.681870 21.205709,118.135025 
	C21.063229,118.040741 21.085396,117.764420 21.308733,117.330978 
z"/>
<path fill="#8FC150" opacity="1.000000" stroke="none" 
	d="
M151.147980,22.281921 
	C151.900604,22.479887 152.801834,22.958866 153.851532,23.718987 
	C153.098862,23.521061 152.197723,23.041998 151.147980,22.281921 
z"/>
<path fill="#A2C96D" opacity="1.000000" stroke="none" 
	d="
M88.835312,57.072968 
	C82.067055,62.784222 74.832054,68.404091 67.726715,74.183357 
	C64.280945,76.986053 61.078121,80.087440 57.444565,83.174973 
	C59.333542,80.053322 61.844288,76.970413 63.676113,73.526390 
	C65.920624,69.306473 67.596916,64.784325 69.610008,60.184620 
	C69.961700,60.566948 70.720230,61.137383 71.142555,61.895187 
	C72.863144,64.982559 74.881737,65.133110 76.806999,62.304989 
	C79.657143,58.118275 83.802353,57.142082 88.835312,57.072968 
z"/>
<path fill="#A2C96D" opacity="1.000000" stroke="none" 
	d="
M82.377213,54.841820 
	C80.351799,54.751774 78.683060,54.600018 77.014328,54.448261 
	C76.977585,53.967472 76.940834,53.486679 76.904091,53.005890 
	C78.663193,52.483162 80.475060,51.407539 82.168861,51.569157 
	C84.621025,51.803146 85.528000,53.173683 82.377213,54.841820 
z"/>
<path fill="#A2C96D" opacity="1.000000" stroke="none" 
	d="
M112.212227,52.031006 
	C112.093155,52.141708 111.978638,52.164272 111.864113,52.186829 
	C111.981667,52.105503 112.099220,52.024185 112.212227,52.031006 
z"/>
<path fill="#9EC865" opacity="1.000000" stroke="none" 
	d="
M35.431297,103.233536 
	C35.108356,102.825607 35.073078,102.303665 35.018448,101.389786 
	C35.509396,101.053490 36.019684,101.109116 36.909931,101.231583 
	C36.766247,101.905464 36.242603,102.512497 35.431297,103.233536 
z"/>
</svg>