<?xml version="1.0" encoding="UTF-8"?>
<svg version="1.1" xmlns="http://www.w3.org/2000/svg" width="300" height="300">
<path d="M0 0 C0.78118195 -0.00979385 1.56236389 -0.01958771 2.36721802 -0.02967834 C34.55151865 -0.3502407 34.55151865 -0.3502407 49.8046875 4.23828125 C50.56007812 4.45258789 51.31546875 4.66689453 52.09375 4.88769531 C90.66248948 15.96492107 123.31430018 42.40165869 142.77734375 77.34423828 C161.52283587 111.90401202 166.78791376 152.313766 155.8046875 190.23828125 C155.55299805 191.11226562 155.30130859 191.98625 155.04199219 192.88671875 C147.92673357 216.72954763 135.36171134 237.08394928 118.12988281 254.86181641 C117.01000294 256.02502251 115.91598481 257.21304408 114.828125 258.40625 C94.09218359 280.55808168 64.90944976 292.2842188 35.8046875 298.23828125 C35.06395996 298.41641357 34.32323242 298.5945459 33.56005859 298.77807617 C29.82551665 299.40182343 26.11624097 299.45960224 22.33984375 299.51171875 C21.10735901 299.53051086 21.10735901 299.53051086 19.84997559 299.54968262 C2.26480345 299.76584284 -14.3168464 299.78872105 -31.1953125 294.23828125 C-31.9466748 294.00834473 -32.69803711 293.7784082 -33.47216797 293.54150391 C-71.65589076 281.83536368 -103.23200082 255.19963391 -122.1953125 220.23828125 C-139.97698274 186.68341256 -145.23514998 146.33175942 -134.44775391 109.69970703 C-127.15602727 86.0250955 -115.91120216 65.52236262 -99.1953125 47.23828125 C-98.72899414 46.72668457 -98.26267578 46.21508789 -97.78222656 45.68798828 C-75.57907408 21.66378109 -46.0135501 7.42497245 -14.1953125 1.23828125 C-12.82536133 0.96999512 -12.82536133 0.96999512 -11.42773438 0.69628906 C-7.61186194 0.15561107 -3.84617825 0.03956 0 0 Z " fill="#D0212A" transform="translate(139.1953125,0.76171875)"/>
<path d="M0 0 C0.68384766 -0.04962891 1.36769531 -0.09925781 2.07226562 -0.15039062 C13.20595454 -0.36352414 21.47595354 6.72992839 29.1230011 13.96339417 C32.58521155 17.33395461 35.99244631 20.75465005 39.3762207 24.20385742 C42.00095055 26.8759677 44.65152427 29.52022572 47.30664062 32.16210938 C49.00680024 33.87341994 50.70542209 35.58625991 52.40234375 37.30078125 C53.18367172 38.08028641 53.96499969 38.85979156 54.77000427 39.66291809 C63.0897168 48.19743024 68.28003583 56.47703691 69.4375 68.4375 C68.95886689 83.72384486 55.88267822 95.17474746 45.82421875 105.12890625 C44.53423086 106.41583171 43.24483714 107.70335299 41.95600891 108.99143982 C39.2700583 111.67281358 36.57930488 114.34923231 33.88452148 117.02172852 C30.42289054 120.45487879 26.97018232 123.89683336 23.52054119 127.34202671 C20.86603009 129.99239515 18.20870011 132.63992062 15.55030251 135.2863903 C14.27512644 136.55585695 13.00042568 137.82580123 11.72620201 139.09622383 C9.95508978 140.86050462 8.18063533 142.62134695 6.4050293 144.38110352 C5.87570801 144.90930695 5.34638672 145.43751038 4.80102539 145.98171997 C1.17720084 149.5625 1.17720084 149.5625 0.0625 149.5625 C-2.66986967 138.92080935 -4.4366298 126.9455844 0.0625 116.5625 C8.4008811 103.74228385 21.21286522 93.29063549 32.77703857 83.45872498 C38.56490446 78.45321812 41.54267333 74.79537432 42.5 67 C41.97664435 62.88791991 40.66233649 60.64536621 38.0625 57.5625 C37.48757812 56.87929687 36.91265625 56.19609375 36.3203125 55.4921875 C31.56217728 50.05175364 26.5159826 44.88991838 21.4375 39.75 C20.81641357 39.11586182 20.19532715 38.48172363 19.55541992 37.82836914 C11.4546363 29.70704067 11.4546363 29.70704067 0.8125 26.25 C-7.93620933 26.97905911 -12.42214018 32.98162081 -17.7734375 39.265625 C-45.33161516 70.31830475 -45.33161516 70.31830475 -60.11538696 71.21130371 C-67.15472769 71.25536844 -74.11308111 70.25864758 -80.9375 68.5625 C-75.38797169 61.82216037 -69.25776862 55.68205706 -63.109375 49.49609375 C-62.2592622 48.63986766 -62.2592622 48.63986766 -61.3919754 47.76634407 C-58.39431377 44.74793695 -55.39346727 41.73273676 -52.39013672 38.7199707 C-49.31100506 35.62976924 -46.24373876 32.52806247 -43.17896652 29.42362881 C-40.79886206 27.01723784 -38.40977866 24.61991041 -36.01828766 22.22484016 C-34.88435276 21.08607435 -33.75376001 19.94396927 -32.62679291 18.79830742 C-26.27319945 12.34587179 -20.09797261 6.70541355 -11.9375 2.5625 C-10.92197052 2.00755104 -10.92197052 2.00755104 -9.88592529 1.44139099 C-6.70595807 0.00697903 -3.42850799 0.07072259 0 0 Z " fill="#FEFCFC" transform="translate(181.9375,82.4375)"/>
<path d="M0 0 C2.73420899 10.64885418 4.49145838 22.60836254 0 33 C-8.34836659 45.90552717 -21.16454713 56.36820539 -32.71453857 66.33036804 C-33.8851181 67.34294426 -33.8851181 67.34294426 -35.0793457 68.37597656 C-35.76551468 68.95816956 -36.45168365 69.54036255 -37.15864563 70.14019775 C-40.45776257 73.47236737 -42.42906764 76.70694603 -42.4375 81.4375 C-41.88736537 94.30218666 -23.04667437 108.6225949 -14 117 C-9.9029598 120.45540603 -6.74704559 122.69350077 -1.4375 123.625 C7.48426184 122.00286148 12.24603923 117.02604937 17.93359375 110.296875 C44.85071261 79.90883141 44.85071261 79.90883141 57.83984375 78.4921875 C65.64450913 78.02090545 73.4323905 79.11913912 81 81 C75.45047169 87.74033963 69.32026862 93.88044294 63.171875 100.06640625 C62.60513313 100.63722364 62.03839127 101.20804104 61.4544754 101.79615593 C58.45681377 104.81456305 55.45596727 107.82976324 52.45263672 110.8425293 C49.37350506 113.93273076 46.30623876 117.03443753 43.24146652 120.13887119 C40.86136206 122.54526216 38.47227866 124.94258959 36.08078766 127.33765984 C34.94685276 128.47642565 33.81626001 129.61853073 32.68929291 130.76419258 C26.33569945 137.21662821 20.16047261 142.85708645 12 147 C11.32515564 147.37141617 10.65031128 147.74283234 9.95501709 148.12550354 C3.93032484 150.82040174 -5.71215556 149.88535419 -11.98828125 148.1953125 C-24.07611558 142.60444814 -33.85283908 130.36195695 -43.15161133 121.08862305 C-45.31863069 118.93139702 -47.49610522 116.78508528 -49.67382812 114.63867188 C-51.07096917 113.24805527 -52.46747599 111.85680111 -53.86328125 110.46484375 C-54.8274572 109.519188 -54.8274572 109.519188 -55.81111145 108.5544281 C-63.46037665 100.86740659 -68.76878875 92.05602598 -69.4375 81 C-68.73179752 65.75068996 -55.82951013 54.39698768 -45.76171875 44.43359375 C-44.47173086 43.14666829 -43.18233714 41.85914701 -41.89350891 40.57106018 C-39.2075583 37.88968642 -36.51680488 35.21326769 -33.82202148 32.54077148 C-30.36039054 29.10762121 -26.90768232 25.66566664 -23.45804119 22.22047329 C-20.80353009 19.57010485 -18.14620011 16.92257938 -15.48780251 14.2761097 C-14.21262644 13.00664305 -12.93792568 11.73669877 -11.66370201 10.46627617 C-9.89258978 8.70199538 -8.11813533 6.94115305 -6.3425293 5.18139648 C-5.54854736 4.38909134 -5.54854736 4.38909134 -4.73852539 3.58078003 C-1.11470084 0 -1.11470084 0 0 0 Z " fill="#FEFCFC" transform="translate(118,69)"/>
</svg>
